<svg id="그룹_895" data-name="그룹 895" xmlns="http://www.w3.org/2000/svg" xmlns:xlink="http://www.w3.org/1999/xlink" width="382.122" height="106.419" viewBox="0 0 382.122 106.419">
  <defs>
    <clipPath id="clip-path">
      <rect id="사각형_472" data-name="사각형 472" width="382.122" height="106.419" fill="none"/>
    </clipPath>
  </defs>
  <path id="패스_774" data-name="패스 774" d="M4.227,4.227H74.675v97.964H4.227ZM0,0V106.419H78.9V0Z" fill="#fff"/>
  <g id="그룹_894" data-name="그룹 894">
    <g id="그룹_893" data-name="그룹 893" clip-path="url(#clip-path)">
      <path id="패스_775" data-name="패스 775" d="M65.031,44.972c.04.072.147.09.23.092s.19,0,.281,0a16.859,16.859,0,0,0,1.962-.14c.384-.042.805-.088,1.3-.131,2.334-.2,4.032-.293,5.345-.293a17.135,17.135,0,0,1,2.918.217,7.842,7.842,0,0,1,1.959.655V16.387H37.145a7.551,7.551,0,0,1,1.408,1.161,11.533,11.533,0,0,1,.159,3.912l-.026,0,.026.005a.855.855,0,0,0,.694.845c.151.05.341.109.554.174a19.764,19.764,0,0,1,1.919.665l.239.1a14.791,14.791,0,0,1,3.4,1.807A1.493,1.493,0,0,1,46,26.7a1.558,1.558,0,0,1-1.563.943c-.045,0-.091,0-.139,0-1.417-.077-3.322-1.424-4.346-2.148l-.284-.2a2.164,2.164,0,0,0-1.006-.484.626.626,0,0,0-.285.081,1.253,1.253,0,0,0-.433.471c-.112.332-.232.648-.358.939C35.957,30.064,34,32.491,31.78,33.512a7.558,7.558,0,0,1-3.026.573c-1.19,0-2.609-.246-3.021-.934a.843.843,0,0,1,0-.858,12.975,12.975,0,0,1,1.333-1.71,62.2,62.2,0,0,0,5.553-7.47c1.332-2.143,2.08-5.552,1.774-6.007a4.672,4.672,0,0,1-.371-.719H16.387v28.5a3.231,3.231,0,0,0,.733.232,5.644,5.644,0,0,0,1.088.1,16.817,16.817,0,0,0,5.075-1.124l.441-.149c1.785-.595,7.241-2.488,9.534-3.427.265-.109.534-.222.8-.338a3,3,0,0,1,.191-.6c.127-.318.2-.523.114-.723-.04-.091-.082-.174-.124-.256-.336-.665-.5-1.215.281-2.748a13.357,13.357,0,0,1,5.094-4.466,4.573,4.573,0,0,1,1.983-.558A4.8,4.8,0,0,1,42.733,31c.242.057.493.115.794.165,1.563.261,2.035.4,2.38.9a3.684,3.684,0,0,1,.361,1.536c.027.249.052.483.087.685a5.991,5.991,0,0,0,.162.645,3.432,3.432,0,0,1,.2,1.4c-.131,1.179-2.178,2.574-3.368,3.213a34.507,34.507,0,0,1-3.315,1.56L40,41.123c-.352.182-.539.315-.558.386,0,0,.06.177.707.436.969.387,2.629,1.087,4.093,1.705,1.15.486,2.145.9,2.509,1.048a9.63,9.63,0,0,1,3.374,1.916,2.246,2.246,0,0,1,.8,1.774,1,1,0,0,1-.447.736,1.868,1.868,0,0,1-1.029.278,4.77,4.77,0,0,1-1.677-.4l-.12-.046a38.691,38.691,0,0,1-5.52-2.966c-.194-.117-.416-.255-.671-.415-.5-.309-1.113-.695-1.89-1.15l-.066-.038a26.624,26.624,0,0,1,2.589,3.617,7.044,7.044,0,0,1,.931,3.789c-.127.984-.8,2.946-3.891,5.045a85.34,85.34,0,0,1-11.572,6.055l-.063.025C23.614,64.442,19.485,66,18.293,66a1.223,1.223,0,0,1-.127-.006,3.29,3.29,0,0,0-.349-.018,6.478,6.478,0,0,0-1.43.2v40.37H59.069a7.411,7.411,0,0,1-.046-1.7,4.976,4.976,0,0,0,0-1.024c-.029-.384-.072-.965-.1-2.1-.06-2.409.407-3.28.849-3.907a5.328,5.328,0,0,0,.538-1.553c.012-.052-.059-.13-.092-.159a3.022,3.022,0,0,1-.658-.52,1.451,1.451,0,0,0-.565-.346,3.509,3.509,0,0,1-.808-.453.525.525,0,0,1-.243-.6c.092-.265.384-.51,1.888-.51.379,0,.787.017,1.206.047a68.461,68.461,0,0,1,4.448-9.862,34.333,34.333,0,0,1,4.441-5.5,8.6,8.6,0,0,0,1.341-1.39,5.473,5.473,0,0,0-.907.28c-.611.211-1.929.739-3.6,1.408s-3.536,1.418-5.373,2.121c-3.885,1.488-16.853,6.489-20.63,8.377-1.844.922-3.653,1.854-5.249,2.677-1.642.846-3.06,1.577-3.915,1.984a12.3,12.3,0,0,1-3.712,1.21,4.927,4.927,0,0,1-.894.073c-1.211,0-3.219-.355-3.79-1.334a.912.912,0,0,1-.106-.787c.228-.646,1.222-1.026,3.027-1.716.388-.148.812-.31,1.268-.49,1.309-.517,3.576-1.338,6.2-2.287,3.413-1.235,7.281-2.634,10.223-3.793,5.422-2.136,13.323-6.973,17.03-9.52,4.323-2.97,6.254-5.954,6.5-7.235.122-.64-.229-1.147-1.139-1.641l-.042-.023c-.491-.266-.879-.477-.9-.849a.6.6,0,0,1,.321-.529,7.282,7.282,0,0,1,2.213-.538c.112-.007.213-.011.307-.011.728,0,1.024.24,2.126,1.134l.2.158c.882.713.746,1.479.452,2.669-.343,1.388-2.909,4.438-4.371,6.022a17.875,17.875,0,0,1-4.271,3.646l-.05.031c-.094.059-.179.115-.255.166C63.665,77.54,67,76.2,69.753,75.02a17.158,17.158,0,0,1,3.894-1.126,10.859,10.859,0,0,0,1.71-.415,2.362,2.362,0,0,0,.747-.4,3.509,3.509,0,0,1,.6-.379,2.419,2.419,0,0,1,1.087-.215,5.078,5.078,0,0,1,1.238.165V47.693c-1.01-.054-2.71-.088-4.391-.088-.931,0-1.738.011-2.338.032-1.97.068-5.8.506-7.061.649a2.334,2.334,0,0,1-.265.015,3.588,3.588,0,0,1-3.413-3.686,6.086,6.086,0,0,1,.955-2.655c.436-.713,2.154-3.135,2.651-3.813a3.647,3.647,0,0,0,.451-.718.144.144,0,0,0-.092-.035,3.473,3.473,0,0,0-1.059.539c-.918.574-5,3.522-5.523,3.994-.275.246-.253,1.026-.17,1.5a7.955,7.955,0,0,1,.433,3.133.694.694,0,0,1-.686.671,1.625,1.625,0,0,1-.922-.414,12.151,12.151,0,0,1-2.833-3.13,14.144,14.144,0,0,1-1.105-3.163c-.081-.312-.161-.625-.24-.935a22.455,22.455,0,0,0-1.064-3.467c-.651-1.423-.677-1.859-.5-2.133a.5.5,0,0,1,.435-.226.83.83,0,0,1,.195.025,8.076,8.076,0,0,1,2.966,2.464,15.949,15.949,0,0,1,.965,1.493h0l.154.272c.054.1.217.386.3.408a.146.146,0,0,0,.044-.024c.4-.288,3.2-2.074,5-3.153l.12-.072c1.469-.882,2.53-1.519,3.5-1.519a1.881,1.881,0,0,1,.7.129A7.622,7.622,0,0,1,69.3,36.431c.6,1.042-.05,1.9-.733,2.814-.706.943-2.939,4.409-3.429,5.225a.571.571,0,0,0-.1.5m1.051,16.3a2.969,2.969,0,0,1-1.333,2.484c-.253.164-.671.41-1.2.721a47.878,47.878,0,0,0-5.874,3.874,37.63,37.63,0,0,0-4.264,4.342c-.243.318-.534.69-.827,1.066-.625.8-1.272,1.629-1.465,1.939-.262.42-.49.741-.82.741-.174,0-.408-.09-.542-.521a3.507,3.507,0,0,1,.139-3.021l.046-.107A34.814,34.814,0,0,1,52.1,69.335c.2-.3.359-.532.42-.629l.008-.013c-.072.022-.163.054-.276.1a14.213,14.213,0,0,1-2.442.689,1.552,1.552,0,0,1-.285.027,1.573,1.573,0,0,1-1.353-.843,9.228,9.228,0,0,0-1.248-1.685l-.032-.034c-.3-.311-.583-.642-.445-.97.056-.131.194-.289.564-.289.582,0,1.5-.017,1.643-.021,2.519-.365,5.052-1.843,7.089-3.031.839-.49,1.564-.912,2.179-1.195l.364-.168a10.163,10.163,0,0,1,4.576-1.238q.236-.009.45-.009c2.409,0,2.769.778,2.769,1.242M52.651,53.3A19.254,19.254,0,0,1,56.54,52.27c.169-.019.331-.04.489-.06A9.494,9.494,0,0,1,58.3,52.1a6.068,6.068,0,0,1,1.2.124c1.254.251,3.806,3.059,4.1,3.39a2.413,2.413,0,0,1-.043,3.085,1.917,1.917,0,0,1-1.6.813,5,5,0,0,1-.906-.11c-.13-.024-.259-.048-.388-.066a8.94,8.94,0,0,1-.894-.193,6.266,6.266,0,0,0-1.511-.25,2.716,2.716,0,0,0-.509.046,9.717,9.717,0,0,1-1.8.215,3.259,3.259,0,0,1-1.288-.235,4.237,4.237,0,0,1-.506-.263,9.35,9.35,0,0,0-1.138-.571c-1.21-.518-3.2-2.245-3.459-3.168a.5.5,0,0,1,.063-.4c.3-.5,1.539-.78,1.784-.831.264-.056.713-.21,1.234-.388" transform="translate(-8.257 -8.257)" fill="#fff"/>
      <path id="패스_776" data-name="패스 776" d="M63.784,51.308c.27-.591.4-1.2-.765-1.219-1.559-.026-2.533.965-3.533,1.816-1.77,1.5-2.556,3-2.556,3.593a1.449,1.449,0,0,0,.269.783c1.315-.632,2.56-1.279,3.551-1.84a8.784,8.784,0,0,0,3.035-3.134" transform="translate(-28.685 -25.239)" fill="#fff"/>
      <path id="패스_777" data-name="패스 777" d="M36.527,71.412c-.189-.225-.363-.433-.515-.619-.26-.318-.489-.61-.695-.887-2.31.889-4.594,1.86-6.121,2.51-.547.233-1,.426-1.337.564l-.726.3c-2.387,1-4.449,1.858-7.035,1.858q-.153,0-.308,0a5.828,5.828,0,0,1-3.4-1.183V90.985l.249-.119c.282-.134.58-.276.892-.427.711-.342,1.612-.749,2.654-1.22,2.063-.933,4.631-2.093,7.048-3.355,5.6-2.92,9.336-5.184,11.432-6.92a2.559,2.559,0,0,0,.919-2.987c-.32-1.282-1.965-3.246-3.054-4.544" transform="translate(-8.257 -35.224)" fill="#fff"/>
      <path id="패스_778" data-name="패스 778" d="M123.311,139.506a23.019,23.019,0,0,0-5.857,4.286,33.276,33.276,0,0,0-4.284,6.442c-.782,1.48-1.909,3.919-2.752,5.954a10.222,10.222,0,0,1,3.471,1.827c.717.914-.464,2.659-.6,2.855a.942.942,0,0,1-.793.435,1.214,1.214,0,0,1-.627-.191c-.463-.323-.867-.579-1.224-.8-.2-.128-.385-.244-.547-.352-.116-.077-.458-.284-.858-.525a10.72,10.72,0,0,0-.138,2.866,10.463,10.463,0,0,1-.124,1.877,23.358,23.358,0,0,0-.217,3.184c0,.3,0,.63-.021.957h16.825V138.973a6.381,6.381,0,0,0-2.253.533m-2.046,21.038a11.522,11.522,0,0,1-1.66,4.2c-.781,1.355-2.043,2.073-4.412,2.25a5.4,5.4,0,0,1-4.087-1.362c-.355-.3-.592-.651,0-.77a7.815,7.815,0,0,0,2.355-.888c.895-.569,2.264-1.718,3.271-2.428a4.069,4.069,0,0,0,1.836-3.257c.256-2.29-1.007-2.694-1.6-2.991a10.663,10.663,0,0,1-1.984-.962,5.919,5.919,0,0,1-1.451-1.614c-.265-.487,1.066-.355,1.066-.355a16.368,16.368,0,0,0,1.777.089,3.372,3.372,0,0,1,2.27.661c.529.662,1.757,1.5,2.29,2.684a10.368,10.368,0,0,1,.327,4.738" transform="translate(-54.792 -70.026)" fill="#fff"/>
      <path id="패스_779" data-name="패스 779" d="M590.962,52.366c5.442,4.375,8.323,5.656,8.857,6.4a4.775,4.775,0,0,1,.907,4.375,2.248,2.248,0,0,1-3.362.587c-1.494-1.28-6.669-7.2-8.27-9.178a50.3,50.3,0,0,1-16.7,11.632c-1.494.587-1.494-1.867-.8-2.241,5.336-2.828,15.633-13.019,18.461-20.862A77.4,77.4,0,0,0,577.676,44.1c-.533.107-2.4-1.174-3.095-2.241-1.12-1.761-.694-2.988,0-2.881a54.346,54.346,0,0,0,15.207,0,15.2,15.2,0,0,0,2.241-.533c1.44-.374,5.282,1.28,5.549,2.028.266.8-.641,1.28-1.441,3.2a27.813,27.813,0,0,1-5.175,8.7m21.449,22.677c.054,3.041-3.095,4.642-4.749,4.642a.967.967,0,0,1-1.014-1.014c.32-8.164.374-34.949,0-44.179-.107-2.988-1.014-4.642-1.867-5.389-.64-.534-.054-2.028,1.441-1.867,1.814.213,6.616,1.867,6.456,2.668a29.546,29.546,0,0,0-.267,3.521c-.32,9.391-.16,35.322,0,41.618" transform="translate(-287.789 -13.717)" fill="#fff"/>
      <path id="패스_780" data-name="패스 780" d="M719.759,55.934c.587,1.12.054,3.148-.853,2.988a133.024,133.024,0,0,0-14.247-.694c-3.735,0-17.768.427-21.5.64-1.974.107-6.189.587-8.27.96-.694.107-2.668-1.334-3.521-2.668-1.281-1.974-.854-3.575.054-3.308,2.294.694,8.537,1.174,11.738,1.174,4.162,0,17.074-.16,21.29-.427,7.257-.533,9.284-.96,10.991-1.174,1.654-.213,3.788,1.494,4.322,2.508m-36.816,12.7A4.913,4.913,0,0,0,681.129,65a1.331,1.331,0,0,1,.747-2.028,40.8,40.8,0,0,1,6.4.587,78.721,78.721,0,0,0,13.179-.267,15.455,15.455,0,0,0,2.241-.64c1.441-.427,5.283.96,5.5,1.707.107.427-.267,1.121-.587,2.988-.213,1.121-.8,7.2-.961,8.8,0,.16,1.12.907,1.441,1.227a1.971,1.971,0,0,1-1.547,2.881c-1.067.053-15.314.053-19.049.213-.747,1.387-4.749,1.6-4.8.854Zm12.005-36.87c6.937,0,12.379,3.094,12.379,9.764s-5.442,9.764-12.379,9.764S682.57,48.2,682.57,41.528s5.442-9.764,12.379-9.764m0,3.521c-4.161,0-6.669,2.454-6.669,6.243s2.508,6.243,6.669,6.243,6.67-2.454,6.67-6.243-2.508-6.243-6.67-6.243m-6.456,31.96L688.6,76.9c3.255.107,12.539.054,13.393-.107a.964.964,0,0,0,.8-.854c.107-.747.107-8,.107-8.91-1.761-.054-10.618.053-14.406.213" transform="translate(-337.883 -16.005)" fill="#fff"/>
      <path id="패스_781" data-name="패스 781" d="M236.078,51.614a2.867,2.867,0,0,0-.7-2.627c-.329-.493.328-1.231,1.4-1.026a13.306,13.306,0,0,1,4.433,2.258.611.611,0,0,1,.124.575,25.27,25.27,0,0,1-3.161,6.69c2.545,2.5,5.172,4.146,5.582,4.762a4.055,4.055,0,0,1,.37,3.612,1.781,1.781,0,0,1-2.75.205c-.9-1.067-3.324-4.761-4.515-6.649-2.586,3.448-6.033,6.69-9.809,8-1.232.451-1.067-1.437-.616-1.683,4.31-2.873,8.948-10.056,9.646-14.12m11.985,6.157a30.846,30.846,0,0,0-3.694,1.272c-.369.205-1.847-.7-2.38-1.519-.9-1.231-.656-2.3-.123-2.175a26.058,26.058,0,0,0,6.2,0c0-3.283-.041-6.157-.123-7.922-.081-2.134-.7-3.325-1.354-3.817-.452-.37,0-1.519,1.025-1.4,1.273.164,4.721,1.313,4.6,1.888a20.6,20.6,0,0,0-.2,2.5c-.205,5.418-.123,20.933,0,25.407.041,2.175-2.216,3.324-3.366,3.324a.7.7,0,0,1-.739-.739c.123-3.284.2-10.425.164-16.828m7.43-13.873c-.082-2.175-.739-3.407-1.4-3.94-.451-.37,0-1.519,1.067-1.4,1.314.165,4.844,1.355,4.72,1.929a21.668,21.668,0,0,0-.2,2.586c-.205,6.855-.123,26.6,0,32.426.041,2.175-2.257,3.325-3.448,3.325a.687.687,0,0,1-.738-.7c.2-6.9.246-27.377,0-34.232" transform="translate(-113.926 -19.425)" fill="#fff"/>
      <path id="패스_782" data-name="패스 782" d="M321.866,66.43c-3.037.123-5.87.2-7.142.287-1.519.082-4.761.451-6.362.739-.534.082-2.052-1.026-2.709-2.052-.985-1.519-.657-2.75.041-2.545a45.736,45.736,0,0,0,9.03.9c3.2,0,13.134-.124,16.377-.328,5.582-.41,7.142-.739,8.455-.9,1.273-.164,2.914,1.15,3.325,1.929.451.862.041,2.422-.656,2.3a102.414,102.414,0,0,0-10.959-.533c-1.026,0-3.037.041-5.3.123-.041,3.9.041,9.441.124,12.272.041,2.34-2.381,3.571-3.653,3.571a.725.725,0,0,1-.78-.78c.164-2.422.205-10.754.205-14.981m-8.25-16.706a3.782,3.782,0,0,0-1.4-2.791,1.024,1.024,0,0,1,.574-1.559,28.391,28.391,0,0,1,5.048.492c2.217.123,8.538-.082,10.221-.246a11.938,11.938,0,0,0,1.724-.493c1.108-.328,4.679.739,4.843,1.314.082.328-.287.862-.657,2.3-.2.862-.78,6.28-.9,7.511,0,.123.862.7,1.108.944a1.516,1.516,0,0,1-1.19,2.216c-.821.041-12.149.082-15.1.164-.575,1.108-3.653,1.273-3.694.657Zm4.269-1.067.082,8.209c2.586.041,10.261.041,10.918-.124a.74.74,0,0,0,.616-.656c.082-.575.082-6.9.082-7.594-1.313-.041-8.578.041-11.7.164" transform="translate(-153.701 -22.708)" fill="#fff"/>
      <path id="패스_783" data-name="패스 783" d="M396.366,48.208l8.209-.123c0-.657-.041-1.273-.041-1.806-.082-2.093-.7-2.422-1.355-3-.451-.328,0-1.478,1.026-1.355,1.272.165,4.72,1.314,4.6,1.929a18.924,18.924,0,0,0-.205,2.463c-.123,3.283-.123,8.743,0,11.288.082,2.257-2.545,3-3.571,2.749a.615.615,0,0,1-.492-.7c0-.451.041-1.067.041-1.683l-8.168.123v.123c.082,2.258-2.545,3-3.571,2.75a.616.616,0,0,1-.493-.7c.164-3.037.164-9.522,0-13.052-.082-2.093-.7-2.422-1.354-3-.451-.328,0-1.478,1.026-1.355,1.273.164,4.72,1.314,4.6,1.929a19,19,0,0,0-.205,2.463,7.019,7.019,0,0,0-.041.944m8.291,2.709-8.332.123c-.041,1.437-.041,2.874,0,4.228l8.332-.123Zm-2.709,14.694a2.93,2.93,0,0,0-1.4-2.3c-.452-.37,0-1.519,1.068-1.4,1.313.164,4.72.944,4.6,1.56a19.881,19.881,0,0,0-.205,2.545,5.213,5.213,0,0,0-.041.821l11.534-.123a16.666,16.666,0,0,0-.082-1.724,2.931,2.931,0,0,0-1.4-2.3c-.452-.369,0-1.518,1.067-1.4,1.313.165,4.72.945,4.6,1.56a19.876,19.876,0,0,0-.205,2.545c-.123,2.545-.123,8.784,0,11,.082,2.257-2.545,3-3.571,2.75a.615.615,0,0,1-.493-.7c.041-.451.082-1.108.082-1.888l-11.493.124c-.082,2.134-2.586,2.832-3.571,2.585a.615.615,0,0,1-.493-.7,124.163,124.163,0,0,0,0-12.971m15.6,3.941-11.616.123c-.041,1.436-.041,2.914,0,4.227l11.616-.164c.041-1.4.041-2.832,0-4.186m-.164-16.336a27.87,27.87,0,0,0-5.787,1.273c-.451.123-1.806-.7-2.34-1.437-.9-1.19-.616-2.134-.082-2.052a33.446,33.446,0,0,0,8.209-.082c0-2.586-.041-5.049-.123-6.773-.082-2.3-.78-3.571-1.437-4.146-.493-.41-.041-1.56,1.108-1.437,1.4.164,5.09,1.437,4.967,2.052a22.677,22.677,0,0,0-.205,2.709c-.123,3.529-.123,9.892,0,13.914.041,2.339-2.381,3.571-3.653,3.571a.744.744,0,0,1-.78-.78c.082-1.97.123-4.392.123-6.814" transform="translate(-196.924 -19.426)" fill="#fff"/>
      <path id="패스_784" data-name="패스 784" d="M478.5,44.6c5.131,0,9.153,3.16,9.153,8.209s-4.023,8.209-9.153,8.209-9.153-3.16-9.153-8.209S473.374,44.6,478.5,44.6m0,3.037c-3.243,0-4.8,2.586-4.8,5.172s1.559,5.172,4.8,5.172,4.8-2.586,4.8-5.172-1.56-5.172-4.8-5.172m.9,22.205a3.5,3.5,0,0,0-1.4-2.627c-.575-.492,0-1.559.574-1.6,1.067-.082,5.418.533,5.336.944-.123.656-.123,5.295-.123,6.526,0,1.847.7,2.545,3.981,2.545,8.989,0,12.314-1.437,12.765-1.437a4.151,4.151,0,0,1,3.243,1.724c.41.739,0,2.34-.616,2.34-4.72,0-11.082.041-15.269.082-5.377.041-8.5-1.067-8.5-4.31Zm16.828-25.694c-.123-2.3-.78-3.571-1.437-4.146-.493-.411-.041-1.56,1.108-1.437,1.4.164,5.09,1.437,4.967,2.052a22.645,22.645,0,0,0-.205,2.709c-.246,5.582-.123,16.09,0,20.933.041,2.34-2.38,3.571-3.653,3.571a.744.744,0,0,1-.78-.78c.246-5.541.287-17.321,0-22.9" transform="translate(-236.497 -19.426)" fill="#fff"/>
      <path id="패스_785" data-name="패스 785" d="M260.416,161.064v1.143a3.065,3.065,0,0,0-.968.252,1.172,1.172,0,0,0-.1.465v7.264c0,2.751-1.472,4.048-3.893,4.048a4.122,4.122,0,0,1-2.925-1.085v-2.4h1.1a5.61,5.61,0,0,0,.232,1.3c.116.077.271.252.407.329a5,5,0,0,0,1.182.252c1.395,0,2.13-.736,2.13-2.441v-7.264a1.172,1.172,0,0,0-.1-.465,3.066,3.066,0,0,0-.968-.252v-1.143Z" transform="translate(-127.246 -81.157)" fill="#fff"/>
      <path id="패스_786" data-name="패스 786" d="M272.719,162.653v4.106h2.75a1.331,1.331,0,0,0,.426-.058,2.08,2.08,0,0,0,.213-.6h.988v2.828h-.988a1.718,1.718,0,0,0-.213-.6,1.346,1.346,0,0,0-.426-.058h-2.75v4.184h3.525a.92.92,0,0,0,.465-.117,3.563,3.563,0,0,0,.252-1.085H278.1v2.79H269.91V172.9a3.073,3.073,0,0,0,.968-.252,1.171,1.171,0,0,0,.1-.465v-9.259a1.172,1.172,0,0,0-.1-.465,3.073,3.073,0,0,0-.968-.252v-1.143H278.1v2.79h-1.143a3.563,3.563,0,0,0-.252-1.085.915.915,0,0,0-.465-.116Z" transform="translate(-136.003 -81.157)" fill="#fff"/>
      <path id="패스_787" data-name="패스 787" d="M290.369,162.653v4.106h2.75a1.333,1.333,0,0,0,.426-.058,2.1,2.1,0,0,0,.213-.6h.988v2.828h-.988a1.731,1.731,0,0,0-.213-.6,1.348,1.348,0,0,0-.426-.058h-2.75v4.184h3.525a.921.921,0,0,0,.465-.117,3.562,3.562,0,0,0,.252-1.085h1.143v2.79H287.56V172.9a3.065,3.065,0,0,0,.968-.252,1.171,1.171,0,0,0,.1-.465v-9.259a1.172,1.172,0,0,0-.1-.465,3.065,3.065,0,0,0-.968-.252v-1.143h8.194v2.79h-1.143a3.562,3.562,0,0,0-.252-1.085.916.916,0,0,0-.465-.116Z" transform="translate(-144.896 -81.157)" fill="#fff"/>
      <path id="패스_788" data-name="패스 788" d="M315.394,161.064v1.143a3.066,3.066,0,0,0-.968.252,1.173,1.173,0,0,0-.1.465V169.8a4.455,4.455,0,0,1-8.91,0v-6.877a1.172,1.172,0,0,0-.1-.465,3.07,3.07,0,0,0-.968-.252v-1.143h3.874v1.143a3.07,3.07,0,0,0-.968.252,1.172,1.172,0,0,0-.1.465V169.8a2.72,2.72,0,1,0,5.424,0v-6.877a1.172,1.172,0,0,0-.1-.465,3.066,3.066,0,0,0-.968-.252v-1.143Z" transform="translate(-153.358 -81.157)" fill="#fff"/>
      <path id="패스_789" data-name="패스 789" d="M340.23,172.9v1.143h-3.952V172.9a3.061,3.061,0,0,0,.968-.252.906.906,0,0,0,.059-.465l-.891-8.543-2.519,10.4h-1.007L330.2,163.486l-.775,8.7a1.175,1.175,0,0,0,.077.465,3.069,3.069,0,0,0,.969.252v1.143h-3.7V172.9a3.061,3.061,0,0,0,.968-.252,1.624,1.624,0,0,0,.136-.465l.968-9.259a.911.911,0,0,0-.058-.465,3.056,3.056,0,0,0-.968-.252v-1.143h3.37l2.247,8.62,2.073-8.62h3.7v1.143a3.059,3.059,0,0,0-.969.252.916.916,0,0,0-.058.465l.949,9.259a1.658,1.658,0,0,0,.136.465,3.066,3.066,0,0,0,.968.252" transform="translate(-164.652 -81.157)" fill="#fff"/>
      <path id="패스_790" data-name="패스 790" d="M372.4,163.854h-1.143a3.552,3.552,0,0,0-.252-1.085.916.916,0,0,0-.465-.117H368.7v9.531a1.162,1.162,0,0,0,.1.464,3.063,3.063,0,0,0,.968.252v1.143h-3.874V172.9a3.062,3.062,0,0,0,.968-.252,1.162,1.162,0,0,0,.1-.464v-9.531H365.08a.918.918,0,0,0-.465.117,3.543,3.543,0,0,0-.252,1.085H363.2v-2.79h9.2Z" transform="translate(-183.01 -81.157)" fill="#fff"/>
      <path id="패스_791" data-name="패스 791" d="M389.79,172.9v1.143h-3.467V172.9a2.227,2.227,0,0,0,.794-.252.913.913,0,0,0-.039-.446l-.542-1.821h-3.874l-.542,1.821a.907.907,0,0,0-.039.446,2.23,2.23,0,0,0,.794.252v1.143h-3.467V172.9a1.644,1.644,0,0,0,.678-.252,4.869,4.869,0,0,0,.213-.446l3.545-11.138h1.511L388.9,172.2c.058.155.155.329.193.446a1.888,1.888,0,0,0,.7.252m-3.661-3.912-1.531-5.249-1.53,5.249Z" transform="translate(-191.176 -81.157)" fill="#fff"/>
      <path id="패스_792" data-name="패스 792" d="M410.766,172.9v1.143h-3.215V172.9a1.752,1.752,0,0,0,.716-.252c.059-.117-.058-.271-.135-.407l-2.228-3.835-2.246,3.835a.717.717,0,0,0-.135.407,2.008,2.008,0,0,0,.716.252v1.143h-3.2V172.9a1.009,1.009,0,0,0,.5-.252,2.291,2.291,0,0,1,.291-.407l3.061-4.959-2.731-4.416c-.078-.135-.233-.291-.253-.407a1.1,1.1,0,0,0-.5-.252v-1.143h3.2v1.143a1.643,1.643,0,0,0-.717.252c-.058.116.059.271.136.407l1.918,3.351,1.957-3.351a.73.73,0,0,0,.135-.407,2,2,0,0,0-.717-.252v-1.143h3.138v1.143a1.022,1.022,0,0,0-.484.252,3.707,3.707,0,0,1-.271.407l-2.751,4.475,3.022,4.9a2.3,2.3,0,0,1,.291.407,1.009,1.009,0,0,0,.5.252" transform="translate(-202.078 -81.157)" fill="#fff"/>
      <path id="패스_793" data-name="패스 793" d="M436.028,174.56a4.554,4.554,0,0,1-2.828.871c-2.112,0-3.273-1.3-3.119-3.1.136-1.511,1.453-2.557,2.673-3.255-.155-.387-.31-.775-.484-1.182-.93-2.286.039-4.242,1.743-4.435a2.407,2.407,0,0,1,2.79,2.227,3.606,3.606,0,0,1-2.324,3.642,21.231,21.231,0,0,0,1.878,3.351,4.175,4.175,0,0,0,.446-1.7.936.936,0,0,0-.077-.349,1.914,1.914,0,0,0-.7-.194v-.813h2.887v.872a3.443,3.443,0,0,0-.968.193.813.813,0,0,0-.1.387,5.2,5.2,0,0,1-.794,2.4,1.5,1.5,0,0,0,2.17.1l.019,1.1a2.358,2.358,0,0,1-3.216-.116m-2.189-.252a3.1,3.1,0,0,0,1.492-.485,18.311,18.311,0,0,1-2.112-3.7,3.353,3.353,0,0,0-1.452,1.86,1.822,1.822,0,0,0,2.072,2.325m-.252-6.955c.155.349.31.7.445,1.027a2.49,2.49,0,0,0,1.259-2.286c-.039-.852-.426-1.569-1.046-1.549-.95.039-1.3,1.278-.659,2.809" transform="translate(-216.703 -82.352)" fill="#fff"/>
      <path id="패스_794" data-name="패스 794" d="M468.4,172.9v1.143h-3.467V172.9a2.226,2.226,0,0,0,.794-.252.913.913,0,0,0-.039-.446l-.542-1.821h-3.874l-.542,1.821a.907.907,0,0,0-.039.446,2.23,2.23,0,0,0,.794.252v1.143h-3.467V172.9a1.644,1.644,0,0,0,.678-.252,4.861,4.861,0,0,0,.213-.446l3.545-11.138h1.511l3.545,11.138c.058.155.155.329.193.446a1.889,1.889,0,0,0,.7.252m-3.661-3.912-1.531-5.249-1.53,5.249Z" transform="translate(-230.786 -81.157)" fill="#fff"/>
      <path id="패스_795" data-name="패스 795" d="M480.357,167.337c0,3.061,1.569,5.114,3.429,5.114a4.228,4.228,0,0,0,2.653-.988l.736,1.26a5.33,5.33,0,0,1-3.39,1.317c-2.925,0-5.231-2.673-5.231-6.7,0-3.99,2.305-6.663,5.231-6.663a4.991,4.991,0,0,1,3.409,1.259V164.2h-1.143a5.587,5.587,0,0,0-.252-1.317,3.322,3.322,0,0,0-2.014-.62c-1.86,0-3.429,2.034-3.429,5.075" transform="translate(-241.135 -80.961)" fill="#fff"/>
      <path id="패스_796" data-name="패스 796" d="M498.75,167.337c0,3.061,1.569,5.114,3.429,5.114a4.229,4.229,0,0,0,2.654-.988l.736,1.26a5.33,5.33,0,0,1-3.39,1.317c-2.925,0-5.23-2.673-5.23-6.7,0-3.99,2.3-6.663,5.23-6.663a4.991,4.991,0,0,1,3.409,1.259V164.2h-1.143a5.587,5.587,0,0,0-.252-1.317,3.323,3.323,0,0,0-2.015-.62c-1.859,0-3.429,2.034-3.429,5.075" transform="translate(-250.403 -80.961)" fill="#fff"/>
      <path id="패스_797" data-name="패스 797" d="M525.085,167.376c0,3.99-1.956,6.663-4.881,6.663-2.906,0-4.862-2.673-4.862-6.7,0-3.991,1.956-6.663,4.862-6.663,2.925,0,4.881,2.673,4.881,6.7m-1.879,0c0-3.119-1.22-5.211-3-5.211s-2.983,2.073-2.983,5.172c0,3.119,1.2,5.21,2.983,5.21s3-2.072,3-5.172" transform="translate(-259.671 -80.961)" fill="#fff"/>
      <path id="패스_798" data-name="패스 798" d="M546.963,161.064v1.143a3.062,3.062,0,0,0-.968.252,1.164,1.164,0,0,0-.1.465V169.8a4.455,4.455,0,0,1-8.91,0v-6.877a1.18,1.18,0,0,0-.1-.465,3.077,3.077,0,0,0-.969-.252v-1.143H539.8v1.143a3.065,3.065,0,0,0-.968.252,1.171,1.171,0,0,0-.1.465V169.8a2.72,2.72,0,1,0,5.424,0v-6.877a1.172,1.172,0,0,0-.1-.465,3.071,3.071,0,0,0-.968-.252v-1.143Z" transform="translate(-270.041 -81.157)" fill="#fff"/>
      <path id="패스_799" data-name="패스 799" d="M569.91,161.064v1.143a3.07,3.07,0,0,0-.968.252,1.164,1.164,0,0,0-.1.465v11.118h-1.957l-4.92-10.538v8.679a1.172,1.172,0,0,0,.1.465,3.064,3.064,0,0,0,.968.252v1.143h-3.68V172.9a3.069,3.069,0,0,0,.968-.252,1.172,1.172,0,0,0,.1-.465v-9.259a1.172,1.172,0,0,0-.1-.465,3.069,3.069,0,0,0-.968-.252v-1.143h3.157l4.8,10.112v-8.252a1.172,1.172,0,0,0-.1-.465,3.069,3.069,0,0,0-.968-.252v-1.143Z" transform="translate(-281.848 -81.157)" fill="#fff"/>
      <path id="패스_800" data-name="패스 800" d="M590.617,163.854h-1.143a3.537,3.537,0,0,0-.252-1.085.917.917,0,0,0-.465-.117h-1.84v9.531a1.161,1.161,0,0,0,.1.464,3.063,3.063,0,0,0,.968.252v1.143h-3.874V172.9a3.062,3.062,0,0,0,.968-.252,1.16,1.16,0,0,0,.1-.464v-9.531h-1.879a.913.913,0,0,0-.464.117,3.521,3.521,0,0,0-.253,1.085h-1.162v-2.79h9.2Z" transform="translate(-292.965 -81.157)" fill="#fff"/>
      <path id="패스_801" data-name="패스 801" d="M602,172.9a3.07,3.07,0,0,0,.968-.252,1.174,1.174,0,0,0,.1-.465v-9.259a1.173,1.173,0,0,0-.1-.465,3.056,3.056,0,0,0-.968-.252v-1.143h3.874v1.143a3.048,3.048,0,0,0-.968.252,1.164,1.164,0,0,0-.1.465v9.259a1.165,1.165,0,0,0,.1.465,3.061,3.061,0,0,0,.968.252v1.143H602Z" transform="translate(-303.335 -81.157)" fill="#fff"/>
      <path id="패스_802" data-name="패스 802" d="M623.018,161.064v1.143a3.065,3.065,0,0,0-.968.252,1.164,1.164,0,0,0-.1.465v11.118H620l-4.92-10.538v8.679a1.163,1.163,0,0,0,.1.465,3.066,3.066,0,0,0,.968.252v1.143h-3.68V172.9a3.07,3.07,0,0,0,.968-.252,1.172,1.172,0,0,0,.1-.465v-9.259a1.172,1.172,0,0,0-.1-.465,3.07,3.07,0,0,0-.968-.252v-1.143h3.157l4.8,10.112v-8.252a1.171,1.171,0,0,0-.1-.465,3.069,3.069,0,0,0-.969-.252v-1.143Z" transform="translate(-308.608 -81.157)" fill="#fff"/>
      <path id="패스_803" data-name="패스 803" d="M643.845,166.911v1.143a1.026,1.026,0,0,0-.485.252,1.7,1.7,0,0,0-.058.465v3.68a3.794,3.794,0,0,1-3.08,1.588c-3.312,0-5.269-2.673-5.269-6.7,0-4.01,1.957-6.663,5.269-6.663a4.4,4.4,0,0,1,3.061,1.1V164.1h-1.143a5.208,5.208,0,0,0-.252-1.317,2.322,2.322,0,0,0-1.666-.6c-2.112,0-3.448,1.976-3.448,5.152,0,3.2,1.336,5.173,3.448,5.173a2.294,2.294,0,0,0,1.569-.64v-3.1a1.17,1.17,0,0,0-.116-.465,4.6,4.6,0,0,0-1.22-.252v-1.143Z" transform="translate(-319.941 -80.961)" fill="#fff"/>
      <path id="패스_804" data-name="패스 804" d="M665.184,167.337c0,3.061,1.569,5.114,3.429,5.114a4.229,4.229,0,0,0,2.654-.988l.736,1.26a5.329,5.329,0,0,1-3.39,1.317c-2.925,0-5.23-2.673-5.23-6.7,0-3.99,2.3-6.663,5.23-6.663a4.991,4.991,0,0,1,3.409,1.259V164.2h-1.143a5.581,5.581,0,0,0-.252-1.317,3.32,3.32,0,0,0-2.014-.62c-1.86,0-3.429,2.034-3.429,5.075" transform="translate(-334.266 -80.961)" fill="#fff"/>
      <path id="패스_805" data-name="패스 805" d="M691.519,167.376c0,3.99-1.957,6.663-4.882,6.663-2.905,0-4.861-2.673-4.861-6.7,0-3.991,1.956-6.663,4.861-6.663,2.925,0,4.882,2.673,4.882,6.7m-1.879,0c0-3.119-1.22-5.211-3-5.211s-2.983,2.073-2.983,5.172c0,3.119,1.2,5.21,2.983,5.21s3-2.072,3-5.172" transform="translate(-343.534 -80.961)" fill="#fff"/>
      <path id="패스_806" data-name="패스 806" d="M712.47,173.151v1.027a5,5,0,0,1-1.821-.019c-.6-.407-1.027-1.627-1.569-3-.6-1.53-.891-2.363-1.976-2.363h-1.627v3.39a1.173,1.173,0,0,0,.1.465,3.069,3.069,0,0,0,.968.252v1.143h-3.874V172.9a3.061,3.061,0,0,0,.968-.252,1.164,1.164,0,0,0,.1-.465v-9.259a1.163,1.163,0,0,0-.1-.465,3.048,3.048,0,0,0-.968-.252v-1.143h4.727c2.48,0,4.029,1.491,4.029,3.816a3.565,3.565,0,0,1-2.073,3.467,5.555,5.555,0,0,1,1.24,2.092c.774,2,1.1,2.712,1.879,2.712m-5.075-5.791a2.052,2.052,0,0,0,2.13-2.325,2.09,2.09,0,0,0-2.13-2.382h-1.917v4.707Z" transform="translate(-354.061 -81.157)" fill="#fff"/>
      <path id="패스_807" data-name="패스 807" d="M731.477,165.152c0,2.46-1.646,4.164-4.649,4.164h-1.24v2.867a1.171,1.171,0,0,0,.1.464,3.049,3.049,0,0,0,.968.252v1.143h-3.874V172.9a3.061,3.061,0,0,0,.969-.252,1.179,1.179,0,0,0,.1-.464v-9.26a1.179,1.179,0,0,0-.1-.465,3.063,3.063,0,0,0-.969-.252v-1.143h4.049c3,0,4.649,1.608,4.649,4.088m-1.84.135a2.477,2.477,0,0,0-2.809-2.634h-1.24V167.8h1.24c1.86,0,2.809-.891,2.809-2.518" transform="translate(-364.195 -81.157)" fill="#fff"/>
      <path id="패스_808" data-name="패스 808" d="M737.5,183.818a1.133,1.133,0,1,1,1.143,1.124,1.129,1.129,0,0,1-1.143-1.124" transform="translate(-371.613 -92.056)" fill="#fff"/>
    </g>
  </g>
</svg>
