<svg xmlns="http://www.w3.org/2000/svg" viewBox="0 0 484.37 559.5"><defs><style>.cls-1{fill:#26282b;}.cls-2{fill:#032d6b;}</style></defs><g id="Layer_2" data-name="Layer 2"><g id="레이어_1" data-name="레이어 1"><path class="cls-1" d="M92.34,538.52H90a7,7,0,0,0-.51-2.19,1.8,1.8,0,0,0-.94-.24H84.87v19.24a2.36,2.36,0,0,0,.2.94,6,6,0,0,0,2,.5v2.31H79.2v-2.31a6.2,6.2,0,0,0,2-.5,2.54,2.54,0,0,0,.19-.94V536.09H77.56a1.83,1.83,0,0,0-.94.24,7.27,7.27,0,0,0-.51,2.19H73.77v-5.63H92.34Z"/><path class="cls-1" d="M111,556.77v2.31h-7v-2.31a4.62,4.62,0,0,0,1.61-.5,1.92,1.92,0,0,0-.08-.9l-1.1-3.68H96.56l-1.09,3.68a1.8,1.8,0,0,0-.08.9,4.48,4.48,0,0,0,1.6.5v2.31H90v-2.31a3.27,3.27,0,0,0,1.37-.5,8.45,8.45,0,0,0,.43-.9L99,532.89h3l7.15,22.48c.12.31.32.66.39.9A3.9,3.9,0,0,0,111,556.77Zm-7.39-7.89-3.09-10.6-3.09,10.6Z"/><path class="cls-1" d="M131.29,556.77v2.31H124.8v-2.31a3.49,3.49,0,0,0,1.44-.5c.12-.24-.12-.55-.27-.82l-4.5-7.75-4.53,7.75a1.42,1.42,0,0,0-.28.82,4.08,4.08,0,0,0,1.45.5v2.31h-6.45v-2.31a2.05,2.05,0,0,0,1-.5,4.16,4.16,0,0,1,.58-.82l6.18-10-5.51-8.92c-.16-.27-.47-.58-.51-.82a2.35,2.35,0,0,0-1-.51v-2.3h6.45v2.3a3.39,3.39,0,0,0-1.44.51c-.12.24.11.55.27.82l3.87,6.77,4-6.77a1.4,1.4,0,0,0,.27-.82,4.19,4.19,0,0,0-1.44-.51v-2.3h6.33v2.3a2.17,2.17,0,0,0-1,.51,6.53,6.53,0,0,1-.55.82l-5.55,9,6.1,9.9a4.25,4.25,0,0,1,.59.82A2,2,0,0,0,131.29,556.77Z"/><path class="cls-1" d="M152.75,557.71a9.13,9.13,0,0,1-5.7,1.76c-4.27,0-6.61-2.62-6.3-6.25.28-3.05,2.93-5.16,5.4-6.57-.32-.78-.63-1.57-1-2.39-1.88-4.61.08-8.56,3.52-9,3.09-.39,5.16,1.52,5.63,4.5.31,3.24-1.45,5.7-4.69,7.35a42.88,42.88,0,0,0,3.79,6.76,8.43,8.43,0,0,0,.9-3.44,1.8,1.8,0,0,0-.16-.7,3.6,3.6,0,0,0-1.41-.39v-1.65h5.83v1.76a7.12,7.12,0,0,0-2,.39,1.65,1.65,0,0,0-.2.79,10.49,10.49,0,0,1-1.6,4.84c1.56,1.45,2.93,1.25,4.38.2l0,2.23C156.86,559.55,154.79,559.51,152.75,557.71Zm-4.41-.51a6.24,6.24,0,0,0,3-1,36.74,36.74,0,0,1-4.26-7.47c-1.33,1-2.7,2.31-2.94,3.75A3.68,3.68,0,0,0,148.34,557.2Zm-.51-14c.31.7.62,1.41.9,2.07a5,5,0,0,0,2.54-4.61c-.08-1.72-.86-3.17-2.11-3.13C147.24,537.58,146.54,540.08,147.83,543.17Z"/><path class="cls-1" d="M189.67,556.77v2.31h-7v-2.31a4.48,4.48,0,0,0,1.6-.5,1.8,1.8,0,0,0-.08-.9l-1.09-3.68h-7.82l-1.1,3.68a1.9,1.9,0,0,0-.07.9,4.48,4.48,0,0,0,1.6.5v2.31h-7v-2.31a3.27,3.27,0,0,0,1.37-.5c.12-.24.31-.59.43-.9l7.15-22.48h3.05l7.16,22.48c.12.31.31.66.39.9A3.76,3.76,0,0,0,189.67,556.77Zm-7.39-7.89-3.09-10.6-3.09,10.6Z"/><path class="cls-1" d="M192.92,545.94c0,6.18,3.16,10.33,6.92,10.33a8.53,8.53,0,0,0,5.35-2l1.49,2.54a10.73,10.73,0,0,1-6.84,2.66c-5.91,0-10.56-5.39-10.56-13.53s4.65-13.45,10.56-13.45a10.07,10.07,0,0,1,6.88,2.55v4.57h-2.31a11.26,11.26,0,0,0-.51-2.66,6.71,6.71,0,0,0-4.06-1.25C196.08,535.7,192.92,539.81,192.92,545.94Z"/><path class="cls-1" d="M211.33,545.94c0,6.18,3.17,10.33,6.92,10.33a8.56,8.56,0,0,0,5.36-2l1.49,2.54a10.76,10.76,0,0,1-6.85,2.66c-5.9,0-10.55-5.39-10.55-13.53s4.65-13.45,10.55-13.45a10.08,10.08,0,0,1,6.89,2.55v4.57h-2.31a11.81,11.81,0,0,0-.51-2.66,6.75,6.75,0,0,0-4.07-1.25C214.5,535.7,211.33,539.81,211.33,545.94Z"/><path class="cls-1" d="M245.78,546c0,8.06-3.95,13.45-9.85,13.45s-9.81-5.39-9.81-13.53,3.94-13.45,9.81-13.45S245.78,537.89,245.78,546ZM242,546c0-6.29-2.46-10.51-6.06-10.51s-6,4.18-6,10.43,2.42,10.52,6,10.52S242,552.28,242,546Z"/><path class="cls-1" d="M269,532.89v2.3a6.26,6.26,0,0,0-1.95.51,2.36,2.36,0,0,0-.2.94v13.88c0,5.35-3.36,9-8.95,9s-9-3.6-9-9V536.64a2.35,2.35,0,0,0-.19-.94,6.43,6.43,0,0,0-2-.51v-2.3h7.82v2.3a6.43,6.43,0,0,0-1.95.51,2.36,2.36,0,0,0-.2.94v13.88c0,3.56,2,5.9,5.52,5.9s5.43-2.34,5.43-5.9V536.64a2.54,2.54,0,0,0-.19-.94,6.43,6.43,0,0,0-2-.51v-2.3Z"/><path class="cls-1" d="M291.5,532.89v2.3a6.43,6.43,0,0,0-2,.51,2.36,2.36,0,0,0-.2.94v22.44H285.4l-9.94-21.27v17.52a2.36,2.36,0,0,0,.2.94,6.2,6.2,0,0,0,2,.5v2.31h-7.43v-2.31a6.2,6.2,0,0,0,1.95-.5,2.36,2.36,0,0,0,.2-.94V536.64a2.36,2.36,0,0,0-.2-.94,6.43,6.43,0,0,0-1.95-.51v-2.3h6.37l9.7,20.41V536.64a2.36,2.36,0,0,0-.2-.94,6.43,6.43,0,0,0-1.95-.51v-2.3Z"/><path class="cls-1" d="M310.85,538.52h-2.3a7.27,7.27,0,0,0-.51-2.19,1.85,1.85,0,0,0-.94-.24h-3.72v19.24a2.36,2.36,0,0,0,.2.94,6.2,6.2,0,0,0,1.95.5v2.31h-7.81v-2.31a6.2,6.2,0,0,0,1.95-.5,2.36,2.36,0,0,0,.2-.94V536.09h-3.8a1.85,1.85,0,0,0-.94.24,7,7,0,0,0-.5,2.19h-2.35v-5.63h18.57Z"/><path class="cls-1" d="M312.89,556.77a6.2,6.2,0,0,0,1.95-.5,2.36,2.36,0,0,0,.2-.94V536.64a2.36,2.36,0,0,0-.2-.94,6.43,6.43,0,0,0-1.95-.51v-2.3h7.82v2.3a6.43,6.43,0,0,0-2,.51,2.54,2.54,0,0,0-.19.94v18.69a2.54,2.54,0,0,0,.19.94,6.2,6.2,0,0,0,2,.5v2.31h-7.82Z"/><path class="cls-1" d="M344.68,532.89v2.3a6.43,6.43,0,0,0-2,.51,2.35,2.35,0,0,0-.19.94v22.44h-3.95l-9.93-21.27v17.52a2.35,2.35,0,0,0,.19.94,6.2,6.2,0,0,0,2,.5v2.31h-7.43v-2.31a6.2,6.2,0,0,0,1.95-.5,2.36,2.36,0,0,0,.2-.94V536.64a2.36,2.36,0,0,0-.2-.94,6.43,6.43,0,0,0-1.95-.51v-2.3h6.37l9.7,20.41V536.64a2.36,2.36,0,0,0-.2-.94,6.43,6.43,0,0,0-1.95-.51v-2.3Z"/><path class="cls-1" d="M363.84,545.08v2.31a2.08,2.08,0,0,0-1,.51,3.3,3.3,0,0,0-.12.94v7.43a7.64,7.64,0,0,1-6.21,3.2c-6.69,0-10.64-5.39-10.64-13.53s3.95-13.45,10.64-13.45a8.86,8.86,0,0,1,6.17,2.23v4.7h-2.3a10.79,10.79,0,0,0-.51-2.66,4.68,4.68,0,0,0-3.36-1.22c-4.27,0-7,4-7,10.4s2.69,10.44,7,10.44a4.61,4.61,0,0,0,3.16-1.29v-6.25a2.28,2.28,0,0,0-.23-.94,9.21,9.21,0,0,0-2.46-.51v-2.31Z"/><path class="cls-1" d="M378,545.94c0,6.18,3.17,10.33,6.93,10.33a8.53,8.53,0,0,0,5.35-2l1.49,2.54a10.73,10.73,0,0,1-6.84,2.66c-5.91,0-10.56-5.39-10.56-13.53s4.65-13.45,10.56-13.45A10.07,10.07,0,0,1,391.8,535v4.57h-2.31A11.26,11.26,0,0,0,389,537a6.74,6.74,0,0,0-4.06-1.25C381.16,535.7,378,539.81,378,545.94Z"/><path class="cls-1" d="M412.44,546c0,8.06-3.95,13.45-9.85,13.45s-9.81-5.39-9.81-13.53,4-13.45,9.81-13.45S412.44,537.89,412.44,546Zm-3.79,0c0-6.29-2.46-10.51-6.06-10.51s-6,4.18-6,10.43,2.42,10.52,6,10.52S408.65,552.28,408.65,546Z"/><path class="cls-1" d="M433.48,557.28v2.08a10.3,10.3,0,0,1-3.67,0c-1.22-.83-2.07-3.29-3.17-6.06-1.21-3.09-1.8-4.77-4-4.77h-3.28v6.84a2.54,2.54,0,0,0,.19.94,6.2,6.2,0,0,0,2,.5v2.31H413.7v-2.31a6.2,6.2,0,0,0,1.95-.5,2.36,2.36,0,0,0,.2-.94V536.64a2.36,2.36,0,0,0-.2-.94,6.43,6.43,0,0,0-1.95-.51v-2.3h9.54c5,0,8.13,3,8.13,7.7a7.21,7.21,0,0,1-4.18,7,11.14,11.14,0,0,1,2.5,4.22C431.25,555.84,431.92,557.28,433.48,557.28Zm-10.24-11.69c2.7,0,4.3-1.76,4.3-4.69s-1.6-4.81-4.3-4.81h-3.87v9.5Z"/><path class="cls-1" d="M451.39,541.13c0,5-3.32,8.41-9.38,8.41h-2.5v5.79a2.54,2.54,0,0,0,.19.94,6.2,6.2,0,0,0,2,.5v2.31h-7.82v-2.31a6.2,6.2,0,0,0,2-.5,2.36,2.36,0,0,0,.2-.94V536.64a2.36,2.36,0,0,0-.2-.94,6.43,6.43,0,0,0-2-.51v-2.3H442C448.07,532.89,451.39,536.13,451.39,541.13Zm-3.71.28c0-3.25-1.92-5.32-5.67-5.32h-2.5v10.4H442C445.76,546.49,447.68,544.69,447.68,541.41Z"/><path class="cls-1" d="M448.58,556.81a2.29,2.29,0,1,1,2.31,2.27A2.28,2.28,0,0,1,448.58,556.81Z"/><path d="M46.78,485.6c0,22.75-9.28,31-16.23,36.91-6.53,5.57-11.46,6.84-18.62,6.84-3.5,0-11.93-2.86-11.93-8.59,0-3.5,4.77-6.84,7-6.84A6.19,6.19,0,0,1,13.32,518a7.06,7.06,0,0,0,6.41,4.21c5.25,0,13.52-4.45,13.52-33.09V418.78c0-13.21-2.7-14-15.43-14.48-1-.95-1-4.29,0-5.25,8,.16,16.34.32,22.11.32,6.16,0,13-.16,19.1-.32.95,1,.95,4.3,0,5.25-9.55.48-12.25,1.27-12.25,14.48Z"/><path d="M130.78,433.73c.95-1,4.29-1,5.25,0-.16,3.82-.32,9.23-.32,13.69,0,5.45.16,9.86.32,14-1,.95-4.3.95-5.25,0-.48-7.16-1-10.82-14.48-10.82H101.82v35.16c0,7.48,2.23,10,8.91,10h18.46c12.09,0,17.66-9.38,20.84-20.84a7.34,7.34,0,0,1,5.57.8,257.37,257.37,0,0,1-5.89,26.57S137,502,129.35,502H95.14c-5.25,0-14.8.16-20.68.32-1-1-1-4.3,0-5.25,11.13-.48,13.84-1.28,13.84-14.48v-63.8c0-13.21-2.71-14-13.84-14.48-1-.95-1-4.29,0-5.25,6.36.16,15.67.32,20.52.32h40.57a35.6,35.6,0,0,0,7.8-.64c.47,0,.63.16.63.48.32,1.27,2.71,16.55,3.5,23.07a8.81,8.81,0,0,1-5.25.79c-3.5-11-6-17.34-18-17.34H112.32c-8.59,0-10.5,3.18-10.5,10.19v28.63H116.3C129.82,444.55,130.3,442.48,130.78,433.73Z"/><path d="M219.39,433.73c1-1,4.3-1,5.25,0-.16,3.82-.31,9.23-.31,13.69,0,5.45.15,9.86.31,14-.95.95-4.29.95-5.25,0-.47-7.16-.95-10.82-14.47-10.82H190.44v35.16c0,7.48,2.22,10,8.91,10H217.8c12.09,0,17.66-9.38,20.84-20.84a7.32,7.32,0,0,1,5.57.8,257.32,257.32,0,0,1-5.88,26.57S225.6,502,218,502h-34.2c-5.26,0-14.8.16-20.69.32-.95-1-.95-4.3,0-5.25,11.14-.48,13.84-1.28,13.84-14.48v-63.8c0-13.21-2.7-14-13.84-14.48-.95-.95-.95-4.29,0-5.25,6.37.16,15.67.32,20.53.32h40.57a35.51,35.51,0,0,0,7.79-.64c.48,0,.64.16.64.48.32,1.27,2.7,16.55,3.5,23.07a8.82,8.82,0,0,1-5.25.79c-3.5-11-6-17.34-18-17.34H200.94c-8.59,0-10.5,3.18-10.5,10.19v28.63h14.48C218.44,444.55,218.92,442.48,219.39,433.73Z"/><path d="M276.19,459.67c0,10.34.32,22.43,8.11,29.91a26.92,26.92,0,0,0,18.94,7.48c26.88,0,29.27-21.32,29.27-39.14V418.78c0-12.89-2.7-13.36-14.64-14.48-.95-.95-.95-4.29,0-5.25,7.32.16,15,.32,18.46.32,3.69,0,10.18-.16,16.23-.32.95,1,.95,4.3,0,5.25-9.55,1.12-12.25,1.7-12.25,14.48v36.27c0,28.32-7.8,48.53-40.41,48.53-16.31,0-37.23-6.21-37.23-38.66V418.78c0-13.21-2.71-14-12.25-14.48-1-.95-1-4.29,0-5.25,6.2.16,12.72.32,18.93.32s14-.16,21.48-.32c.95,1,.95,4.3,0,5.25-12.25.48-14.64,1.27-14.64,14.48Z"/><path d="M455.33,417H455l-35.8,84.16c-.64,1.28-1.27,2.39-2.23,2.39s-1.94-1.26-2.38-2.39l-32.94-82.57h-.32l-6,63.8c-.86,9,0,13.84,10.5,14.64.95.95.95,4.29,0,5.25-4.77-.16-11.14-.32-15-.32s-8.91.16-13.68.32c-.95-1-.95-4.3,0-5.25,9.07-.8,11-4.79,11.92-14.32l6.38-65.55c1.11-11.93.16-12.25-10.82-12.89-1-.95-1-4.29,0-5.25l23.07.32,32.61,80.82c.5,1.21,1,2.07,1.28,2.07s.79-.64,1.43-2.23l33.73-80.66,20.84-.32c.95,1,.95,4.3,0,5.25-10.82.64-11.62,2.86-10.93,11.46l4.74,67c.92,13.17,1.42,13.84,12.23,14.32,1,.95,1,4.29,0,5.25-5.28-.16-12.56-.32-17.34-.32s-11.14.16-17,.32c-1-1-1-4.3,0-5.25,10.34-.48,10.93-.64,10.13-13.53Z"/><path class="cls-2" d="M348.32,12.74V307.92H136.05V12.74ZM361.06,0H123.31V320.66H361.06V0Z"/><path class="cls-2" d="M294.38,110.63c.12.22.44.27.69.28h.85a49.84,49.84,0,0,0,5.91-.43c1.16-.12,2.43-.26,3.93-.39,7-.6,12.15-.88,16.11-.88a51.46,51.46,0,0,1,8.79.65,23.41,23.41,0,0,1,5.9,2V24.5H210.36A22.85,22.85,0,0,1,214.6,28c.6.95.94,6.31.48,11.78H215l.08,0c0,.18-.08,1.82,2.09,2.55l1.67.52c1.75.54,3.93,1.21,5.78,2l.72.31c2.89,1.23,7.74,3.28,10.24,5.44a4.49,4.49,0,0,1,1.46,5,4.69,4.69,0,0,1-4.7,2.84h-.42c-4.27-.23-10-4.29-13.1-6.47l-.85-.6a6.5,6.5,0,0,0-3-1.46,1.94,1.94,0,0,0-.85.24,3.8,3.8,0,0,0-1.31,1.42c-.34,1-.7,2-1.08,2.83-4.91,11.35-10.8,18.66-17.5,21.74a22.75,22.75,0,0,1-9.12,1.72c-3.58,0-7.86-.73-9.1-2.81a2.54,2.54,0,0,1,0-2.58,38.57,38.57,0,0,1,4-5.16,186.59,186.59,0,0,0,16.73-22.51c4-6.45,6.27-16.72,5.35-18.1a14,14,0,0,1-1.12-2.16H147.81v85.87a9.86,9.86,0,0,0,2.21.7,16.69,16.69,0,0,0,3.27.3c5.36,0,11.34-2,15.3-3.39l1.33-.45c5.37-1.79,21.82-7.5,28.72-10.33.8-.32,1.61-.67,2.43-1a8.72,8.72,0,0,1,.57-1.81c.38-1,.6-1.57.34-2.18-.12-.27-.24-.52-.37-.77-1-2-1.5-3.66.85-8.28,2.23-4.28,9.55-10.7,15.35-13.45a13.78,13.78,0,0,1,6-1.69,14.3,14.3,0,0,1,3.41.52c.73.17,1.49.35,2.4.5,4.71.79,6.13,1.21,7.17,2.72.7,1,.89,2.76,1.09,4.63.08.74.15,1.45.26,2.06a19.17,19.17,0,0,0,.49,1.95,10.22,10.22,0,0,1,.59,4.22c-.4,3.55-6.57,7.75-10.15,9.68a105,105,0,0,1-10,4.7l-.1,0c-1.06.55-1.63,1-1.69,1.17,0,0,.18.53,2.13,1.31,2.93,1.17,7.93,3.28,12.34,5.14,3.47,1.46,6.46,2.73,7.56,3.16,5,2,8.37,3.87,10.16,5.77,2.25,2.38,2.56,4.22,2.42,5.34a3,3,0,0,1-1.35,2.22,5.59,5.59,0,0,1-3.1.84,14.29,14.29,0,0,1-5-1.2l-.37-.14c-3.37-1.27-8.34-3.94-16.63-8.94l-2-1.25c-1.49-.93-3.35-2.09-5.7-3.46l-.19-.12a81.08,81.08,0,0,1,7.8,10.9c1.73,3,3.25,8,2.8,11.42-.38,3-2.41,8.88-11.72,15.2-7.28,4.94-26.19,14.83-34.87,18.24l-.19.08c-11.7,4.59-24.14,9.28-27.73,9.28l-.38,0a9.34,9.34,0,0,0-1-.05,19.49,19.49,0,0,0-4.31.6V296.17h128.6a22.51,22.51,0,0,1-.13-5.13,14.4,14.4,0,0,0,0-3.08c-.08-1.16-.22-2.91-.3-6.32-.18-7.26,1.22-9.88,2.56-11.78a15.83,15.83,0,0,0,1.62-4.67c0-.16-.18-.4-.28-.48a9.09,9.09,0,0,1-2-1.57,4.5,4.5,0,0,0-1.7-1,10.54,10.54,0,0,1-2.44-1.37,1.56,1.56,0,0,1-.73-1.81c.28-.8,1.15-1.54,5.69-1.54,1.14,0,2.37.05,3.63.14,3.34-9.48,9.84-23.9,13.4-29.71a104.22,104.22,0,0,1,13.38-16.58,25.59,25.59,0,0,0,4-4.18,16.14,16.14,0,0,0-2.73.84c-1.84.63-5.82,2.23-10.84,4.24s-10.66,4.27-16.19,6.39c-11.71,4.49-50.79,19.56-62.17,25.25-5.55,2.77-11,5.58-15.81,8.06s-9.23,4.76-11.8,6a37.13,37.13,0,0,1-11.19,3.65,14.34,14.34,0,0,1-2.69.22c-3.65,0-9.7-1.07-11.42-4a2.73,2.73,0,0,1-.32-2.37c.68-1.95,3.68-3.09,9.12-5.17l3.82-1.48c3.94-1.55,10.78-4,18.69-6.89,10.28-3.72,21.94-7.94,30.8-11.43,16.34-6.44,40.15-21,51.32-28.69,13-8.94,18.84-17.94,19.57-21.8.37-1.93-.69-3.45-3.43-4.94l-.12-.07c-1.48-.8-2.65-1.44-2.7-2.56a1.81,1.81,0,0,1,1-1.59c1.46-1,5.77-1.52,6.67-1.62.34,0,.64,0,.92,0,2.2,0,3.09.73,6.41,3.42l.59.48c2.66,2.15,2.25,4.45,1.36,8-1,4.18-8.76,13.37-13.17,18.14-6.41,6.95-9.69,9-12.87,11l-.15.09-.77.5c5.26-1.91,15.32-5.95,23.6-9.5a51.49,51.49,0,0,1,11.73-3.39,33.65,33.65,0,0,0,5.16-1.25,7.41,7.41,0,0,0,2.25-1.2,10.64,10.64,0,0,1,1.8-1.14,7.34,7.34,0,0,1,3.28-.65,15.45,15.45,0,0,1,3.73.5V118.83c-3-.16-8.16-.27-13.23-.27-2.8,0-5.24,0-7,.1-5.94.2-17.48,1.52-21.28,2a5.29,5.29,0,0,1-.8,0,10.66,10.66,0,0,1-7.3-3.34,10.52,10.52,0,0,1-3-7.77c.11-3,1.85-6.31,2.88-8,1.31-2.15,6.49-9.44,8-11.48a10.84,10.84,0,0,0,1.35-2.17.44.44,0,0,0-.27-.1,10.51,10.51,0,0,0-3.19,1.62c-2.77,1.73-15.06,10.62-16.65,12-.83.74-.76,3.09-.51,4.51,1.55,5.47,1.48,8.27,1.31,9.45a2.1,2.1,0,0,1-2.07,2,4.94,4.94,0,0,1-2.78-1.25c-.25-.2-6.26-4.94-8.54-9.43a42.73,42.73,0,0,1-3.33-9.53l-.72-2.82A68.91,68.91,0,0,0,256.2,84c-2-4.28-2-5.6-1.51-6.42a1.48,1.48,0,0,1,1.31-.68,2.62,2.62,0,0,1,.59.07c1.85.45,6.52,4.13,8.93,7.43a47.69,47.69,0,0,1,2.91,4.49h0l.46.82c.16.29.66,1.17.91,1.23a.4.4,0,0,0,.13-.07c1.21-.87,9.64-6.25,15.06-9.5l.36-.22c4.43-2.66,7.62-4.58,10.53-4.58a5.9,5.9,0,0,1,2.11.39,23.06,23.06,0,0,1,9.23,8c1.8,3.14-.15,5.74-2.21,8.48s-8.85,13.29-10.33,15.75A1.73,1.73,0,0,0,294.38,110.63Zm3.17,49.1a9,9,0,0,1-4,7.49c-.76.49-2,1.23-3.62,2.17-4.73,2.78-12.64,7.43-17.7,11.67a113.74,113.74,0,0,0-12.84,13.08c-.74,1-1.61,2.09-2.5,3.22-1.88,2.41-3.83,4.91-4.41,5.84-.79,1.26-1.48,2.23-2.47,2.23-.53,0-1.23-.27-1.63-1.57-1.48-4.75-.68-6.58.42-9.1l.13-.32c.92-2.12,4.42-7.3,6.51-10.4.62-.91,1.08-1.6,1.27-1.89l0,0c-.22.06-.49.16-.83.29a42.3,42.3,0,0,1-7.36,2.08,5.1,5.1,0,0,1-.86.08,4.74,4.74,0,0,1-4.08-2.54,27.65,27.65,0,0,0-3.76-5.08l-.09-.1c-.91-.93-1.76-1.93-1.34-2.92.16-.4.58-.87,1.69-.87,1.76,0,4.52-.05,5-.06,7.59-1.1,15.22-5.56,21.35-9.14,2.53-1.47,4.72-2.75,6.57-3.6l1.1-.5c4.55-2.11,7.56-3.5,13.79-3.73l1.35,0C296.46,156,297.55,158.34,297.55,159.73Zm-40.47-24a58,58,0,0,1,11.72-3.09l1.47-.18a28,28,0,0,1,3.84-.32,18.41,18.41,0,0,1,3.63.37c3.77.76,11.46,9.22,12.36,10.22A7.26,7.26,0,0,1,290,152a5.77,5.77,0,0,1-4.81,2.45,15.32,15.32,0,0,1-2.73-.33l-1.17-.2a23.65,23.65,0,0,1-2.69-.58,19,19,0,0,0-4.56-.75,8.38,8.38,0,0,0-1.53.13,28.87,28.87,0,0,1-5.42.65,10,10,0,0,1-3.89-.7,12.89,12.89,0,0,1-1.52-.8,28.93,28.93,0,0,0-3.43-1.72c-3.64-1.56-9.65-6.76-10.42-9.55a1.49,1.49,0,0,1,.19-1.21c.91-1.5,4.63-2.35,5.37-2.51A37.56,37.56,0,0,0,257.08,135.71Z"/><path class="cls-2" d="M229.07,78.55c.81-1.78,1.2-3.61-2.31-3.67-4.69-.08-7.63,2.91-10.64,5.47-5.34,4.53-7.71,9-7.71,10.83a4.37,4.37,0,0,0,.82,2.36c4-1.9,7.71-3.85,10.7-5.54C226.17,83.86,228.69,79.39,229.07,78.55Z"/><path class="cls-2" d="M208.49,109l-1.55-1.86c-.78-1-1.47-1.84-2.09-2.68-7,2.68-13.84,5.61-18.45,7.57l-4,1.7-2.19.91c-7.19,3-13.41,5.6-21.2,5.6l-.93,0a17.55,17.55,0,0,1-10.25-3.56V168l.75-.36,2.68-1.29c2.15-1,4.86-2.25,8-3.67,6.22-2.81,13.95-6.31,21.24-10.11,16.86-8.8,28.13-15.62,34.45-20.85,2.49-2.07,3.92-4.39,2.76-9C216.73,118.87,211.77,113,208.49,109Z"/><path class="cls-2" d="M329.77,209.36c-6.41,2.84-14.89,9.91-17.64,12.91-3.92,4.26-8.74,11.52-12.91,19.41-2.36,4.46-5.75,11.81-8.3,17.94,4,1.46,9.08,3.74,10.46,5.51,2.16,2.75-1.4,8-1.81,8.6a2.84,2.84,0,0,1-2.39,1.31,3.65,3.65,0,0,1-1.89-.58c-1.39-1-2.61-1.74-3.68-2.42-.61-.39-1.16-.73-1.65-1.06s-1.38-.86-2.59-1.58A31.89,31.89,0,0,0,287,278a32.21,32.21,0,0,1-.38,5.66,70,70,0,0,0-.65,9.59c0,.92,0,1.9-.06,2.89h50.69V207.75A19.24,19.24,0,0,0,329.77,209.36Zm-6.16,63.39c-.54,4.64-3,9.17-5,12.67-2.36,4.08-6.16,6.25-13.3,6.78A16.26,16.26,0,0,1,293,288.1c-1.07-.9-1.79-2,0-2.32a23.67,23.67,0,0,0,7.09-2.68c2.7-1.71,6.83-5.17,9.86-7.32s4.95-4.65,5.53-9.81c.78-6.9-3-8.12-4.82-9s-4-1.4-6-2.9a18,18,0,0,1-4.38-4.86c-.79-1.47,3.22-1.08,3.22-1.08a47.25,47.25,0,0,0,5.35.27c2.34-.07,5.77.66,6.84,2,1.6,2,5.29,4.53,6.9,8.09S324.14,268.11,323.61,272.75Z"/></g></g></svg>