<svg xmlns="http://www.w3.org/2000/svg" viewBox="0 0 544.87 540.93"><defs><style>.cls-1{fill:#26282b;}.cls-2{fill:#032d6b;}</style></defs><g id="Layer_2" data-name="Layer 2"><g id="레이어_1" data-name="레이어 1"><path class="cls-1" d="M385.52,431c11,8.83,16.8,11.41,17.88,12.92a9.67,9.67,0,0,1,1.83,8.83,4.54,4.54,0,0,1-6.79,1.19c-3-2.59-13.46-14.54-16.69-18.53-10.12,10.67-23.26,19.39-33.71,23.48-3,1.19-3-3.77-1.61-4.52,10.77-5.71,31.55-26.28,37.26-42.11a155.39,155.39,0,0,0-25,2.05c-1.07.21-4.84-2.37-6.24-4.53-2.27-3.55-1.4-6,0-5.81,13.24,2,24.12.75,30.69,0a31.37,31.37,0,0,0,4.52-1.08c2.91-.75,10.66,2.59,11.2,4.09s-1.29,2.59-2.9,6.46A56.13,56.13,0,0,1,385.52,431Zm43.29,45.77c.11,6.14-6.24,9.37-9.58,9.37a2,2,0,0,1-2.05-2.05c.65-16.47.76-70.54,0-89.17-.21-6-2-9.37-3.77-10.88-1.29-1.07-.11-4.09,2.91-3.77,3.66.44,13.35,3.77,13,5.39a61.14,61.14,0,0,0-.54,7.11C428.17,411.76,428.49,464.1,428.81,476.81Z"/><path class="cls-1" d="M544.37,433.62c1.19,2.27.11,6.36-1.72,6-7.11-1.08-22.61-1.41-28.75-1.41-7.54,0-35.87.87-43.4,1.3-4,.21-12.5,1.18-16.7,1.94-1.4.21-5.38-2.7-7.11-5.39-2.58-4-1.72-7.21.11-6.68,4.63,1.4,17.23,2.37,23.7,2.37,8.4,0,34.46-.32,43-.86,14.64-1.08,18.73-1.94,22.18-2.37S543.3,431.58,544.37,433.62Zm-74.31,25.64c-.21-4.53-2.69-6.25-3.66-7.33-1.18-1.4,0-4,1.51-4.09A82.92,82.92,0,0,1,480.83,449a158.26,158.26,0,0,0,26.6-.53,30.66,30.66,0,0,0,4.53-1.3c2.91-.86,10.66,1.94,11.09,3.45.22.86-.54,2.26-1.18,6-.43,2.26-1.62,14.54-1.94,17.77,0,.32,2.26,1.83,2.91,2.48,1.07,1.07.53,5.6-3.13,5.81-2.15.11-30.91.11-38.45.43-1.5,2.8-9.58,3.23-9.69,1.73Zm24.24-74.42c14,0,25,6.24,25,19.71s-11,19.7-25,19.7-25-6.24-25-19.7S480.3,384.84,494.3,384.84Zm0,7.11c-8.4,0-13.47,4.95-13.47,12.6s5.07,12.6,13.47,12.6,13.46-5,13.46-12.6S502.7,392,494.3,392Zm-13,64.51.22,19.49c6.57.21,25.31.11,27-.22a1.94,1.94,0,0,0,1.62-1.72c.21-1.51.21-16.15.21-18C506.79,455.92,488.91,456.13,481.26,456.46Z"/><path class="cls-1" d="M20.14,418a5.79,5.79,0,0,0-1.4-5.3c-.67-1,.66-2.49,2.81-2.07s7.63,3.14,9,4.55a1.25,1.25,0,0,1,.25,1.16,50.82,50.82,0,0,1-6.38,13.51c5.14,5,10.44,8.36,11.27,9.61a8.19,8.19,0,0,1,.74,7.29c-.91,1.57-4.06,2.32-5.55.41-1.82-2.15-6.71-9.61-9.11-13.42-5.22,7-12.18,13.5-19.8,16.16-2.49.91-2.16-2.9-1.24-3.4C9.37,440.7,18.74,426.2,20.14,418Zm24.2,12.43A61.85,61.85,0,0,0,36.88,433c-.75.42-3.73-1.4-4.81-3.06-1.82-2.49-1.32-4.64-.24-4.39,3.72.66,9.28.33,12.51,0,0-6.63-.09-12.43-.25-16-.17-4.31-1.41-6.71-2.74-7.71-.91-.74,0-3.06,2.07-2.81,2.57.33,9.53,2.65,9.28,3.81a42.29,42.29,0,0,0-.41,5.05c-.41,10.94-.25,42.25,0,51.28.08,4.4-4.47,6.71-6.79,6.71a1.42,1.42,0,0,1-1.5-1.49C44.25,457.77,44.42,443.35,44.34,430.43Zm15-28c-.16-4.39-1.49-6.87-2.82-7.95-.91-.74,0-3.06,2.16-2.82,2.65.34,9.77,2.74,9.53,3.9a41.6,41.6,0,0,0-.42,5.22c-.41,13.83-.25,53.68,0,65.45.08,4.39-4.55,6.71-7,6.71a1.39,1.39,0,0,1-1.49-1.41C59.75,457.6,59.83,416.26,59.33,402.42Z"/><path class="cls-1" d="M113,441.28c-6.13.25-11.85.41-14.42.58-3.06.16-9.61.91-12.84,1.49-1.08.17-4.14-2.07-5.47-4.14-2-3.07-1.32-5.55.09-5.14,3.56,1.08,13.25,1.82,18.22,1.82,6.46,0,26.51-.24,33.06-.66,11.26-.83,14.41-1.49,17.06-1.82s5.89,2.32,6.71,3.89c.92,1.74.09,4.89-1.32,4.64-5.47-.83-17.4-1.07-22.12-1.07-2.07,0-6.13.08-10.69.24-.08,7.87.08,19.06.25,24.77.08,4.73-4.8,7.21-7.37,7.21a1.47,1.47,0,0,1-1.58-1.57C112.93,466.63,113,449.81,113,441.28ZM96.37,407.56a7.66,7.66,0,0,0-2.82-5.63,2.07,2.07,0,0,1,1.16-3.15c1.9-.08,9.44.58,10.19,1,4.47.25,17.23-.16,20.63-.49a24.88,24.88,0,0,0,3.48-1c2.23-.66,9.44,1.49,9.77,2.65.17.67-.58,1.74-1.32,4.64-.42,1.74-1.58,12.68-1.83,15.16,0,.25,1.74,1.41,2.24,1.91.83.83.42,4.31-2.4,4.47-1.66.09-24.52.17-30.49.33-1.16,2.24-7.37,2.57-7.45,1.33Zm8.61-2.15.17,16.57c5.22.08,20.71.08,22-.25a1.51,1.51,0,0,0,1.25-1.33c.16-1.16.16-13.92.16-15.32C125.94,405,111.28,405.16,105,405.41Z"/><path class="cls-1" d="M176.15,411.12l16.57-.25c0-1.32-.09-2.56-.09-3.64-.16-4.23-1.4-4.89-2.73-6.05-.91-.66,0-3,2.07-2.73,2.57.33,9.53,2.65,9.28,3.89a37.18,37.18,0,0,0-.41,5c-.25,6.63-.25,17.65,0,22.79.16,4.55-5.14,6-7.21,5.55a1.25,1.25,0,0,1-1-1.41c0-.91.09-2.16.09-3.4l-16.49.25v.25c.17,4.55-5.14,6.05-7.21,5.55a1.24,1.24,0,0,1-1-1.41c.33-6.13.33-19.22,0-26.35-.17-4.22-1.41-4.88-2.73-6-.92-.67,0-3,2.07-2.74,2.56.33,9.52,2.65,9.27,3.9a39,39,0,0,0-.41,5A14.47,14.47,0,0,0,176.15,411.12Zm16.73,5.47-16.81.25c-.09,2.9-.09,5.8,0,8.53l16.81-.25Zm-5.46,29.66c-.25-2.73-1.5-3.48-2.82-4.64-.91-.74,0-3.06,2.15-2.82,2.65.34,9.53,1.91,9.28,3.15a41,41,0,0,0-.41,5.14,9.79,9.79,0,0,0-.09,1.66l23.28-.25a34.48,34.48,0,0,0-.16-3.48c-.25-2.74-1.49-3.48-2.82-4.64-.91-.75,0-3.07,2.16-2.82,2.65.33,9.52,1.91,9.27,3.15a41,41,0,0,0-.41,5.14c-.25,5.13-.25,17.73,0,22.2s-5.14,6-7.21,5.55a1.24,1.24,0,0,1-1-1.41c.08-.91.16-2.24.16-3.81l-23.19.25c-.17,4.31-5.22,5.71-7.21,5.22a1.24,1.24,0,0,1-1-1.41A254,254,0,0,0,187.42,446.25Zm31.48,7.95-23.45.25c-.08,2.9-.08,5.88,0,8.54l23.45-.34C219,459.84,219,456.94,218.9,454.2Zm-.33-33a56.23,56.23,0,0,0-11.69,2.57c-.91.25-3.64-1.41-4.72-2.9-1.82-2.4-1.24-4.31-.16-4.14,5.55.91,13.25.25,16.57-.17,0-5.22-.09-10.19-.25-13.67-.17-4.64-1.58-7.21-2.9-8.37-1-.82-.09-3.14,2.23-2.9,2.82.34,10.28,2.9,10,4.15a45.85,45.85,0,0,0-.42,5.46c-.24,7.13-.24,20,0,28.09.09,4.72-4.8,7.21-7.37,7.21a1.5,1.5,0,0,1-1.57-1.58C218.48,431,218.57,426.12,218.57,421.23Z"/><path class="cls-1" d="M262.06,403.83c10.36,0,18.48,6.38,18.48,16.57S272.42,437,262.06,437s-18.47-6.38-18.47-16.57S251.71,403.83,262.06,403.83Zm0,6.13c-6.54,0-9.69,5.22-9.69,10.44s3.15,10.44,9.69,10.44,9.69-5.22,9.69-10.44S268.61,410,262.06,410Zm1.82,44.82a7.08,7.08,0,0,0-2.81-5.3c-1.16-1,0-3.15,1.16-3.23,2.15-.17,10.93,1.08,10.77,1.91-.25,1.32-.25,10.68-.25,13.17,0,3.73,1.41,5.13,8,5.13,18.15,0,24.86-2.89,25.77-2.89,3,0,5.88,2.15,6.54,3.47.83,1.5,0,4.73-1.24,4.73-9.53,0-22.37.08-30.82.16-10.85.09-17.15-2.15-17.15-8.7Zm34-51.86c-.25-4.64-1.57-7.21-2.9-8.37-1-.82-.08-3.14,2.24-2.9,2.81.34,10.27,2.9,10,4.15a46.51,46.51,0,0,0-.41,5.46c-.5,11.27-.25,32.48,0,42.26.08,4.72-4.81,7.2-7.37,7.2a1.5,1.5,0,0,1-1.58-1.57C298.35,438,298.43,414.19,297.85,402.92Z"/><path class="cls-1" d="M42.38,514.32v2.3a6.43,6.43,0,0,0-2,.51,2.32,2.32,0,0,0-.2.94v14.66c0,5.55-3,8.17-7.86,8.17a8.32,8.32,0,0,1-5.9-2.19v-4.85H28.7a11.18,11.18,0,0,0,.47,2.62c.23.16.54.51.82.67a10.31,10.31,0,0,0,2.38.51c2.82,0,4.31-1.49,4.31-4.93V518.07a2.32,2.32,0,0,0-.2-.94,6.43,6.43,0,0,0-2-.51v-2.3Z"/><path class="cls-1" d="M49.54,517.52v8.29h5.55a2.58,2.58,0,0,0,.86-.12,3.85,3.85,0,0,0,.43-1.21h2v5.71h-2A3.2,3.2,0,0,0,56,529a2.58,2.58,0,0,0-.86-.12H49.54v8.44h7.12a1.85,1.85,0,0,0,.94-.23,7.2,7.2,0,0,0,.5-2.19h2.31v5.63H43.87V538.2a6.2,6.2,0,0,0,2-.5,2.54,2.54,0,0,0,.19-.94V518.07a2.5,2.5,0,0,0-.19-.94,6.43,6.43,0,0,0-2-.51v-2.3H60.41V520H58.1a7,7,0,0,0-.5-2.19,1.85,1.85,0,0,0-.94-.24Z"/><path class="cls-1" d="M67.22,517.52v8.29h5.55a2.66,2.66,0,0,0,.86-.12,4.43,4.43,0,0,0,.43-1.21h2v5.71h-2a3.59,3.59,0,0,0-.43-1.21,2.66,2.66,0,0,0-.86-.12H67.22v8.44h7.11a1.8,1.8,0,0,0,.94-.23,7.44,7.44,0,0,0,.51-2.19h2.31v5.63H61.55V538.2a6.2,6.2,0,0,0,2-.5,2.36,2.36,0,0,0,.2-.94V518.07a2.32,2.32,0,0,0-.2-.94,6.43,6.43,0,0,0-2-.51v-2.3H78.09V520H75.78a7.27,7.27,0,0,0-.51-2.19,1.8,1.8,0,0,0-.94-.24Z"/><path class="cls-1" d="M100.65,514.32v2.3a6.43,6.43,0,0,0-2,.51,2.5,2.5,0,0,0-.19.94V532c0,5.35-3.36,8.95-9,8.95s-9-3.6-9-8.95V518.07a2.5,2.5,0,0,0-.19-.94,6.43,6.43,0,0,0-2-.51v-2.3h7.82v2.3a6.43,6.43,0,0,0-2,.51,2.32,2.32,0,0,0-.2.94V532c0,3.56,2,5.9,5.51,5.9S95,535.51,95,532V518.07a2.32,2.32,0,0,0-.2-.94,6.43,6.43,0,0,0-2-.51v-2.3Z"/><path class="cls-1" d="M128,538.2v2.31h-8V538.2a6.2,6.2,0,0,0,2-.5,1.82,1.82,0,0,0,.12-.94l-1.8-17.24-5.08,21h-2l-5.43-21.31-1.57,17.56a2.35,2.35,0,0,0,.16.94,6.2,6.2,0,0,0,2,.5v2.31h-7.47V538.2a6.2,6.2,0,0,0,2-.5,3.33,3.33,0,0,0,.28-.94L105,518.07a1.8,1.8,0,0,0-.12-.94,6.35,6.35,0,0,0-2-.51v-2.3h6.8l4.54,17.39,4.18-17.39h7.47v2.3a6.43,6.43,0,0,0-2,.51,1.91,1.91,0,0,0-.11.94l1.91,18.69a3.33,3.33,0,0,0,.28.94A6.12,6.12,0,0,0,128,538.2Z"/><path class="cls-1" d="M155.86,520h-2.3a7.27,7.27,0,0,0-.51-2.19,1.85,1.85,0,0,0-.94-.24h-3.72v19.24a2.36,2.36,0,0,0,.2.94,6.2,6.2,0,0,0,2,.5v2.31h-7.82V538.2a6.2,6.2,0,0,0,2-.5,2.36,2.36,0,0,0,.2-.94V517.52h-3.8a1.79,1.79,0,0,0-.93.24,6.7,6.7,0,0,0-.51,2.19h-2.35v-5.63h18.57Z"/><path class="cls-1" d="M174.48,538.2v2.31h-7V538.2a4.48,4.48,0,0,0,1.6-.5,1.8,1.8,0,0,0-.08-.9l-1.09-3.68h-7.82L159,536.8a1.9,1.9,0,0,0-.07.9,4.48,4.48,0,0,0,1.6.5v2.31h-7V538.2a3.33,3.33,0,0,0,1.37-.5c.12-.24.31-.59.43-.9l7.15-22.48h3.05l7.16,22.48c.12.31.31.66.39.9A3.76,3.76,0,0,0,174.48,538.2Zm-7.39-7.89L164,519.71l-3.09,10.6Z"/><path class="cls-1" d="M194.81,538.2v2.31h-6.49V538.2a3.61,3.61,0,0,0,1.45-.5c.11-.24-.12-.55-.28-.82L185,529.13l-4.54,7.75a1.48,1.48,0,0,0-.27.82,4,4,0,0,0,1.44.5v2.31h-6.45V538.2a2,2,0,0,0,1-.5,4.25,4.25,0,0,1,.59-.82l6.17-10L177.45,518c-.15-.27-.47-.59-.51-.82a2.31,2.31,0,0,0-1-.51v-2.3h6.45v2.3a3.44,3.44,0,0,0-1.45.51c-.12.23.12.55.28.82l3.87,6.77L189,518a1.44,1.44,0,0,0,.28-.82,4.26,4.26,0,0,0-1.45-.51v-2.3h6.34v2.3a2.12,2.12,0,0,0-1,.51,7.34,7.34,0,0,1-.55.82l-5.55,9,6.1,9.9a4.16,4.16,0,0,1,.58.82A2.05,2.05,0,0,0,194.81,538.2Z"/><path class="cls-1" d="M216.28,539.14a9.16,9.16,0,0,1-5.71,1.76c-4.26,0-6.61-2.62-6.29-6.25.27-3,2.93-5.16,5.39-6.57-.31-.78-.62-1.57-1-2.39-1.87-4.61.08-8.56,3.52-9,3.09-.39,5.16,1.52,5.63,4.5.32,3.24-1.44,5.7-4.69,7.35a42.77,42.77,0,0,0,3.8,6.76,8.43,8.43,0,0,0,.89-3.44,1.81,1.81,0,0,0-.15-.7,3.66,3.66,0,0,0-1.41-.39v-1.65h5.83v1.76a7.31,7.31,0,0,0-2,.39,1.64,1.64,0,0,0-.19.78,10.5,10.5,0,0,1-1.61,4.85c1.57,1.45,2.93,1.25,4.38.2l0,2.23C220.39,541,218.31,540.94,216.28,539.14Zm-4.42-.51a6.2,6.2,0,0,0,3-1,37.22,37.22,0,0,1-4.26-7.47c-1.33,1-2.7,2.31-2.93,3.75A3.67,3.67,0,0,0,211.86,538.63Zm-.51-14c.32.7.63,1.41.9,2.07a5,5,0,0,0,2.54-4.61c-.07-1.72-.86-3.17-2.11-3.13C210.77,519,210.06,521.51,211.35,524.6Z"/><path class="cls-1" d="M253.19,538.2v2.31h-7V538.2a4.48,4.48,0,0,0,1.61-.5,1.8,1.8,0,0,0-.08-.9l-1.1-3.68H238.8l-1.09,3.68a1.8,1.8,0,0,0-.08.9,4.48,4.48,0,0,0,1.61.5v2.31h-7V538.2a3.28,3.28,0,0,0,1.36-.5c.12-.24.32-.59.44-.9l7.15-22.48h3.05l7.15,22.48c.12.31.32.66.4.9A3.76,3.76,0,0,0,253.19,538.2Zm-7.39-7.89-3.09-10.6-3.08,10.6Z"/><path class="cls-1" d="M256.44,527.37c0,6.18,3.17,10.33,6.92,10.33a8.56,8.56,0,0,0,5.36-2l1.48,2.54a10.71,10.71,0,0,1-6.84,2.66c-5.9,0-10.56-5.39-10.56-13.53s4.66-13.45,10.56-13.45a10.07,10.07,0,0,1,6.88,2.55V521h-2.3a11.81,11.81,0,0,0-.51-2.66,6.75,6.75,0,0,0-4.07-1.25C259.61,517.13,256.44,521.24,256.44,527.37Z"/><path class="cls-1" d="M274.86,527.37c0,6.18,3.17,10.33,6.92,10.33a8.58,8.58,0,0,0,5.36-2l1.48,2.54a10.71,10.71,0,0,1-6.84,2.66c-5.9,0-10.56-5.39-10.56-13.53s4.66-13.45,10.56-13.45a10.07,10.07,0,0,1,6.88,2.55V521h-2.31a11.38,11.38,0,0,0-.5-2.66,6.75,6.75,0,0,0-4.07-1.25C278,517.13,274.86,521.24,274.86,527.37Z"/><path class="cls-1" d="M309.31,527.45c0,8.06-3.95,13.45-9.86,13.45s-9.81-5.39-9.81-13.53,3.95-13.45,9.81-13.45S309.31,519.32,309.31,527.45Zm-3.79,0c0-6.29-2.47-10.51-6.07-10.51s-6,4.18-6,10.43,2.43,10.52,6,10.52S305.52,533.71,305.52,527.45Z"/><path class="cls-1" d="M332.54,514.32v2.3a6.43,6.43,0,0,0-2,.51,2.32,2.32,0,0,0-.19.94V532c0,5.35-3.37,8.95-9,8.95s-9-3.6-9-8.95V518.07a2.32,2.32,0,0,0-.2-.94,6.26,6.26,0,0,0-1.95-.51v-2.3h7.82v2.3a6.43,6.43,0,0,0-2,.51,2.5,2.5,0,0,0-.19.94V532c0,3.56,1.95,5.9,5.51,5.9s5.44-2.34,5.44-5.9V518.07a2.32,2.32,0,0,0-.2-.94,6.43,6.43,0,0,0-1.95-.51v-2.3Z"/><path class="cls-1" d="M355,514.32v2.3a6.26,6.26,0,0,0-1.95.51,2.32,2.32,0,0,0-.2.94v22.44h-3.95L339,519.24v17.52a2.54,2.54,0,0,0,.19.94,6.2,6.2,0,0,0,2,.5v2.31h-7.43V538.2a6.2,6.2,0,0,0,2-.5,2.54,2.54,0,0,0,.19-.94V518.07a2.5,2.5,0,0,0-.19-.94,6.43,6.43,0,0,0-2-.51v-2.3h6.37l9.7,20.4V518.07a2.5,2.5,0,0,0-.19-.94,6.43,6.43,0,0,0-2-.51v-2.3Z"/><path class="cls-1" d="M374.38,520h-2.31a7,7,0,0,0-.51-2.19,1.8,1.8,0,0,0-.94-.24h-3.71v19.24a2.36,2.36,0,0,0,.2.94,6,6,0,0,0,1.95.5v2.31h-7.82V538.2a6.2,6.2,0,0,0,2-.5,2.54,2.54,0,0,0,.19-.94V517.52H359.6a1.83,1.83,0,0,0-.94.24,7.27,7.27,0,0,0-.51,2.19h-2.34v-5.63h18.57Z"/><path class="cls-1" d="M376.41,538.2a6.2,6.2,0,0,0,2-.5,2.35,2.35,0,0,0,.19-.94V518.07a2.32,2.32,0,0,0-.19-.94,6.43,6.43,0,0,0-2-.51v-2.3h7.82v2.3a6.43,6.43,0,0,0-2,.51,2.32,2.32,0,0,0-.2.94v18.69a2.36,2.36,0,0,0,.2.94,6.2,6.2,0,0,0,2,.5v2.31h-7.82Z"/><path class="cls-1" d="M408.2,514.32v2.3a6.35,6.35,0,0,0-1.95.51,2.32,2.32,0,0,0-.2.94v22.44H402.1l-9.93-21.27v17.52a2.36,2.36,0,0,0,.2.94,6.12,6.12,0,0,0,1.95.5v2.31h-7.43V538.2a6.2,6.2,0,0,0,2-.5,2.35,2.35,0,0,0,.19-.94V518.07a2.32,2.32,0,0,0-.19-.94,6.43,6.43,0,0,0-2-.51v-2.3h6.38l9.69,20.4V518.07a2.5,2.5,0,0,0-.19-.94,6.43,6.43,0,0,0-2-.51v-2.3Z"/><path class="cls-1" d="M427.36,526.51v2.31a2.08,2.08,0,0,0-1,.51,3.73,3.73,0,0,0-.11.94v7.43a7.66,7.66,0,0,1-6.22,3.2c-6.68,0-10.63-5.39-10.63-13.53s3.95-13.45,10.63-13.45a8.89,8.89,0,0,1,6.18,2.23v4.7h-2.31a9.9,9.9,0,0,0-.51-2.66,4.64,4.64,0,0,0-3.36-1.22c-4.26,0-7,4-7,10.4s2.7,10.44,7,10.44a4.66,4.66,0,0,0,3.17-1.29v-6.25a2.29,2.29,0,0,0-.24-.94,9.11,9.11,0,0,0-2.46-.51v-2.31Z"/><path class="cls-1" d="M441.52,527.37c0,6.18,3.17,10.33,6.92,10.33a8.58,8.58,0,0,0,5.36-2l1.48,2.54a10.71,10.71,0,0,1-6.84,2.66c-5.9,0-10.56-5.39-10.56-13.53s4.66-13.45,10.56-13.45a10.07,10.07,0,0,1,6.88,2.55V521H453a11.81,11.81,0,0,0-.51-2.66,6.75,6.75,0,0,0-4.07-1.25C444.69,517.13,441.52,521.24,441.52,527.37Z"/><path class="cls-1" d="M476,527.45c0,8.06-4,13.45-9.85,13.45s-9.82-5.39-9.82-13.53,3.95-13.45,9.82-13.45S476,519.32,476,527.45Zm-3.79,0c0-6.29-2.47-10.51-6.06-10.51s-6,4.18-6,10.43,2.43,10.52,6,10.52S472.18,533.71,472.18,527.45Z"/><path class="cls-1" d="M497,538.71v2.07a10.16,10.16,0,0,1-3.68,0c-1.21-.83-2.07-3.29-3.17-6.06-1.21-3.09-1.79-4.77-4-4.77h-3.29v6.84a2.36,2.36,0,0,0,.2.94,6.2,6.2,0,0,0,2,.5v2.31h-7.82V538.2a6.2,6.2,0,0,0,2-.5,2.35,2.35,0,0,0,.19-.94V518.07a2.32,2.32,0,0,0-.19-.94,6.43,6.43,0,0,0-2-.51v-2.3h9.54c5,0,8.14,3,8.14,7.7a7.21,7.21,0,0,1-4.19,7,11,11,0,0,1,2.5,4.22C494.78,537.27,495.44,538.71,497,538.71ZM486.76,527c2.7,0,4.3-1.76,4.3-4.69s-1.6-4.81-4.3-4.81h-3.87V527Z"/><path class="cls-1" d="M514.92,522.56c0,5-3.33,8.41-9.39,8.41H503v5.79a2.36,2.36,0,0,0,.2.94,6.2,6.2,0,0,0,1.95.5v2.31h-7.82V538.2a6.2,6.2,0,0,0,2-.5,2.35,2.35,0,0,0,.19-.94V518.07a2.32,2.32,0,0,0-.19-.94,6.43,6.43,0,0,0-2-.51v-2.3h8.17C511.59,514.32,514.92,517.56,514.92,522.56Zm-3.72.28c0-3.25-1.91-5.32-5.67-5.32H503v10.4h2.5C509.29,527.92,511.2,526.12,511.2,522.84Z"/><path class="cls-1" d="M512.1,538.24a2.29,2.29,0,1,1,2.31,2.27A2.28,2.28,0,0,1,512.1,538.24Z"/><path class="cls-2" d="M378.57,12.74V307.92H166.3V12.74H378.57M391.31,0H153.56V320.66H391.31V0Z"/><path class="cls-2" d="M324.63,110.63c.12.22.45.27.69.28h.85a50.16,50.16,0,0,0,5.92-.43c1.15-.12,2.42-.26,3.92-.39,7-.6,12.15-.88,16.11-.88a51.46,51.46,0,0,1,8.79.65,23.41,23.41,0,0,1,5.9,2V24.5H240.61a22.85,22.85,0,0,1,4.24,3.5c.6.95.94,6.31.48,11.78h-.08l.08,0c0,.18-.08,1.82,2.09,2.55l1.67.52c1.75.54,3.93,1.21,5.78,2l.72.31c2.9,1.23,7.74,3.28,10.24,5.44a4.49,4.49,0,0,1,1.46,5,4.69,4.69,0,0,1-4.7,2.84h-.42c-4.27-.23-10-4.29-13.1-6.47l-.85-.6a6.52,6.52,0,0,0-3-1.46,1.94,1.94,0,0,0-.86.24A3.88,3.88,0,0,0,243,51.53c-.33,1-.7,2-1.08,2.83C237,65.71,231.14,73,224.44,76.1a22.75,22.75,0,0,1-9.12,1.72c-3.58,0-7.86-.73-9.1-2.81a2.54,2.54,0,0,1,0-2.58,37.89,37.89,0,0,1,4-5.16A186.59,186.59,0,0,0,227,44.76c4-6.45,6.27-16.72,5.35-18.1a14,14,0,0,1-1.12-2.16H178.06v85.87a9.86,9.86,0,0,0,2.21.7,16.72,16.72,0,0,0,3.28.3c5.35,0,11.33-2,15.29-3.39l1.33-.45c5.37-1.79,21.82-7.5,28.73-10.33.79-.32,1.6-.67,2.42-1a8.72,8.72,0,0,1,.57-1.81c.38-1,.61-1.57.34-2.18-.12-.27-.24-.52-.37-.77-1-2-1.5-3.66.85-8.28,2.23-4.28,9.55-10.7,15.35-13.45A13.78,13.78,0,0,1,254,68a14.23,14.23,0,0,1,3.41.52c.73.17,1.49.35,2.4.5,4.71.79,6.13,1.21,7.17,2.72.7,1,.89,2.76,1.09,4.63.08.74.15,1.45.26,2.06a19.17,19.17,0,0,0,.49,1.95,10.22,10.22,0,0,1,.59,4.22c-.4,3.55-6.57,7.75-10.15,9.68a105,105,0,0,1-10,4.7l-.1,0c-1.06.55-1.63,1-1.68,1.17,0,0,.18.53,2.13,1.31,2.92,1.17,7.92,3.28,12.33,5.14,3.47,1.46,6.46,2.73,7.56,3.16,5,2,8.37,3.87,10.17,5.77,2.24,2.38,2.55,4.22,2.41,5.34a3,3,0,0,1-1.35,2.22,5.57,5.57,0,0,1-3.1.84,14.29,14.29,0,0,1-5.05-1.2l-.37-.14c-3.37-1.27-8.34-3.94-16.63-8.94l-2-1.25c-1.49-.93-3.35-2.09-5.69-3.46l-.2-.12a81.08,81.08,0,0,1,7.8,10.9c1.73,3,3.25,8,2.8,11.42-.38,3-2.41,8.88-11.72,15.2-7.28,4.94-26.19,14.83-34.87,18.24l-.19.08c-11.7,4.59-24.14,9.28-27.73,9.28l-.38,0a9.23,9.23,0,0,0-1-.05,19.49,19.49,0,0,0-4.31.6V296.17H306.67a22.08,22.08,0,0,1-.14-5.13,14.4,14.4,0,0,0,0-3.08c-.08-1.16-.22-2.91-.3-6.32-.18-7.26,1.22-9.88,2.56-11.78a15.83,15.83,0,0,0,1.62-4.67c0-.16-.18-.4-.28-.48a9.09,9.09,0,0,1-2-1.57,4.42,4.42,0,0,0-1.7-1,10.54,10.54,0,0,1-2.44-1.37,1.56,1.56,0,0,1-.73-1.81c.28-.8,1.16-1.54,5.69-1.54,1.14,0,2.37.05,3.63.14,3.34-9.48,9.84-23.9,13.4-29.71a104.22,104.22,0,0,1,13.38-16.58,25.15,25.15,0,0,0,4-4.18,16.14,16.14,0,0,0-2.73.84c-1.84.63-5.81,2.23-10.84,4.24s-10.66,4.27-16.19,6.39c-11.71,4.49-50.79,19.56-62.17,25.25-5.55,2.77-11,5.58-15.81,8.06s-9.22,4.76-11.8,6a37.13,37.13,0,0,1-11.19,3.65,14.34,14.34,0,0,1-2.69.22c-3.65,0-9.7-1.07-11.42-4a2.73,2.73,0,0,1-.32-2.37c.68-1.95,3.68-3.09,9.12-5.17l3.82-1.48c3.94-1.55,10.78-4,18.69-6.89,10.28-3.72,21.94-7.94,30.8-11.43,16.34-6.44,40.15-21,51.32-28.69,13-8.94,18.84-17.94,19.58-21.8.36-1.93-.7-3.45-3.44-4.94l-.12-.07c-1.48-.8-2.65-1.44-2.7-2.56a1.81,1.81,0,0,1,1-1.59c1.46-1,5.77-1.52,6.67-1.62.34,0,.64,0,.93,0,2.19,0,3.08.73,6.4,3.42l.59.48c2.66,2.15,2.25,4.45,1.36,8-1,4.18-8.76,13.37-13.17,18.14-6.41,6.95-9.69,9-12.87,11l-.14.09-.78.5c5.26-1.91,15.32-5.95,23.6-9.5a51.4,51.4,0,0,1,11.74-3.39,33.8,33.8,0,0,0,5.15-1.25,7.28,7.28,0,0,0,2.25-1.2,10.4,10.4,0,0,1,1.81-1.14,7.26,7.26,0,0,1,3.27-.65,15.45,15.45,0,0,1,3.73.5V118.83c-3-.16-8.16-.27-13.23-.27-2.8,0-5.24,0-7,.1-5.94.2-17.48,1.52-21.28,2a5.21,5.21,0,0,1-.8,0,10.66,10.66,0,0,1-7.3-3.34,10.52,10.52,0,0,1-3-7.77c.11-3,1.85-6.31,2.88-8,1.31-2.15,6.49-9.44,8-11.48a11.41,11.41,0,0,0,1.36-2.17.47.47,0,0,0-.28-.1,10.51,10.51,0,0,0-3.19,1.62c-2.77,1.73-15.06,10.62-16.65,12-.82.74-.76,3.09-.51,4.51,1.55,5.47,1.48,8.27,1.31,9.45a2.1,2.1,0,0,1-2.07,2,4.94,4.94,0,0,1-2.78-1.25c-.25-.2-6.26-4.94-8.53-9.43a41.72,41.72,0,0,1-3.33-9.53c-.25-.94-.49-1.88-.73-2.82A68.91,68.91,0,0,0,286.45,84c-2-4.28-2-5.6-1.51-6.42a1.48,1.48,0,0,1,1.31-.68,2.62,2.62,0,0,1,.59.07c1.85.45,6.52,4.13,8.93,7.43a45.77,45.77,0,0,1,2.91,4.49h0l.46.82c.16.29.66,1.17.91,1.23a.4.4,0,0,0,.13-.07c1.21-.87,9.64-6.25,15.06-9.5l.36-.22c4.43-2.66,7.62-4.58,10.54-4.58a5.89,5.89,0,0,1,2.1.39,23,23,0,0,1,9.23,8c1.8,3.14-.15,5.74-2.21,8.48s-8.85,13.29-10.33,15.75A1.73,1.73,0,0,0,324.63,110.63Zm3.17,49.1a9,9,0,0,1-4,7.49c-.76.49-2,1.23-3.62,2.17-4.73,2.78-12.64,7.43-17.69,11.67a113.09,113.09,0,0,0-12.85,13.08c-.74,1-1.61,2.09-2.5,3.22-1.88,2.41-3.83,4.91-4.41,5.84-.79,1.26-1.48,2.23-2.47,2.23-.52,0-1.23-.27-1.63-1.57-1.48-4.75-.68-6.58.42-9.1l.14-.32c.91-2.12,4.41-7.3,6.5-10.4.62-.91,1.08-1.6,1.27-1.89l0,0c-.22.06-.49.16-.83.29a42.3,42.3,0,0,1-7.36,2.08,5.1,5.1,0,0,1-.86.08,4.74,4.74,0,0,1-4.08-2.54,27.65,27.65,0,0,0-3.76-5.08l-.09-.1c-.91-.93-1.76-1.93-1.34-2.92.17-.4.58-.87,1.69-.87,1.76,0,4.52-.05,5-.06,7.59-1.1,15.22-5.56,21.36-9.14,2.53-1.47,4.71-2.75,6.56-3.6l1.1-.5c4.56-2.11,7.57-3.5,13.79-3.73l1.36,0C326.71,156,327.8,158.34,327.8,159.73Zm-40.47-24a58,58,0,0,1,11.72-3.09l1.47-.18a28,28,0,0,1,3.84-.32,18.41,18.41,0,0,1,3.63.37c3.78.76,11.47,9.22,12.36,10.22a7.26,7.26,0,0,1-.13,9.29,5.77,5.77,0,0,1-4.81,2.45,15.43,15.43,0,0,1-2.73-.33l-1.17-.2a24.13,24.13,0,0,1-2.69-.58,19,19,0,0,0-4.56-.75,8.46,8.46,0,0,0-1.53.13,28.87,28.87,0,0,1-5.42.65,9.88,9.88,0,0,1-3.88-.7,12.29,12.29,0,0,1-1.53-.8,28.93,28.93,0,0,0-3.43-1.72c-3.64-1.56-9.65-6.76-10.42-9.55a1.49,1.49,0,0,1,.19-1.21c.91-1.5,4.63-2.35,5.37-2.51A37.56,37.56,0,0,0,287.33,135.71Z"/><path class="cls-2" d="M259.32,78.55c.81-1.78,1.2-3.61-2.31-3.67-4.69-.08-7.63,2.91-10.64,5.47-5.33,4.53-7.71,9-7.71,10.83a4.37,4.37,0,0,0,.82,2.36c4-1.9,7.71-3.85,10.7-5.54C256.42,83.86,258.94,79.39,259.32,78.55Z"/><path class="cls-2" d="M238.74,109l-1.55-1.86c-.78-1-1.47-1.84-2.09-2.68-7,2.68-13.84,5.61-18.45,7.57l-4,1.7-2.19.91c-7.19,3-13.4,5.6-21.2,5.6l-.92,0a17.56,17.56,0,0,1-10.26-3.56V168l.75-.36,2.68-1.29c2.15-1,4.86-2.25,8-3.67,6.22-2.81,13.95-6.31,21.24-10.11,16.86-8.8,28.13-15.62,34.45-20.85,2.49-2.07,3.92-4.39,2.77-9C247,118.87,242,113,238.74,109Z"/><path class="cls-2" d="M360,209.36c-6.41,2.84-14.89,9.91-17.64,12.91-3.92,4.26-8.74,11.52-12.91,19.41-2.36,4.46-5.75,11.81-8.3,17.94,4,1.46,9.08,3.74,10.46,5.51,2.16,2.75-1.39,8-1.81,8.6a2.84,2.84,0,0,1-2.39,1.31,3.65,3.65,0,0,1-1.89-.58c-1.39-1-2.61-1.74-3.68-2.42-.61-.39-1.16-.73-1.65-1.06s-1.38-.86-2.59-1.58a31.89,31.89,0,0,0-.41,8.63,31.28,31.28,0,0,1-.38,5.66,71.59,71.59,0,0,0-.65,9.59c0,.92,0,1.9-.06,2.89h50.69V207.75A19.24,19.24,0,0,0,360,209.36Zm-6.16,63.39c-.54,4.64-3,9.17-5,12.67-2.36,4.08-6.16,6.25-13.3,6.78a16.26,16.26,0,0,1-12.31-4.1c-1.07-.9-1.79-2,0-2.32a23.67,23.67,0,0,0,7.09-2.68c2.7-1.71,6.83-5.17,9.86-7.32s4.95-4.65,5.53-9.81c.78-6.9-3-8.12-4.81-9s-4-1.4-6-2.9a17.72,17.72,0,0,1-4.37-4.86c-.8-1.47,3.21-1.08,3.21-1.08a47.25,47.25,0,0,0,5.35.27c2.34-.07,5.77.66,6.84,2,1.6,2,5.3,4.53,6.9,8.09S354.39,268.11,353.86,272.75Z"/></g></g></svg>