<svg xmlns="http://www.w3.org/2000/svg" viewBox="0 0 708.62 214.5"><defs><style>.cls-1{fill:#26282b;}.cls-2{fill:#032d6b;}</style></defs><g id="Layer_2" data-name="Layer 2"><g id="레이어_1" data-name="레이어 1"><path class="cls-1" d="M318.88,166.73h-2.3a7.11,7.11,0,0,0-.5-2.18,1.89,1.89,0,0,0-.93-.23h-3.7v19.12a2.32,2.32,0,0,0,.2.94,6,6,0,0,0,1.94.5v2.3h-7.77v-2.3a6.12,6.12,0,0,0,1.94-.5,2.32,2.32,0,0,0,.2-.94V164.32h-3.77a1.92,1.92,0,0,0-.94.23,7.11,7.11,0,0,0-.5,2.18h-2.34v-5.6h18.47Z"/><path class="cls-1" d="M337.38,184.88v2.3h-6.95v-2.3a4.49,4.49,0,0,0,1.59-.5,1.8,1.8,0,0,0-.08-.9l-1.09-3.65h-7.77L322,183.48a1.8,1.8,0,0,0-.08.9,4.48,4.48,0,0,0,1.6.5v2.3h-7v-2.3a3.28,3.28,0,0,0,1.36-.5c.12-.24.31-.59.43-.9l7.11-22.35h3l7.11,22.35c.12.31.32.66.39.9A3.76,3.76,0,0,0,337.38,184.88ZM330,177,327,166.5,323.89,177Z"/><path class="cls-1" d="M357.6,184.88v2.3h-6.45v-2.3a3.5,3.5,0,0,0,1.43-.5c.12-.24-.11-.55-.27-.82l-4.47-7.69-4.51,7.69a1.48,1.48,0,0,0-.27.82,4,4,0,0,0,1.44.5v2.3h-6.41v-2.3a2.06,2.06,0,0,0,1-.5,3.78,3.78,0,0,1,.58-.82l6.14-9.95-5.48-8.86c-.16-.27-.47-.58-.51-.82a2.15,2.15,0,0,0-1-.5v-2.3h6.42v2.3a3.28,3.28,0,0,0-1.44.5c-.12.24.12.55.27.82l3.85,6.72,3.93-6.72a1.48,1.48,0,0,0,.27-.82,4,4,0,0,0-1.44-.5v-2.3H357v2.3a2.08,2.08,0,0,0-1,.5,5.47,5.47,0,0,1-.54.82l-5.52,9,6.06,9.83a4.25,4.25,0,0,1,.59.82A2,2,0,0,0,357.6,184.88Z"/><path class="cls-1" d="M378.94,185.82a9.18,9.18,0,0,1-5.67,1.75c-4.24,0-6.57-2.61-6.26-6.22.27-3,2.91-5.13,5.36-6.53-.31-.78-.62-1.56-1-2.38-1.86-4.58.08-8.51,3.5-8.9,3.07-.39,5.13,1.52,5.6,4.47.31,3.23-1.44,5.68-4.67,7.31a43,43,0,0,0,3.77,6.73,8.38,8.38,0,0,0,.9-3.43,1.85,1.85,0,0,0-.16-.7,3.81,3.81,0,0,0-1.4-.38V175.9h5.79v1.75a7.21,7.21,0,0,0-1.94.39,1.64,1.64,0,0,0-.19.78,10.41,10.41,0,0,1-1.6,4.82,3,3,0,0,0,4.36.19l0,2.22C383,187.64,381,187.6,378.94,185.82Zm-4.39-.51a6.23,6.23,0,0,0,3-1,36.37,36.37,0,0,1-4.23-7.43c-1.33,1-2.69,2.3-2.92,3.74A3.66,3.66,0,0,0,374.55,185.31ZM374,171.36c.32.7.63,1.4.9,2.06a5,5,0,0,0,2.52-4.59c-.07-1.71-.85-3.15-2.09-3.11C373.46,165.8,372.76,168.29,374,171.36Z"/><path class="cls-1" d="M415.64,184.88v2.3h-7v-2.3a4.35,4.35,0,0,0,1.59-.5,1.9,1.9,0,0,0-.07-.9l-1.09-3.65h-7.78l-1.08,3.65a1.8,1.8,0,0,0-.08.9,4.49,4.49,0,0,0,1.59.5v2.3h-7v-2.3a3.39,3.39,0,0,0,1.37-.5c.11-.24.31-.59.42-.9l7.12-22.35h3l7.11,22.35c.12.31.31.66.39.9A3.76,3.76,0,0,0,415.64,184.88ZM408.29,177l-3.07-10.53L402.15,177Z"/><path class="cls-1" d="M418.87,174.12c0,6.14,3.15,10.26,6.88,10.26a8.44,8.44,0,0,0,5.32-2l1.48,2.53a10.67,10.67,0,0,1-6.8,2.65c-5.87,0-10.5-5.37-10.5-13.45s4.63-13.38,10.5-13.38a10,10,0,0,1,6.84,2.53v4.55H430.3a11.58,11.58,0,0,0-.51-2.64,6.65,6.65,0,0,0-4-1.25C422,163.93,418.87,168,418.87,174.12Z"/><path class="cls-1" d="M437.18,174.12c0,6.14,3.15,10.26,6.88,10.26a8.44,8.44,0,0,0,5.32-2l1.48,2.53a10.67,10.67,0,0,1-6.8,2.65c-5.87,0-10.5-5.37-10.5-13.45s4.63-13.38,10.5-13.38a10,10,0,0,1,6.84,2.53v4.55h-2.29a11.58,11.58,0,0,0-.51-2.64,6.65,6.65,0,0,0-4-1.25C440.33,163.93,437.18,168,437.18,174.12Z"/><path class="cls-1" d="M471.43,174.19c0,8-3.93,13.38-9.8,13.38s-9.76-5.37-9.76-13.45,3.93-13.38,9.76-13.38S471.43,166.11,471.43,174.19Zm-3.77,0c0-6.25-2.45-10.45-6-10.45s-6,4.16-6,10.38,2.41,10.45,6,10.45S467.66,180.41,467.66,174.19Z"/><path class="cls-1" d="M494.52,161.13v2.3a6.2,6.2,0,0,0-1.95.5,2.5,2.5,0,0,0-.19.94v13.79c0,5.33-3.34,8.91-8.9,8.91s-9-3.58-9-8.91V164.87a2.5,2.5,0,0,0-.19-.94,6.2,6.2,0,0,0-1.95-.5v-2.3h7.78v2.3a6.2,6.2,0,0,0-1.95.5,2.5,2.5,0,0,0-.19.94v13.79c0,3.54,1.94,5.87,5.48,5.87s5.4-2.33,5.4-5.87V164.87a2.5,2.5,0,0,0-.19-.94,6.2,6.2,0,0,0-1.95-.5v-2.3Z"/><path class="cls-1" d="M516.87,161.13v2.3a6,6,0,0,0-1.94.5,2.32,2.32,0,0,0-.2.94v22.31h-3.92L500.93,166v17.41a2.32,2.32,0,0,0,.2.94,6.12,6.12,0,0,0,1.94.5v2.3h-7.38v-2.3a6.12,6.12,0,0,0,1.94-.5,2.32,2.32,0,0,0,.2-.94V164.87a2.32,2.32,0,0,0-.2-.94,6.12,6.12,0,0,0-1.94-.5v-2.3H502l9.64,20.29V164.87a2.32,2.32,0,0,0-.19-.94,6.2,6.2,0,0,0-2-.5v-2.3Z"/><path class="cls-1" d="M536.11,166.73h-2.29a7.11,7.11,0,0,0-.5-2.18,2,2,0,0,0-.94-.23h-3.69v19.12a2.32,2.32,0,0,0,.2.94,6,6,0,0,0,1.94.5v2.3h-7.78v-2.3a6.12,6.12,0,0,0,2-.5,2.5,2.5,0,0,0,.19-.94V164.32h-3.77a1.89,1.89,0,0,0-.93.23,7.35,7.35,0,0,0-.51,2.18h-2.33v-5.6h18.46Z"/><path class="cls-1" d="M538.14,184.88a6,6,0,0,0,1.94-.5,2.32,2.32,0,0,0,.2-.94V164.87a2.32,2.32,0,0,0-.2-.94,6,6,0,0,0-1.94-.5v-2.3h7.77v2.3a6.12,6.12,0,0,0-1.94.5,2.32,2.32,0,0,0-.19.94v18.57a2.32,2.32,0,0,0,.19.94,6.12,6.12,0,0,0,1.94.5v2.3h-7.77Z"/><path class="cls-1" d="M569.74,161.13v2.3a6,6,0,0,0-1.94.5,2.32,2.32,0,0,0-.2.94v22.31h-3.92L553.8,166v17.41a2.32,2.32,0,0,0,.2.94,6.12,6.12,0,0,0,1.94.5v2.3h-7.38v-2.3a6.12,6.12,0,0,0,1.94-.5,2.32,2.32,0,0,0,.2-.94V164.87a2.32,2.32,0,0,0-.2-.94,6.12,6.12,0,0,0-1.94-.5v-2.3h6.33l9.64,20.29V164.87a2.32,2.32,0,0,0-.19-.94,6.12,6.12,0,0,0-1.94-.5v-2.3Z"/><path class="cls-1" d="M588.79,173.26v2.29a2.13,2.13,0,0,0-1,.51,3.28,3.28,0,0,0-.12.93v7.39a7.61,7.61,0,0,1-6.18,3.19c-6.64,0-10.57-5.37-10.57-13.45s3.93-13.38,10.57-13.38a8.82,8.82,0,0,1,6.14,2.22v4.66h-2.29a10.43,10.43,0,0,0-.5-2.64,4.69,4.69,0,0,0-3.35-1.2c-4.23,0-6.92,4-6.92,10.34s2.69,10.37,6.92,10.37a4.58,4.58,0,0,0,3.15-1.28V177a2.45,2.45,0,0,0-.23-.93,9.63,9.63,0,0,0-2.45-.51v-2.29Z"/><path class="cls-1" d="M602.87,174.12c0,6.14,3.14,10.26,6.88,10.26a8.44,8.44,0,0,0,5.32-2l1.48,2.53a10.67,10.67,0,0,1-6.8,2.65c-5.87,0-10.5-5.37-10.5-13.45s4.63-13.38,10.5-13.38a10,10,0,0,1,6.84,2.53v4.55h-2.3a11.16,11.16,0,0,0-.5-2.64,6.67,6.67,0,0,0-4-1.25C606,163.93,602.87,168,602.87,174.12Z"/><path class="cls-1" d="M637.11,174.19c0,8-3.92,13.38-9.79,13.38s-9.76-5.37-9.76-13.45,3.93-13.38,9.76-13.38S637.11,166.11,637.11,174.19Zm-3.77,0c0-6.25-2.45-10.45-6-10.45s-6,4.16-6,10.38,2.41,10.45,6,10.45S633.34,180.41,633.34,174.19Z"/><path class="cls-1" d="M658,185.39v2.06a10.18,10.18,0,0,1-3.65,0c-1.21-.82-2.06-3.27-3.15-6-1.21-3.07-1.79-4.74-4-4.74H644v6.8a2.32,2.32,0,0,0,.19.94,6.12,6.12,0,0,0,1.94.5v2.3h-7.77v-2.3a6,6,0,0,0,1.94-.5,2.32,2.32,0,0,0,.2-.94V164.87a2.32,2.32,0,0,0-.2-.94,6,6,0,0,0-1.94-.5v-2.3h9.48c5,0,8.09,3,8.09,7.66a7.16,7.16,0,0,1-4.16,7,11.11,11.11,0,0,1,2.49,4.2C655.81,184,656.47,185.39,658,185.39Zm-10.19-11.62c2.69,0,4.28-1.75,4.28-4.67s-1.59-4.78-4.28-4.78H644v9.45Z"/><path class="cls-1" d="M675.83,169.33c0,4.94-3.3,8.36-9.32,8.36H664v5.75a2.5,2.5,0,0,0,.19.94,6.2,6.2,0,0,0,1.95.5v2.3h-7.78v-2.3a6.2,6.2,0,0,0,2-.5,2.5,2.5,0,0,0,.19-.94V164.87a2.5,2.5,0,0,0-.19-.94,6.2,6.2,0,0,0-2-.5v-2.3h8.13C672.53,161.13,675.83,164.36,675.83,169.33Zm-3.69.28c0-3.23-1.9-5.29-5.63-5.29H664v10.34h2.49C670.24,174.66,672.14,172.87,672.14,169.61Z"/><path class="cls-1" d="M673,184.92a2.28,2.28,0,1,1,2.29,2.26A2.26,2.26,0,0,1,673,184.92Z"/><path d="M273.58,113.53c0,22.61-9.22,30.79-16.13,36.69-6.49,5.54-11.39,6.8-18.51,6.8-3.48,0-11.86-2.84-11.86-8.54,0-3.48,4.74-6.8,7-6.8a6.14,6.14,0,0,1,6.28,4,7,7,0,0,0,6.37,4.19c5.22,0,13.45-4.42,13.45-32.89V47.09c0-13.12-2.69-13.91-15.35-14.39-.94-1-.94-4.27,0-5.22,7.91.16,16.25.32,22,.32,6.12,0,13-.16,19-.32.95.95.95,4.27,0,5.22-9.49.48-12.18,1.27-12.18,14.39Z"/><path d="M357.09,62c1-1,4.27-1,5.22,0-.16,3.8-.31,9.18-.31,13.61,0,5.42.15,9.8.31,13.91-.95,1-4.27,1-5.22,0-.47-7.11-.95-10.75-14.39-10.75H328.31v35c0,7.44,2.21,10,8.85,10h18.35c12,0,17.56-9.33,20.72-20.72a7.3,7.3,0,0,1,5.54.79,253.73,253.73,0,0,1-5.86,26.41s-12.65-.31-20.24-.31h-34c-5.22,0-14.71.16-20.56.31-1-.95-1-4.27,0-5.22,11.07-.47,13.76-1.26,13.76-14.39V47.09c0-13.12-2.69-13.91-13.76-14.39-1-1-1-4.27,0-5.22,6.33.16,15.58.32,20.4.32h40.34a35.17,35.17,0,0,0,7.75-.64c.47,0,.63.16.63.48.32,1.26,2.69,16.45,3.48,22.93a8.8,8.8,0,0,1-5.22.8c-3.48-10.92-6-17.25-17.87-17.25H338.75c-8.55,0-10.44,3.17-10.44,10.13V72.72H342.7C356.14,72.72,356.62,70.66,357.09,62Z"/><path d="M445.19,62c.95-1,4.27-1,5.22,0-.16,3.8-.32,9.18-.32,13.61,0,5.42.16,9.8.32,13.91-1,1-4.27,1-5.22,0-.47-7.11-.95-10.75-14.39-10.75H416.4v35c0,7.44,2.22,10,8.86,10h18.35c12,0,17.56-9.33,20.72-20.72a7.3,7.3,0,0,1,5.54.79A253.73,253.73,0,0,1,464,130.13s-12.65-.31-20.24-.31h-34c-5.22,0-14.71.16-20.56.31-.95-.95-.95-4.27,0-5.22,11.07-.47,13.76-1.26,13.76-14.39V47.09C403,34,400.27,33.18,389.2,32.7c-.95-1-.95-4.27,0-5.22,6.33.16,15.58.32,20.4.32h40.34a35.17,35.17,0,0,0,7.75-.64c.47,0,.63.16.63.48.32,1.26,2.69,16.45,3.48,22.93a8.8,8.8,0,0,1-5.22.8c-3.48-10.92-6-17.25-17.87-17.25H426.84c-8.54,0-10.44,3.17-10.44,10.13V72.72h14.4C444.24,72.72,444.72,70.66,445.19,62Z"/><path d="M501.66,87.74c0,10.28.31,22.31,8.06,29.74a26.76,26.76,0,0,0,18.82,7.43c26.74,0,29.11-21.19,29.11-38.91V47.09c0-12.81-2.69-13.28-14.55-14.39-1-1-1-4.27,0-5.22,7.27.16,14.94.32,18.34.32,3.67,0,10.13-.16,16.14-.32.95.95.95,4.27,0,5.22-9.49,1.11-12.18,1.69-12.18,14.39V83.16c0,28.15-7.75,48.24-40.18,48.24-16.21,0-37-6.17-37-38.44V47.09c0-13.12-2.69-13.91-12.18-14.39-.95-1-.95-4.27,0-5.22,6.17.16,12.66.32,18.82.32s13.92-.16,21.36-.32c.95.95.95,4.27,0,5.22C504,33.18,501.66,34,501.66,47.09Z"/><path d="M679.75,45.35h-.31L643.85,129c-.63,1.26-1.27,2.37-2.22,2.37s-1.93-1.25-2.37-2.37L606.52,46.94h-.32l-6,63.42c-.85,8.91,0,13.76,10.44,14.55,1,1,1,4.27,0,5.22-4.74-.15-11.07-.31-14.87-.31s-8.85.16-13.6.31c-.95-.95-.95-4.27,0-5.22,9-.79,10.92-4.76,11.85-14.23l6.34-65.17c1.11-11.86.16-12.18-10.75-12.81-1-1-1-4.27,0-5.22l22.93.32L645,108.15c.49,1.2.94,2,1.26,2s.79-.63,1.43-2.21L681.18,27.8l20.72-.32c1,.95,1,4.27,0,5.22-10.76.63-11.55,2.85-10.87,11.39l4.71,66.59c.92,13.09,1.41,13.76,12.17,14.23,1,1,1,4.27,0,5.22-5.25-.15-12.5-.31-17.24-.31s-11.08.16-16.93.31c-1-.95-1-4.27,0-5.22,10.28-.47,10.87-.63,10.08-13.44Z"/><path class="cls-2" d="M150.52,8.52V206H8.52V8.52h142M159,0H0V214.5H159V0Z"/><path class="cls-2" d="M114.44,74a.51.51,0,0,0,.46.19h.57a33.56,33.56,0,0,0,4-.29l2.63-.26c4.7-.4,8.13-.59,10.77-.59a34.17,34.17,0,0,1,5.88.44,15.3,15.3,0,0,1,4,1.32V16.39H58.23a14.79,14.79,0,0,1,2.84,2.34c.4.64.62,4.22.32,7.88h0a1.71,1.71,0,0,0,1.4,1.7l1.11.35A40.6,40.6,0,0,1,67.77,30l.48.21c1.94.82,5.18,2.19,6.85,3.64a3,3,0,0,1,1,3.31,3.14,3.14,0,0,1-3.15,1.9h-.28c-2.85-.16-6.69-2.87-8.76-4.33l-.57-.41a4.38,4.38,0,0,0-2-1,1.21,1.21,0,0,0-.57.16,2.58,2.58,0,0,0-.88.95c-.22.67-.46,1.31-.72,1.9C55.83,44,51.89,48.85,47.41,50.9a15.11,15.11,0,0,1-6.1,1.16c-2.39,0-5.25-.49-6.08-1.88a1.7,1.7,0,0,1,0-1.73A26.59,26.59,0,0,1,37.91,45,124.73,124.73,0,0,0,49.1,29.94c2.69-4.32,4.2-11.19,3.58-12.1a10.76,10.76,0,0,1-.75-1.45H16.39V73.83a7.16,7.16,0,0,0,1.47.47,11.6,11.6,0,0,0,2.2.2c3.58,0,7.58-1.37,10.23-2.27l.89-.3c3.59-1.2,14.59-5,19.21-6.91.54-.22,1.08-.44,1.62-.68a5.92,5.92,0,0,1,.39-1.21c.25-.64.4-1.06.23-1.46-.08-.18-.17-.35-.25-.51-.68-1.34-1-2.45.57-5.54,1.49-2.87,6.38-7.16,10.26-9a9.23,9.23,0,0,1,4-1.13,9.4,9.4,0,0,1,2.28.35c.49.11,1,.23,1.6.33,3.15.53,4.1.81,4.8,1.82a7.42,7.42,0,0,1,.73,3.09c0,.5.1,1,.17,1.39a12.38,12.38,0,0,0,.33,1.3,7.07,7.07,0,0,1,.4,2.82c-.27,2.38-4.4,5.19-6.79,6.48a70.7,70.7,0,0,1-6.68,3.14l-.08,0c-.7.36-1.08.63-1.12.78,0,0,.12.35,1.42.87,2,.79,5.3,2.2,8.26,3.44,2.31,1,4.32,1.83,5,2.11,3.38,1.33,5.6,2.59,6.8,3.87,1.51,1.59,1.71,2.82,1.62,3.57a2,2,0,0,1-.9,1.48,3.72,3.72,0,0,1-2.08.56,9.59,9.59,0,0,1-3.38-.8L79.4,82c-2.26-.85-5.59-2.64-11.13-6l-1.35-.83c-1-.63-2.24-1.4-3.81-2.32L63,72.83a53.82,53.82,0,0,1,5.22,7.29,14.17,14.17,0,0,1,1.87,7.64c-.25,2-1.61,5.94-7.84,10.16A171.64,171.64,0,0,1,38.9,110.13l-.12.05c-7.83,3.07-16.15,6.21-18.55,6.21H20a5.48,5.48,0,0,0-.7,0,13.25,13.25,0,0,0-2.88.4v81.38h86a14.21,14.21,0,0,1-.09-3.43,10.12,10.12,0,0,0,0-2.06c-.06-.78-.15-1.95-.21-4.23-.12-4.86.82-6.61,1.71-7.88a10.37,10.37,0,0,0,1.09-3.13c0-.1-.12-.26-.19-.32a5.94,5.94,0,0,1-1.32-1,2.89,2.89,0,0,0-1.14-.7,7,7,0,0,1-1.63-.92,1.06,1.06,0,0,1-.49-1.21c.18-.53.77-1,3.8-1,.77,0,1.59,0,2.44.1a137.56,137.56,0,0,1,9-19.88,69.06,69.06,0,0,1,9-11.09,17.25,17.25,0,0,0,2.7-2.8,10.29,10.29,0,0,0-1.83.57c-1.23.42-3.89,1.48-7.25,2.83s-7.13,2.86-10.83,4.28c-7.83,3-34,13.08-41.58,16.88-3.72,1.86-7.37,3.74-10.58,5.4s-6.17,3.18-7.9,4a24.61,24.61,0,0,1-7.48,2.44,9.61,9.61,0,0,1-1.8.15c-2.44,0-6.49-.72-7.64-2.69a1.84,1.84,0,0,1-.21-1.59c.46-1.3,2.46-2.07,6.1-3.46l2.55-1c2.64-1.05,7.21-2.7,12.5-4.61,6.88-2.49,14.68-5.31,20.61-7.65C82.58,149.76,98.51,140,106,134.88c8.71-6,12.6-12,13.09-14.58.25-1.29-.46-2.31-2.29-3.31l-.09,0c-1-.53-1.77-1-1.8-1.71a1.2,1.2,0,0,1,.64-1.06c1-.66,3.86-1,4.46-1.09l.62,0c1.47,0,2.07.48,4.29,2.28l.39.32c1.78,1.44,1.51,3,.91,5.38-.69,2.8-5.86,9-8.81,12.14a36.09,36.09,0,0,1-8.6,7.35l-.1.06c-.19.12-.37.23-.52.34,3.51-1.28,10.24-4,15.78-6.36a35.34,35.34,0,0,1,7.85-2.27,20.75,20.75,0,0,0,3.45-.84,4.44,4.44,0,0,0,1.5-.8,8.27,8.27,0,0,1,1.21-.76,4.9,4.9,0,0,1,2.2-.43,10,10,0,0,1,2.49.33V79.49c-2-.11-5.46-.18-8.85-.18-1.87,0-3.5,0-4.71.06-4,.14-11.69,1-14.23,1.31a4.75,4.75,0,0,1-.54,0,7.24,7.24,0,0,1-6.88-7.43,12.34,12.34,0,0,1,1.93-5.35c.88-1.43,4.34-6.32,5.34-7.68a7,7,0,0,0,.91-1.45.31.31,0,0,0-.18-.07,6.85,6.85,0,0,0-2.14,1.09c-1.85,1.15-10.07,7.1-11.13,8.05-.56.49-.51,2.07-.34,3,1,3.66,1,5.53.87,6.32a1.4,1.4,0,0,1-1.38,1.35,3.23,3.23,0,0,1-1.86-.84c-.17-.13-4.19-3.3-5.71-6.3A28.39,28.39,0,0,1,91.52,65L91,63.16a44.84,44.84,0,0,0-2.15-7c-1.31-2.87-1.36-3.75-1-4.3a1,1,0,0,1,.88-.46,1.89,1.89,0,0,1,.39.05c1.25.3,4.37,2.76,6,5a30.67,30.67,0,0,1,2,3h0l.31.55c.11.19.44.77.61.82a.2.2,0,0,0,.09-.05c.8-.58,6.44-4.18,10.07-6.36l.24-.14c3-1.78,5.1-3.06,7-3.06a3.72,3.72,0,0,1,1.41.26A15.31,15.31,0,0,1,123,56.79c1.2,2.1-.1,3.83-1.47,5.67s-5.93,8.89-6.92,10.53A1.14,1.14,0,0,0,114.44,74Zm2.11,32.85a6,6,0,0,1-2.68,5c-.51.33-1.36.82-2.42,1.45a95.47,95.47,0,0,0-11.84,7.81,76.27,76.27,0,0,0-8.6,8.75L89.35,132c-1.26,1.61-2.57,3.28-3,3.91-.53.84-1,1.49-1.65,1.49-.35,0-.82-.18-1.09-1-1-3.18-.46-4.4.28-6.09l.09-.21a72.3,72.3,0,0,1,4.35-7c.42-.61.73-1.07.85-1.27l0,0a5.77,5.77,0,0,0-.56.2,29.35,29.35,0,0,1-4.92,1.39,3.9,3.9,0,0,1-.58,0,3.16,3.16,0,0,1-2.72-1.7,19.08,19.08,0,0,0-2.52-3.4l-.06-.06c-.61-.63-1.18-1.3-.9-2,.11-.26.39-.58,1.13-.58,1.18,0,3,0,3.32,0,5.07-.74,10.18-3.72,14.28-6.11,1.7-1,3.16-1.84,4.4-2.41l.73-.34c3-1.41,5.06-2.34,9.22-2.49.32,0,.62,0,.91,0C115.83,104.35,116.55,105.92,116.55,106.85ZM89.48,90.78a39.87,39.87,0,0,1,7.84-2.07c.34,0,.67-.08,1-.12a19.23,19.23,0,0,1,2.57-.21,12.06,12.06,0,0,1,2.42.25c2.53.5,7.67,6.17,8.27,6.83a4.86,4.86,0,0,1-.09,6.22,3.86,3.86,0,0,1-3.21,1.64,10.06,10.06,0,0,1-1.83-.22l-.78-.14a18.12,18.12,0,0,1-1.8-.38,12.56,12.56,0,0,0-3-.51,5.61,5.61,0,0,0-1,.09,19.26,19.26,0,0,1-3.63.44,6.59,6.59,0,0,1-2.6-.48,8.17,8.17,0,0,1-1-.53,19.26,19.26,0,0,0-2.29-1.15c-2.44-1-6.46-4.52-7-6.38a1,1,0,0,1,.12-.82c.61-1,3.1-1.57,3.6-1.67S88.43,91.14,89.48,90.78Z"/><path class="cls-2" d="M70.75,52.55c.54-1.19.8-2.42-1.55-2.46C66.06,50,64.1,52,62.08,53.75c-3.57,3-5.15,6-5.15,7.24a2.94,2.94,0,0,0,.54,1.58c2.65-1.27,5.16-2.58,7.16-3.71A17.69,17.69,0,0,0,70.75,52.55Z"/><path class="cls-2" d="M57,72.94l-1-1.25c-.52-.64-1-1.23-1.4-1.78C49.89,71.7,45.29,73.65,42.21,75l-2.7,1.13-1.46.61c-4.81,2-9,3.75-14.18,3.75h-.62a11.69,11.69,0,0,1-6.86-2.39v34.33l.5-.24c.57-.27,1.17-.55,1.79-.86,1.44-.69,3.25-1.51,5.35-2.46,4.16-1.88,9.34-4.21,14.21-6.76,11.28-5.88,18.82-10.45,23-13.95,1.66-1.38,2.62-2.93,1.85-6C62.49,79.52,59.18,75.56,57,72.94Z"/><path class="cls-2" d="M138.11,140.05c-4.29,1.9-10,6.63-11.8,8.64a66.79,66.79,0,0,0-8.64,13c-1.57,3-3.85,7.9-5.55,12,2.68,1,6.08,2.5,7,3.68,1.44,1.85-.94,5.36-1.21,5.76a1.9,1.9,0,0,1-1.6.87,2.4,2.4,0,0,1-1.26-.38c-.94-.65-1.75-1.17-2.47-1.62-.41-.26-.78-.49-1.1-.71s-.93-.57-1.73-1.06a21.29,21.29,0,0,0-.28,5.78,21.23,21.23,0,0,1-.25,3.78,47.35,47.35,0,0,0-.44,6.42c0,.61,0,1.27,0,1.93h33.91V139A12.91,12.91,0,0,0,138.11,140.05ZM134,182.45c-.36,3.11-2,6.14-3.35,8.48-1.57,2.73-4.12,4.18-8.89,4.53a10.88,10.88,0,0,1-8.24-2.74c-.72-.6-1.19-1.31,0-1.55a16.05,16.05,0,0,0,4.75-1.79c1.8-1.15,4.56-3.47,6.59-4.9s3.31-3.11,3.7-6.56c.52-4.62-2-5.43-3.22-6a21.73,21.73,0,0,1-4-1.94,12.13,12.13,0,0,1-2.93-3.25c-.53-1,2.15-.72,2.15-.72a33.62,33.62,0,0,0,3.58.18c1.57,0,3.86.44,4.58,1.33,1.07,1.34,3.54,3,4.62,5.41S134.34,179.35,134,182.45Z"/></g></g></svg>