<svg xmlns="http://www.w3.org/2000/svg" viewBox="0 0 770.22 214.5"><defs><style>.cls-1{fill:#032d6b;}.cls-2{fill:#26282b;}</style></defs><g id="Layer_2" data-name="Layer 2"><g id="레이어_1" data-name="레이어 1"><path class="cls-1" d="M150.52,8.52V206H8.52V8.52h142M159,0H0V214.5H159V0Z"/><path class="cls-1" d="M114.44,74a.51.51,0,0,0,.46.19h.57a33.56,33.56,0,0,0,4-.29l2.63-.26c4.7-.4,8.13-.59,10.77-.59a34.17,34.17,0,0,1,5.88.44,15.3,15.3,0,0,1,4,1.32V16.39H58.23a14.79,14.79,0,0,1,2.84,2.34c.4.64.62,4.22.32,7.88h0a1.71,1.71,0,0,0,1.4,1.7l1.11.35A40.6,40.6,0,0,1,67.77,30l.48.21c1.94.82,5.18,2.19,6.85,3.64a3,3,0,0,1,1,3.31,3.14,3.14,0,0,1-3.15,1.9h-.28c-2.85-.16-6.69-2.87-8.76-4.33l-.57-.41a4.38,4.38,0,0,0-2-1,1.21,1.21,0,0,0-.57.16,2.58,2.58,0,0,0-.88.95c-.22.67-.46,1.31-.72,1.9C55.83,44,51.89,48.85,47.41,50.9a15.11,15.11,0,0,1-6.1,1.16c-2.39,0-5.25-.49-6.08-1.88a1.7,1.7,0,0,1,0-1.73A26.59,26.59,0,0,1,37.91,45,124.73,124.73,0,0,0,49.1,29.94c2.69-4.32,4.2-11.19,3.58-12.1a10.76,10.76,0,0,1-.75-1.45H16.39V73.83a7.16,7.16,0,0,0,1.47.47,11.6,11.6,0,0,0,2.2.2c3.58,0,7.58-1.37,10.23-2.27l.89-.3c3.59-1.2,14.59-5,19.21-6.91.54-.22,1.08-.44,1.62-.68a5.92,5.92,0,0,1,.39-1.21c.25-.64.4-1.06.23-1.46-.08-.18-.17-.35-.25-.51-.68-1.34-1-2.45.57-5.54,1.49-2.87,6.38-7.16,10.26-9a9.23,9.23,0,0,1,4-1.13,9.4,9.4,0,0,1,2.28.35c.49.11,1,.23,1.6.33,3.15.53,4.1.81,4.8,1.82a7.42,7.42,0,0,1,.73,3.09c0,.5.1,1,.17,1.39a12.38,12.38,0,0,0,.33,1.3,7.07,7.07,0,0,1,.4,2.82c-.27,2.38-4.4,5.19-6.79,6.48a70.7,70.7,0,0,1-6.68,3.14l-.08,0c-.7.36-1.08.63-1.12.78,0,0,.12.35,1.42.87,2,.79,5.3,2.2,8.26,3.44,2.31,1,4.32,1.83,5,2.11,3.38,1.33,5.6,2.59,6.8,3.87,1.51,1.59,1.71,2.82,1.62,3.57a2,2,0,0,1-.9,1.48,3.72,3.72,0,0,1-2.08.56,9.59,9.59,0,0,1-3.38-.8L79.4,82c-2.26-.85-5.59-2.64-11.13-6l-1.35-.83c-1-.63-2.24-1.4-3.81-2.32L63,72.83a53.82,53.82,0,0,1,5.22,7.29,14.17,14.17,0,0,1,1.87,7.64c-.25,2-1.61,5.94-7.84,10.16A171.64,171.64,0,0,1,38.9,110.13l-.12.05c-7.83,3.07-16.15,6.21-18.55,6.21H20a5.48,5.48,0,0,0-.7,0,13.25,13.25,0,0,0-2.88.4v81.38h86a14.21,14.21,0,0,1-.09-3.43,10.12,10.12,0,0,0,0-2.06c-.06-.78-.15-1.95-.21-4.23-.12-4.86.82-6.61,1.71-7.88a10.37,10.37,0,0,0,1.09-3.13c0-.1-.12-.26-.19-.32a5.94,5.94,0,0,1-1.32-1,2.89,2.89,0,0,0-1.14-.7,7,7,0,0,1-1.63-.92,1.06,1.06,0,0,1-.49-1.21c.18-.53.77-1,3.8-1,.77,0,1.59,0,2.44.1a137.56,137.56,0,0,1,9-19.88,69.06,69.06,0,0,1,9-11.09,17.25,17.25,0,0,0,2.7-2.8,10.29,10.29,0,0,0-1.83.57c-1.23.42-3.89,1.48-7.25,2.83s-7.13,2.86-10.83,4.28c-7.83,3-34,13.08-41.58,16.88-3.72,1.86-7.37,3.74-10.58,5.4s-6.17,3.18-7.9,4a24.61,24.61,0,0,1-7.48,2.44,9.61,9.61,0,0,1-1.8.15c-2.44,0-6.49-.72-7.64-2.69a1.84,1.84,0,0,1-.21-1.59c.46-1.3,2.46-2.07,6.1-3.46l2.55-1c2.64-1.05,7.21-2.7,12.5-4.61,6.88-2.49,14.68-5.31,20.61-7.65C82.58,149.76,98.51,140,106,134.88c8.71-6,12.6-12,13.09-14.58.25-1.29-.46-2.31-2.29-3.31l-.09,0c-1-.53-1.77-1-1.8-1.71a1.2,1.2,0,0,1,.64-1.06c1-.66,3.86-1,4.46-1.09l.62,0c1.47,0,2.07.48,4.29,2.28l.39.32c1.78,1.44,1.51,3,.91,5.38-.69,2.8-5.86,9-8.81,12.14a36.09,36.09,0,0,1-8.6,7.35l-.1.06c-.19.12-.37.23-.52.34,3.51-1.28,10.24-4,15.78-6.36a35.34,35.34,0,0,1,7.85-2.27,20.75,20.75,0,0,0,3.45-.84,4.44,4.44,0,0,0,1.5-.8,8.27,8.27,0,0,1,1.21-.76,4.9,4.9,0,0,1,2.2-.43,10,10,0,0,1,2.49.33V79.49c-2-.11-5.46-.18-8.85-.18-1.87,0-3.5,0-4.71.06-4,.14-11.69,1-14.23,1.31a4.75,4.75,0,0,1-.54,0,7.24,7.24,0,0,1-6.88-7.43,12.34,12.34,0,0,1,1.93-5.35c.88-1.43,4.34-6.32,5.34-7.68a7,7,0,0,0,.91-1.45.31.31,0,0,0-.18-.07,6.85,6.85,0,0,0-2.14,1.09c-1.85,1.15-10.07,7.1-11.13,8.05-.56.49-.51,2.07-.34,3,1,3.66,1,5.53.87,6.32a1.4,1.4,0,0,1-1.38,1.35,3.23,3.23,0,0,1-1.86-.84c-.17-.13-4.19-3.3-5.71-6.3A28.39,28.39,0,0,1,91.52,65L91,63.16a44.84,44.84,0,0,0-2.15-7c-1.31-2.87-1.36-3.75-1-4.3a1,1,0,0,1,.88-.46,1.89,1.89,0,0,1,.39.05c1.25.3,4.37,2.76,6,5a30.67,30.67,0,0,1,2,3h0l.31.55c.11.19.44.77.61.82a.2.2,0,0,0,.09-.05c.8-.58,6.44-4.18,10.07-6.36l.24-.14c3-1.78,5.1-3.06,7-3.06a3.72,3.72,0,0,1,1.41.26A15.31,15.31,0,0,1,123,56.79c1.2,2.1-.1,3.83-1.47,5.67s-5.93,8.89-6.92,10.53A1.14,1.14,0,0,0,114.44,74Zm2.11,32.85a6,6,0,0,1-2.68,5c-.51.33-1.36.82-2.42,1.45a95.47,95.47,0,0,0-11.84,7.81,76.27,76.27,0,0,0-8.6,8.75L89.35,132c-1.26,1.61-2.57,3.28-3,3.91-.53.84-1,1.49-1.65,1.49-.35,0-.82-.18-1.09-1-1-3.18-.46-4.4.28-6.09l.09-.21a72.3,72.3,0,0,1,4.35-7c.42-.61.73-1.07.85-1.27l0,0a5.77,5.77,0,0,0-.56.2,29.35,29.35,0,0,1-4.92,1.39,3.9,3.9,0,0,1-.58,0,3.16,3.16,0,0,1-2.72-1.7,19.08,19.08,0,0,0-2.52-3.4l-.06-.06c-.61-.63-1.18-1.3-.9-2,.11-.26.39-.58,1.13-.58,1.18,0,3,0,3.32,0,5.07-.74,10.18-3.72,14.28-6.11,1.7-1,3.16-1.84,4.4-2.41l.73-.34c3-1.41,5.06-2.34,9.22-2.49.32,0,.62,0,.91,0C115.83,104.35,116.55,105.92,116.55,106.85ZM89.48,90.78a39.87,39.87,0,0,1,7.84-2.07c.34,0,.67-.08,1-.12a19.23,19.23,0,0,1,2.57-.21,12.06,12.06,0,0,1,2.42.25c2.53.5,7.67,6.17,8.27,6.83a4.86,4.86,0,0,1-.09,6.22,3.86,3.86,0,0,1-3.21,1.64,10.06,10.06,0,0,1-1.83-.22l-.78-.14a18.12,18.12,0,0,1-1.8-.38,12.56,12.56,0,0,0-3-.51,5.61,5.61,0,0,0-1,.09,19.26,19.26,0,0,1-3.63.44,6.59,6.59,0,0,1-2.6-.48,8.17,8.17,0,0,1-1-.53,19.26,19.26,0,0,0-2.29-1.15c-2.44-1-6.46-4.52-7-6.38a1,1,0,0,1,.12-.82c.61-1,3.1-1.57,3.6-1.67S88.43,91.14,89.48,90.78Z"/><path class="cls-1" d="M70.75,52.55c.54-1.19.8-2.42-1.55-2.46C66.06,50,64.1,52,62.08,53.75c-3.57,3-5.15,6-5.15,7.24a2.94,2.94,0,0,0,.54,1.58c2.65-1.27,5.16-2.58,7.16-3.71A17.69,17.69,0,0,0,70.75,52.55Z"/><path class="cls-1" d="M57,72.94l-1-1.25c-.52-.64-1-1.23-1.4-1.78C49.89,71.7,45.29,73.65,42.21,75l-2.7,1.13-1.46.61c-4.81,2-9,3.75-14.18,3.75h-.62a11.69,11.69,0,0,1-6.86-2.39v34.33l.5-.24c.57-.27,1.17-.55,1.79-.86,1.44-.69,3.25-1.51,5.35-2.46,4.16-1.88,9.34-4.21,14.21-6.76,11.28-5.88,18.82-10.45,23-13.95,1.66-1.38,2.62-2.93,1.85-6C62.49,79.52,59.18,75.56,57,72.94Z"/><path class="cls-1" d="M138.11,140.05c-4.29,1.9-10,6.63-11.8,8.64a66.79,66.79,0,0,0-8.64,13c-1.57,3-3.85,7.9-5.55,12,2.68,1,6.08,2.5,7,3.68,1.44,1.85-.94,5.36-1.21,5.76a1.9,1.9,0,0,1-1.6.87,2.4,2.4,0,0,1-1.26-.38c-.94-.65-1.75-1.17-2.47-1.62-.41-.26-.78-.49-1.1-.71s-.93-.57-1.73-1.06a21.29,21.29,0,0,0-.28,5.78,21.23,21.23,0,0,1-.25,3.78,47.35,47.35,0,0,0-.44,6.42c0,.61,0,1.27,0,1.93h33.91V139A12.91,12.91,0,0,0,138.11,140.05ZM134,182.45c-.36,3.11-2,6.14-3.35,8.48-1.57,2.73-4.12,4.18-8.89,4.53a10.88,10.88,0,0,1-8.24-2.74c-.72-.6-1.19-1.31,0-1.55a16.05,16.05,0,0,0,4.75-1.79c1.8-1.15,4.56-3.47,6.59-4.9s3.31-3.11,3.7-6.56c.52-4.62-2-5.43-3.22-6a21.73,21.73,0,0,1-4-1.94,12.13,12.13,0,0,1-2.93-3.25c-.53-1,2.15-.72,2.15-.72a33.62,33.62,0,0,0,3.58.18c1.57,0,3.86.44,4.58,1.33,1.07,1.34,3.54,3,4.62,5.41S134.34,179.35,134,182.45Z"/><path class="cls-2" d="M611.09,77.9c11,8.82,16.78,11.4,17.85,12.91a9.62,9.62,0,0,1,1.83,8.82,4.53,4.53,0,0,1-6.78,1.18c-3-2.58-13.44-14.52-16.67-18.5-10.1,10.65-23.23,19.36-33.66,23.45-3,1.18-3-3.77-1.61-4.52,10.75-5.7,31.51-26.24,37.21-42a155.77,155.77,0,0,0-25,2c-1.08.22-4.84-2.36-6.24-4.51-2.26-3.55-1.4-6,0-5.81a109.8,109.8,0,0,0,30.65,0,31.37,31.37,0,0,0,4.52-1.08c2.9-.75,10.65,2.58,11.18,4.09s-1.29,2.58-2.9,6.45A56,56,0,0,1,611.09,77.9Zm43.23,45.71c.11,6.13-6.23,9.36-9.57,9.36a2,2,0,0,1-2-2.05c.64-16.45.75-70.44,0-89-.22-6-2.05-9.35-3.77-10.86-1.29-1.07-.1-4.09,2.91-3.76,3.65.43,13.33,3.76,13,5.37a61.12,61.12,0,0,0-.54,7.1C653.68,58.65,654,110.92,654.32,123.61Z"/><path class="cls-2" d="M769.73,80.48c1.18,2.26.1,6.35-1.72,6-7.1-1.08-22.59-1.4-28.72-1.4-7.53,0-35.81.86-43.34,1.29-4,.21-12.48,1.18-16.67,1.93-1.4.22-5.38-2.68-7.1-5.37-2.58-4-1.72-7.21.11-6.67,4.62,1.4,17.21,2.37,23.66,2.37,8.39,0,34.41-.33,42.91-.87,14.63-1.07,18.71-1.93,22.16-2.36S768.65,78.44,769.73,80.48Zm-74.21,25.6c-.22-4.52-2.69-6.24-3.66-7.31-1.18-1.4,0-4,1.51-4.09a81.57,81.57,0,0,1,12.9,1.18,157.67,157.67,0,0,0,26.57-.54A29.67,29.67,0,0,0,737.36,94c2.9-.86,10.64,1.94,11.07,3.45.22.86-.54,2.25-1.18,6-.43,2.26-1.61,14.52-1.94,17.74,0,.33,2.26,1.83,2.91,2.48,1.07,1.07.53,5.59-3.12,5.81-2.15.1-30.87.1-38.4.43-1.5,2.79-9.57,3.22-9.68,1.72Zm24.2-74.32c14,0,24.95,6.24,24.95,19.69s-11,19.68-24.95,19.68-25-6.24-25-19.68S705.74,31.76,719.72,31.76Zm0,7.1c-8.39,0-13.45,5-13.45,12.59S711.33,64,719.72,64s13.44-5,13.44-12.58S728.11,38.86,719.72,38.86Zm-13,64.42.22,19.47c6.56.21,25.27.11,27-.22a1.94,1.94,0,0,0,1.62-1.72c.21-1.5.21-16.13.21-18C732.19,102.75,714.34,103,706.7,103.28Z"/><path class="cls-2" d="M246.21,64.88a5.75,5.75,0,0,0-1.4-5.29c-.66-1,.66-2.49,2.81-2.07s7.61,3.14,8.94,4.55a1.21,1.21,0,0,1,.24,1.16,50.62,50.62,0,0,1-6.37,13.48c5.13,5.05,10.43,8.36,11.26,9.6a8.17,8.17,0,0,1,.74,7.28c-.91,1.57-4.05,2.32-5.54.41-1.82-2.15-6.7-9.59-9.1-13.4-5.22,7-12.16,13.49-19.78,16.13-2.48.91-2.15-2.89-1.24-3.39C235.46,87.55,244.81,73.07,246.21,64.88Zm24.16,12.41a62.31,62.31,0,0,0-7.44,2.56c-.75.42-3.73-1.4-4.8-3.06-1.82-2.48-1.33-4.63-.25-4.38,3.72.66,9.27.33,12.49,0,0-6.62-.08-12.41-.25-16-.16-4.3-1.4-6.7-2.73-7.69-.91-.75,0-3.06,2.07-2.82,2.57.34,9.52,2.65,9.27,3.81a40.23,40.23,0,0,0-.41,5c-.42,10.92-.25,42.19,0,51.21.08,4.38-4.47,6.7-6.79,6.7a1.42,1.42,0,0,1-1.49-1.49C270.29,104.59,270.46,90.2,270.37,77.29Zm15-28c-.17-4.39-1.49-6.87-2.82-7.95-.91-.74,0-3.06,2.16-2.81,2.64.33,9.76,2.73,9.51,3.89a42.12,42.12,0,0,0-.41,5.21c-.42,13.82-.25,53.61,0,65.36.08,4.39-4.55,6.7-7,6.7a1.38,1.38,0,0,1-1.49-1.4C285.76,104.43,285.84,63.14,285.35,49.33Z"/><path class="cls-2" d="M339,88.13c-6.12.25-11.83.41-14.4.58-3.06.16-9.59.91-12.82,1.49-1.07.16-4.14-2.07-5.46-4.14-2-3.06-1.32-5.54.08-5.13,3.56,1.08,13.24,1.82,18.2,1.82,6.46,0,26.48-.25,33-.66,11.25-.83,14.39-1.49,17-1.82s5.87,2.32,6.7,3.89c.91,1.73.08,4.88-1.32,4.63-5.46-.83-17.38-1.08-22.09-1.08-2.07,0-6.13.09-10.68.25-.08,7.86.09,19,.25,24.74.08,4.72-4.8,7.2-7.36,7.2a1.46,1.46,0,0,1-1.57-1.57C338.88,113.44,339,96.65,339,88.13ZM322.33,54.46a7.62,7.62,0,0,0-2.81-5.63,2.06,2.06,0,0,1,1.16-3.14c1.9-.09,9.43.58,10.17,1,4.47.25,17.21-.17,20.6-.5a23.57,23.57,0,0,0,3.48-1c2.23-.66,9.43,1.49,9.76,2.65.17.66-.58,1.73-1.32,4.63-.42,1.74-1.58,12.66-1.82,15.14,0,.25,1.73,1.41,2.23,1.9.83.83.41,4.31-2.4,4.47-1.65.08-24.49.17-30.44.33-1.16,2.24-7.37,2.57-7.45,1.33Zm8.61-2.16.16,16.55c5.21.08,20.68.08,22-.25a1.49,1.49,0,0,0,1.24-1.32c.16-1.16.16-13.9.16-15.31C351.87,51.89,337.22,52.06,330.94,52.3Z"/><path class="cls-2" d="M402,58l16.55-.24c0-1.33-.08-2.57-.08-3.64-.17-4.22-1.41-4.89-2.73-6-.91-.67,0-3,2.07-2.73,2.56.33,9.51,2.64,9.26,3.88a39,39,0,0,0-.41,5c-.25,6.62-.25,17.62,0,22.75.16,4.55-5.13,6-7.2,5.54a1.23,1.23,0,0,1-1-1.4c0-.91.08-2.15.08-3.4L402.09,78v.25c.16,4.55-5.13,6-7.2,5.54a1.23,1.23,0,0,1-1-1.4c.33-6.13.33-19.2,0-26.31-.17-4.22-1.41-4.88-2.73-6-.91-.66,0-3,2.06-2.73,2.57.33,9.52,2.65,9.27,3.89a38.8,38.8,0,0,0-.41,5A12.88,12.88,0,0,0,402,58Zm16.72,5.46-16.8.25c-.08,2.9-.08,5.79,0,8.52l16.8-.24Zm-5.46,29.62c-.25-2.73-1.49-3.47-2.82-4.63-.91-.75,0-3.06,2.15-2.81,2.65.33,9.52,1.9,9.27,3.14a39,39,0,0,0-.41,5.13,9.73,9.73,0,0,0-.09,1.65l23.25-.24a34.65,34.65,0,0,0-.16-3.48c-.25-2.73-1.49-3.47-2.82-4.63-.91-.75,0-3.06,2.15-2.81,2.65.33,9.52,1.9,9.27,3.14a40.92,40.92,0,0,0-.41,5.13c-.25,5.13-.25,17.7,0,22.17s-5.13,6-7.2,5.54a1.22,1.22,0,0,1-1-1.4c.08-.91.16-2.24.16-3.81l-23.16.25c-.17,4.3-5.22,5.71-7.2,5.21a1.23,1.23,0,0,1-1-1.4A253.42,253.42,0,0,0,413.26,93.09ZM444.69,101l-23.41.25c-.08,2.9-.08,5.88,0,8.52l23.41-.33C444.78,106.66,444.78,103.77,444.69,101Zm-.33-32.92a55.74,55.74,0,0,0-11.66,2.56c-.91.25-3.64-1.4-4.72-2.89-1.82-2.4-1.24-4.31-.16-4.14,5.54.91,13.23.25,16.54-.17,0-5.21-.08-10.17-.24-13.65-.17-4.63-1.58-7.19-2.9-8.35-1-.83-.08-3.15,2.23-2.9,2.82.33,10.26,2.9,10,4.14a46.51,46.51,0,0,0-.41,5.46c-.25,7.11-.25,19.94,0,28,.08,4.72-4.8,7.2-7.36,7.2a1.5,1.5,0,0,1-1.57-1.57C444.28,77.87,444.36,73,444.36,68.11Z"/><path class="cls-2" d="M487.8,50.73c10.34,0,18.45,6.37,18.45,16.55s-8.11,16.55-18.45,16.55-18.45-6.37-18.45-16.55S477.46,50.73,487.8,50.73Zm0,6.13c-6.54,0-9.68,5.21-9.68,10.42s3.14,10.42,9.68,10.42,9.68-5.21,9.68-10.42S494.34,56.86,487.8,56.86Zm1.82,44.75a7.06,7.06,0,0,0-2.81-5.29c-1.16-1,0-3.14,1.16-3.23,2.15-.16,10.92,1.08,10.75,1.91-.25,1.32-.25,10.67-.25,13.15,0,3.72,1.41,5.13,8,5.13,18.12,0,24.82-2.9,25.73-2.9,3,0,5.87,2.15,6.53,3.48.83,1.49,0,4.71-1.24,4.71-9.51,0-22.34.09-30.77.17-10.84.08-17.13-2.15-17.13-8.69Zm33.92-51.79c-.25-4.63-1.57-7.19-2.89-8.35-1-.83-.09-3.15,2.23-2.9,2.81.33,10.26,2.9,10,4.14a44.35,44.35,0,0,0-.41,5.46c-.5,11.25-.25,32.43,0,42.19.08,4.72-4.8,7.2-7.37,7.2A1.5,1.5,0,0,1,523.54,96C524,84.82,524.12,61.07,523.54,49.82Z"/><path class="cls-2" d="M268.42,161.06v2.31a5.89,5.89,0,0,0-1.95.51,2.27,2.27,0,0,0-.19.93v14.64c0,5.55-3,8.16-7.85,8.16a8.34,8.34,0,0,1-5.9-2.18v-4.84h2.23a10.67,10.67,0,0,0,.47,2.61c.23.16.54.51.82.67a10.15,10.15,0,0,0,2.38.5c2.81,0,4.29-1.48,4.29-4.92V164.81a2.44,2.44,0,0,0-.19-.93,5.89,5.89,0,0,0-1.95-.51v-2.31Z"/><path class="cls-2" d="M275.57,164.27v8.27h5.54a2.9,2.9,0,0,0,.86-.11,4,4,0,0,0,.43-1.21h2v5.7h-2a3.2,3.2,0,0,0-.43-1.21,2.58,2.58,0,0,0-.86-.12h-5.54V184h7.11a1.89,1.89,0,0,0,.93-.23,6.84,6.84,0,0,0,.51-2.19h2.31v5.62H269.91v-2.3a6.15,6.15,0,0,0,1.95-.51,2.27,2.27,0,0,0,.2-.93V164.81a2.27,2.27,0,0,0-.2-.93,5.89,5.89,0,0,0-1.95-.51v-2.31h16.52v5.63h-2.31a6.84,6.84,0,0,0-.51-2.19,1.78,1.78,0,0,0-.93-.23Z"/><path class="cls-2" d="M293.22,164.27v8.27h5.55a2.88,2.88,0,0,0,.85-.11,4,4,0,0,0,.43-1.21h2v5.7h-2a3.2,3.2,0,0,0-.43-1.21,2.55,2.55,0,0,0-.85-.12h-5.55V184h7.11a1.89,1.89,0,0,0,.93-.23,6.84,6.84,0,0,0,.51-2.19h2.31v5.62H287.56v-2.3a6.07,6.07,0,0,0,1.95-.51,2.27,2.27,0,0,0,.2-.93V164.81a2.27,2.27,0,0,0-.2-.93,5.82,5.82,0,0,0-1.95-.51v-2.31h16.52v5.63h-2.31a6.84,6.84,0,0,0-.51-2.19,1.78,1.78,0,0,0-.93-.23Z"/><path class="cls-2" d="M326.61,161.06v2.31a5.74,5.74,0,0,0-1.95.51,2.27,2.27,0,0,0-.2.93v13.86c0,5.35-3.36,8.94-8.94,8.94s-9-3.59-9-8.94V164.81a2.27,2.27,0,0,0-.2-.93,5.74,5.74,0,0,0-1.95-.51v-2.31h7.81v2.31a5.89,5.89,0,0,0-2,.51,2.27,2.27,0,0,0-.2.93v13.86c0,3.56,2,5.9,5.51,5.9s5.43-2.34,5.43-5.9V164.81a2.27,2.27,0,0,0-.2-.93,5.89,5.89,0,0,0-1.95-.51v-2.31Z"/><path class="cls-2" d="M353.9,184.92v2.3h-8v-2.3a6.15,6.15,0,0,0,1.95-.51,1.76,1.76,0,0,0,.12-.93l-1.8-17.22-5.07,21h-2L333.68,166l-1.56,17.53a2.45,2.45,0,0,0,.15.93,6.15,6.15,0,0,0,2,.51v2.3h-7.45v-2.3a6.15,6.15,0,0,0,2-.51,3.17,3.17,0,0,0,.27-.93l1.95-18.67a1.87,1.87,0,0,0-.11-.93,5.89,5.89,0,0,0-1.95-.51v-2.31h6.79l4.53,17.38,4.18-17.38h7.45v2.31a5.89,5.89,0,0,0-1.95.51,1.87,1.87,0,0,0-.12.93l1.92,18.67a3.17,3.17,0,0,0,.27.93A6.15,6.15,0,0,0,353.9,184.92Z"/><path class="cls-2" d="M381.75,166.69h-2.31a7.2,7.2,0,0,0-.5-2.19,1.85,1.85,0,0,0-.94-.23h-3.71v19.21a2.44,2.44,0,0,0,.19.93,6.15,6.15,0,0,0,2,.51v2.3h-7.81v-2.3a6.15,6.15,0,0,0,1.95-.51,2.27,2.27,0,0,0,.2-.93V164.27H367a1.85,1.85,0,0,0-.94.23,7.44,7.44,0,0,0-.51,2.19H363.2v-5.63h18.55Z"/><path class="cls-2" d="M400.34,184.92v2.3h-7v-2.3a4.45,4.45,0,0,0,1.6-.51,1.81,1.81,0,0,0-.08-.9l-1.09-3.66H386l-1.1,3.66a1.92,1.92,0,0,0-.07.9,4.45,4.45,0,0,0,1.6.51v2.3h-7v-2.3a3.26,3.26,0,0,0,1.36-.51,6.92,6.92,0,0,0,.43-.9l7.15-22.45h3l7.15,22.45c.12.32.31.67.39.9A3.74,3.74,0,0,0,400.34,184.92ZM393,177l-3.09-10.58L386.79,177Z"/><path class="cls-2" d="M420.64,184.92v2.3h-6.48v-2.3a3.47,3.47,0,0,0,1.44-.51c.12-.23-.11-.54-.27-.82l-4.49-7.73-4.53,7.73a1.53,1.53,0,0,0-.27.82,4,4,0,0,0,1.44.51v2.3H401v-2.3a2.05,2.05,0,0,0,1-.51,4.85,4.85,0,0,1,.58-.82l6.17-10-5.5-8.9c-.16-.28-.47-.59-.51-.82a2.16,2.16,0,0,0-1-.51v-2.31h6.45v2.31a3.14,3.14,0,0,0-1.45.51c-.12.23.12.54.27.82l3.87,6.75,3.94-6.75a1.47,1.47,0,0,0,.28-.82,3.87,3.87,0,0,0-1.45-.51v-2.31H420v2.31a2,2,0,0,0-1,.51,8.39,8.39,0,0,1-.55.82l-5.54,9,6.09,9.87a5,5,0,0,1,.59.82A2,2,0,0,0,420.64,184.92Z"/><path class="cls-2" d="M442.08,185.86a9.19,9.19,0,0,1-5.7,1.75c-4.26,0-6.6-2.61-6.28-6.24.27-3.05,2.92-5.16,5.38-6.56-.31-.78-.62-1.56-1-2.38-1.88-4.61.08-8.55,3.51-8.94,3.09-.4,5.16,1.52,5.62,4.49.32,3.24-1.44,5.7-4.68,7.34a41.9,41.9,0,0,0,3.79,6.75,8.43,8.43,0,0,0,.89-3.44,1.85,1.85,0,0,0-.15-.7,4.06,4.06,0,0,0-1.41-.39V175.9h5.82v1.76a6.84,6.84,0,0,0-1.95.39,1.61,1.61,0,0,0-.2.78,10.34,10.34,0,0,1-1.6,4.84,3,3,0,0,0,4.37.2l0,2.22C446.18,187.69,444.11,187.65,442.08,185.86Zm-4.41-.51a6.25,6.25,0,0,0,3-1,36.5,36.5,0,0,1-4.26-7.45c-1.33,1-2.69,2.3-2.93,3.75A3.67,3.67,0,0,0,437.67,185.35Zm-.51-14c.31.71.63,1.41.9,2.07a5,5,0,0,0,2.54-4.61c-.08-1.71-.86-3.16-2.11-3.12C436.58,165.75,435.87,168.25,437.16,171.33Z"/><path class="cls-2" d="M478.94,184.92v2.3h-7v-2.3a4.52,4.52,0,0,0,1.61-.51,1.94,1.94,0,0,0-.08-.9l-1.1-3.66h-7.8l-1.1,3.66a1.94,1.94,0,0,0-.08.9,4.45,4.45,0,0,0,1.6.51v2.3h-7v-2.3a3.26,3.26,0,0,0,1.36-.51,8.52,8.52,0,0,0,.43-.9L467,161.06h3l7.15,22.45c.11.32.31.67.39.9A3.75,3.75,0,0,0,478.94,184.92ZM471.56,177l-3.08-10.58L465.4,177Z"/><path class="cls-2" d="M482.19,174.11c0,6.16,3.16,10.3,6.91,10.3a8.52,8.52,0,0,0,5.35-2l1.48,2.54a10.75,10.75,0,0,1-6.83,2.65c-5.9,0-10.54-5.38-10.54-13.5s4.64-13.44,10.54-13.44a10.09,10.09,0,0,1,6.87,2.54v4.57h-2.3a11.57,11.57,0,0,0-.51-2.65,6.65,6.65,0,0,0-4.06-1.25C485.35,163.88,482.19,168,482.19,174.11Z"/><path class="cls-2" d="M500.58,174.11c0,6.16,3.16,10.3,6.91,10.3a8.52,8.52,0,0,0,5.35-2l1.48,2.54a10.73,10.73,0,0,1-6.83,2.65c-5.89,0-10.54-5.38-10.54-13.5s4.65-13.44,10.54-13.44a10.07,10.07,0,0,1,6.87,2.54v4.57h-2.3a11,11,0,0,0-.51-2.65,6.65,6.65,0,0,0-4.06-1.25C503.74,163.88,500.58,168,500.58,174.11Z"/><path class="cls-2" d="M535,174.18c0,8-3.94,13.43-9.84,13.43s-9.8-5.38-9.8-13.5,3.95-13.44,9.8-13.44S535,166.06,535,174.18Zm-3.79,0c0-6.28-2.46-10.5-6.05-10.5s-6,4.18-6,10.43,2.42,10.5,6,10.5S531.19,180.43,531.19,174.18Z"/><path class="cls-2" d="M558.18,161.06v2.31a5.74,5.74,0,0,0-1.95.51,2.27,2.27,0,0,0-.2.93v13.86c0,5.35-3.36,8.94-8.94,8.94s-9-3.59-9-8.94V164.81a2.27,2.27,0,0,0-.2-.93,5.74,5.74,0,0,0-2-.51v-2.31h7.81v2.31a5.89,5.89,0,0,0-2,.51,2.27,2.27,0,0,0-.2.93v13.86c0,3.56,2,5.9,5.51,5.9s5.43-2.34,5.43-5.9V164.81a2.27,2.27,0,0,0-.2-.93,5.89,5.89,0,0,0-2-.51v-2.31Z"/><path class="cls-2" d="M580.63,161.06v2.31a5.89,5.89,0,0,0-2,.51,2.27,2.27,0,0,0-.2.93v22.41h-3.94L564.62,166v17.5a2.27,2.27,0,0,0,.2.93,6.15,6.15,0,0,0,1.95.51v2.3h-7.42v-2.3a6,6,0,0,0,1.95-.51,2.27,2.27,0,0,0,.2-.93V164.81a2.27,2.27,0,0,0-.2-.93,5.74,5.74,0,0,0-1.95-.51v-2.31h6.37l9.68,20.39V164.81a2.27,2.27,0,0,0-.2-.93,5.74,5.74,0,0,0-2-.51v-2.31Z"/><path class="cls-2" d="M600,166.69h-2.3a7.44,7.44,0,0,0-.51-2.19,1.8,1.8,0,0,0-.94-.23H592.5v19.21a2.27,2.27,0,0,0,.2.93,6.15,6.15,0,0,0,1.95.51v2.3h-7.81v-2.3a6.15,6.15,0,0,0,2-.51,2.44,2.44,0,0,0,.19-.93V164.27H585.2a1.78,1.78,0,0,0-.93.23,7.13,7.13,0,0,0-.51,2.19h-2.34v-5.63H600Z"/><path class="cls-2" d="M602,184.92a6.15,6.15,0,0,0,2-.51,2.44,2.44,0,0,0,.19-.93V164.81a2.44,2.44,0,0,0-.19-.93,5.89,5.89,0,0,0-2-.51v-2.31h7.8v2.31a5.89,5.89,0,0,0-1.95.51,2.27,2.27,0,0,0-.19.93v18.67a2.27,2.27,0,0,0,.19.93,6.15,6.15,0,0,0,1.95.51v2.3H602Z"/><path class="cls-2" d="M633.74,161.06v2.31a5.89,5.89,0,0,0-2,.51,2.27,2.27,0,0,0-.2.93v22.41h-3.94L617.73,166v17.5a2.27,2.27,0,0,0,.2.93,6.07,6.07,0,0,0,2,.51v2.3h-7.42v-2.3a6.07,6.07,0,0,0,1.95-.51,2.27,2.27,0,0,0,.2-.93V164.81a2.27,2.27,0,0,0-.2-.93,5.82,5.82,0,0,0-1.95-.51v-2.31h6.37l9.68,20.39V164.81a2.27,2.27,0,0,0-.2-.93,5.82,5.82,0,0,0-1.95-.51v-2.31Z"/><path class="cls-2" d="M652.88,173.25v2.3a2,2,0,0,0-1,.51,3.28,3.28,0,0,0-.12.93v7.42a7.64,7.64,0,0,1-6.21,3.2c-6.67,0-10.62-5.38-10.62-13.5s3.95-13.44,10.62-13.44a8.86,8.86,0,0,1,6.17,2.23v4.69h-2.3a10.33,10.33,0,0,0-.51-2.66,4.68,4.68,0,0,0-3.36-1.21c-4.25,0-7,4-7,10.39s2.7,10.42,7,10.42a4.64,4.64,0,0,0,3.17-1.29V177a2.28,2.28,0,0,0-.24-.93,9.11,9.11,0,0,0-2.46-.51v-2.3Z"/><path class="cls-2" d="M667,174.11c0,6.16,3.17,10.3,6.91,10.3a8.52,8.52,0,0,0,5.35-2l1.49,2.54a10.75,10.75,0,0,1-6.84,2.65c-5.89,0-10.54-5.38-10.54-13.5s4.65-13.44,10.54-13.44a10.12,10.12,0,0,1,6.88,2.54v4.57h-2.31a10.56,10.56,0,0,0-.51-2.65,6.63,6.63,0,0,0-4.06-1.25C670.18,163.88,667,168,667,174.11Z"/><path class="cls-2" d="M701.41,174.18c0,8-3.94,13.43-9.83,13.43s-9.8-5.38-9.8-13.5,3.94-13.44,9.8-13.44S701.41,166.06,701.41,174.18Zm-3.78,0c0-6.28-2.46-10.5-6-10.5s-6,4.18-6,10.43,2.42,10.5,6,10.5S697.63,180.43,697.63,174.18Z"/><path class="cls-2" d="M722.42,185.43v2.07a10.3,10.3,0,0,1-3.67,0c-1.21-.82-2.06-3.28-3.16-6.05-1.21-3.09-1.79-4.77-4-4.77h-3.28v6.84a2.44,2.44,0,0,0,.19.93,6.15,6.15,0,0,0,2,.51v2.3h-7.81v-2.3a6.15,6.15,0,0,0,2-.51,2.27,2.27,0,0,0,.2-.93V164.81a2.27,2.27,0,0,0-.2-.93,5.89,5.89,0,0,0-2-.51v-2.31h9.52c5,0,8.13,3,8.13,7.7a7.18,7.18,0,0,1-4.18,7,11.3,11.3,0,0,1,2.5,4.22C720.2,184,720.86,185.43,722.42,185.43Zm-10.23-11.68c2.7,0,4.3-1.75,4.3-4.68s-1.6-4.8-4.3-4.8h-3.86v9.48Z"/><path class="cls-2" d="M740.31,169.3c0,5-3.32,8.4-9.37,8.4h-2.5v5.78a2.27,2.27,0,0,0,.2.93,6,6,0,0,0,2,.51v2.3h-7.81v-2.3a6.15,6.15,0,0,0,2-.51,2.27,2.27,0,0,0,.2-.93V164.81a2.27,2.27,0,0,0-.2-.93,5.89,5.89,0,0,0-2-.51v-2.31h8.16C737,161.06,740.31,164.31,740.31,169.3Zm-3.71.28c0-3.24-1.91-5.31-5.66-5.31h-2.5v10.38h2.5C734.69,174.65,736.6,172.86,736.6,169.58Z"/><path class="cls-2" d="M737.5,185a2.29,2.29,0,1,1,2.3,2.26A2.28,2.28,0,0,1,737.5,185Z"/></g></g></svg>