<svg id="그룹_895" data-name="그룹 895" xmlns="http://www.w3.org/2000/svg" xmlns:xlink="http://www.w3.org/1999/xlink" width="178.597" height="49.738" viewBox="0 0 178.597 49.738">
  <defs>
    <clipPath id="clip-path">
      <rect id="사각형_472" data-name="사각형 472" width="178.597" height="49.738" fill="none"/>
    </clipPath>
  </defs>
  <path id="패스_774" data-name="패스 774" d="M1.976,1.976H34.9V47.762H1.976ZM0,0V49.738H36.878V0Z" fill="#fff"/>
  <g id="그룹_894" data-name="그룹 894">
    <g id="그룹_893" data-name="그룹 893" clip-path="url(#clip-path)">
      <path id="패스_775" data-name="패스 775" d="M39.122,29.747c.019.034.069.042.108.043l.131,0a7.88,7.88,0,0,0,.917-.065c.179-.019.376-.041.609-.061,1.091-.093,1.885-.137,2.5-.137a8.008,8.008,0,0,1,1.364.1,3.665,3.665,0,0,1,.915.306V16.387H26.089a3.529,3.529,0,0,1,.658.543,5.39,5.39,0,0,1,.074,1.828H26.81l.012,0a.4.4,0,0,0,.324.4c.071.023.159.051.259.081a9.237,9.237,0,0,1,.9.311l.112.047A6.913,6.913,0,0,1,30,20.438a.7.7,0,0,1,.227.769.728.728,0,0,1-.73.441l-.065,0a4.919,4.919,0,0,1-2.031-1l-.133-.094a1.012,1.012,0,0,0-.47-.226.293.293,0,0,0-.133.038.586.586,0,0,0-.2.22c-.052.155-.109.3-.167.439a6.2,6.2,0,0,1-2.715,3.371,3.533,3.533,0,0,1-1.414.268c-.556,0-1.219-.115-1.412-.436a.394.394,0,0,1,0-.4,6.064,6.064,0,0,1,.623-.8,29.068,29.068,0,0,0,2.6-3.491,5.352,5.352,0,0,0,.829-2.808,2.184,2.184,0,0,1-.173-.336H16.387v13.32a1.51,1.51,0,0,0,.342.108,2.638,2.638,0,0,0,.509.046,7.86,7.86,0,0,0,2.372-.525l.206-.07c.834-.278,3.384-1.163,4.456-1.6.124-.051.249-.1.376-.158a1.4,1.4,0,0,1,.089-.281c.059-.149.093-.245.053-.338-.019-.042-.038-.081-.058-.119-.157-.311-.233-.568.131-1.285A6.243,6.243,0,0,1,27.245,23.4a2.137,2.137,0,0,1,.927-.261,2.242,2.242,0,0,1,.529.08c.113.026.23.054.371.077.73.122.951.188,1.113.421a1.722,1.722,0,0,1,.169.718c.013.116.024.226.041.32a2.8,2.8,0,0,0,.076.3,1.6,1.6,0,0,1,.092.655c-.061.551-1.018,1.2-1.574,1.5a16.128,16.128,0,0,1-1.549.729l-.016.009c-.164.085-.252.147-.261.181,0,0,.028.083.33.2.453.181,1.229.508,1.913.8.538.227,1,.423,1.173.49a4.5,4.5,0,0,1,1.577.9,1.05,1.05,0,0,1,.375.829.467.467,0,0,1-.209.344.873.873,0,0,1-.481.13,2.229,2.229,0,0,1-.784-.186L31,31.61a18.084,18.084,0,0,1-2.58-1.386c-.091-.055-.194-.119-.313-.194-.232-.144-.52-.325-.883-.538l-.031-.018a12.444,12.444,0,0,1,1.21,1.69,3.292,3.292,0,0,1,.435,1.771,3.594,3.594,0,0,1-1.819,2.358,39.886,39.886,0,0,1-5.409,2.83l-.029.012a23.529,23.529,0,0,1-4.3,1.44.572.572,0,0,1-.059,0,1.538,1.538,0,0,0-.163-.008,3.028,3.028,0,0,0-.669.094V58.526H36.336a3.463,3.463,0,0,1-.021-.795,2.326,2.326,0,0,0,0-.479c-.013-.18-.034-.451-.047-.98a2.687,2.687,0,0,1,.4-1.826,2.49,2.49,0,0,0,.251-.726c.006-.024-.027-.061-.043-.074a1.412,1.412,0,0,1-.307-.243.678.678,0,0,0-.264-.162,1.64,1.64,0,0,1-.378-.212.245.245,0,0,1-.114-.282c.043-.124.179-.238.882-.238.177,0,.368.008.564.022a32,32,0,0,1,2.079-4.609,16.046,16.046,0,0,1,2.076-2.571,4.017,4.017,0,0,0,.627-.649,2.558,2.558,0,0,0-.424.131c-.286.1-.9.345-1.682.658s-1.653.663-2.511.992c-1.816.7-7.877,3.033-9.642,3.915-.862.431-1.707.867-2.453,1.251-.768.4-1.43.737-1.83.928a5.75,5.75,0,0,1-1.735.566,2.3,2.3,0,0,1-.418.034c-.566,0-1.5-.166-1.772-.624a.426.426,0,0,1-.05-.368c.106-.3.571-.48,1.415-.8.181-.069.379-.145.593-.229.612-.242,1.671-.625,2.9-1.069,1.6-.577,3.4-1.231,4.778-1.773a49.609,49.609,0,0,0,7.96-4.449c2.02-1.388,2.923-2.783,3.037-3.381.057-.3-.107-.536-.532-.767l-.02-.011c-.23-.125-.411-.223-.419-.4a.282.282,0,0,1,.15-.247,3.4,3.4,0,0,1,1.034-.251c.052,0,.1-.005.143-.005.34,0,.479.112.994.53l.091.074c.412.333.349.691.211,1.247a10.906,10.906,0,0,1-2.043,2.815,8.355,8.355,0,0,1-2,1.7l-.023.014c-.044.028-.084.054-.119.078.815-.3,2.375-.924,3.66-1.474a8.02,8.02,0,0,1,1.82-.526,5.076,5.076,0,0,0,.8-.194,1.1,1.1,0,0,0,.349-.186,1.64,1.64,0,0,1,.281-.177,1.131,1.131,0,0,1,.508-.1,2.373,2.373,0,0,1,.579.077V31.019c-.472-.025-1.267-.041-2.052-.041-.435,0-.812.005-1.093.015-.921.032-2.712.236-3.3.3a1.091,1.091,0,0,1-.124.007,1.677,1.677,0,0,1-1.6-1.723,2.844,2.844,0,0,1,.446-1.241c.2-.333,1.007-1.465,1.239-1.782a1.7,1.7,0,0,0,.211-.336.067.067,0,0,0-.043-.016,1.623,1.623,0,0,0-.5.252c-.429.268-2.335,1.646-2.581,1.867-.129.115-.118.48-.08.7a3.718,3.718,0,0,1,.2,1.465.324.324,0,0,1-.321.314.759.759,0,0,1-.431-.193,5.679,5.679,0,0,1-1.324-1.463,6.61,6.61,0,0,1-.517-1.478c-.038-.146-.075-.292-.112-.437a10.5,10.5,0,0,0-.5-1.621c-.3-.665-.317-.869-.234-1a.232.232,0,0,1,.2-.106.388.388,0,0,1,.091.012,3.774,3.774,0,0,1,1.386,1.151,7.454,7.454,0,0,1,.451.7h0l.072.127c.025.045.1.181.141.191a.068.068,0,0,0,.021-.011c.187-.134,1.495-.969,2.336-1.474l.056-.034a3.681,3.681,0,0,1,1.634-.71.879.879,0,0,1,.326.061,3.562,3.562,0,0,1,1.432,1.236c.278.487-.023.889-.343,1.315s-1.374,2.06-1.6,2.442a.267.267,0,0,0-.048.234m.491,7.616a1.388,1.388,0,0,1-.623,1.161c-.118.077-.313.192-.561.337a22.378,22.378,0,0,0-2.745,1.811A17.588,17.588,0,0,0,33.691,42.7c-.114.149-.25.323-.387.5-.292.374-.594.761-.685.906-.123.2-.229.346-.383.346-.081,0-.191-.042-.253-.244a1.639,1.639,0,0,1,.065-1.412l.022-.05a16.272,16.272,0,0,1,1.009-1.613c.1-.142.168-.249.2-.294l0-.006c-.034.01-.076.025-.129.046a6.643,6.643,0,0,1-1.142.322.726.726,0,0,1-.133.013.735.735,0,0,1-.632-.394,4.313,4.313,0,0,0-.583-.787l-.015-.016c-.141-.145-.273-.3-.208-.454.026-.061.091-.135.263-.135.272,0,.7-.008.768-.01A9.862,9.862,0,0,0,34.781,38c.392-.229.731-.426,1.018-.558l.17-.079a4.75,4.75,0,0,1,2.139-.579q.11,0,.211,0c1.126,0,1.294.364,1.294.58m-6.277-3.726a9,9,0,0,1,1.818-.48l.229-.028a4.438,4.438,0,0,1,.6-.05,2.836,2.836,0,0,1,.563.058c.586.117,1.779,1.43,1.917,1.584a1.128,1.128,0,0,1-.02,1.442.9.9,0,0,1-.746.38,2.338,2.338,0,0,1-.423-.051c-.061-.011-.121-.022-.182-.031a4.178,4.178,0,0,1-.418-.09,2.929,2.929,0,0,0-.706-.117,1.269,1.269,0,0,0-.238.021,4.541,4.541,0,0,1-.841.1,1.523,1.523,0,0,1-.6-.11,1.98,1.98,0,0,1-.237-.123,4.371,4.371,0,0,0-.532-.267A3.7,3.7,0,0,1,31.9,34.4a.235.235,0,0,1,.029-.189c.142-.233.719-.365.834-.389s.333-.1.577-.182" transform="translate(-12.587 -12.587)" fill="#fff"/>
      <path id="패스_776" data-name="패스 776" d="M60.133,50.659c.126-.276.187-.56-.358-.57a2.465,2.465,0,0,0-1.651.849,3.112,3.112,0,0,0-1.195,1.679.677.677,0,0,0,.126.366c.615-.3,1.2-.6,1.66-.86a4.105,4.105,0,0,0,1.418-1.465" transform="translate(-43.728 -38.474)" fill="#fff"/>
      <path id="패스_777" data-name="패스 777" d="M25.8,70.61c-.088-.105-.17-.2-.241-.289-.122-.149-.228-.285-.325-.415-1.08.416-2.147.869-2.861,1.173-.256.109-.469.2-.625.264l-.339.141a8.22,8.22,0,0,1-3.288.869l-.144,0a2.724,2.724,0,0,1-1.591-.553v7.96L16.5,79.7l.417-.2c.333-.16.753-.35,1.241-.57.964-.436,2.164-.978,3.294-1.568A33.382,33.382,0,0,0,26.8,74.13a1.2,1.2,0,0,0,.429-1.4A7.461,7.461,0,0,0,25.8,70.61" transform="translate(-12.587 -53.696)" fill="#fff"/>
      <path id="패스_778" data-name="패스 778" d="M115.55,139.222a10.759,10.759,0,0,0-2.737,2,15.553,15.553,0,0,0-2,3.011c-.365.692-.892,1.832-1.286,2.783a4.778,4.778,0,0,1,1.622.854c.335.427-.217,1.243-.281,1.334a.44.44,0,0,1-.371.2.567.567,0,0,1-.293-.089c-.216-.151-.405-.271-.572-.376-.095-.06-.18-.114-.256-.165-.054-.036-.214-.133-.4-.245a5.011,5.011,0,0,0-.064,1.34,4.89,4.89,0,0,1-.058.877,10.916,10.916,0,0,0-.1,1.488c0,.142,0,.294-.01.447H116.6V138.973a2.982,2.982,0,0,0-1.053.249m-.956,9.833a5.385,5.385,0,0,1-.776,1.965,2.281,2.281,0,0,1-2.062,1.052,2.525,2.525,0,0,1-1.91-.636c-.166-.138-.277-.3,0-.36a3.652,3.652,0,0,0,1.1-.415c.418-.266,1.058-.8,1.529-1.135a1.9,1.9,0,0,0,.858-1.522c.12-1.07-.47-1.259-.747-1.4a4.984,4.984,0,0,1-.927-.45,2.766,2.766,0,0,1-.678-.754c-.124-.227.5-.166.5-.166a7.651,7.651,0,0,0,.83.042,1.576,1.576,0,0,1,1.061.309,5.755,5.755,0,0,1,1.07,1.255,4.846,4.846,0,0,1,.153,2.214" transform="translate(-83.526 -106.748)" fill="#fff"/>
      <path id="패스_779" data-name="패스 779" d="M580.407,38.974c2.544,2.045,3.89,2.643,4.14,2.993a2.232,2.232,0,0,1,.424,2.045,1.051,1.051,0,0,1-1.571.274c-.7-.6-3.117-3.367-3.865-4.289a23.507,23.507,0,0,1-7.805,5.437c-.7.274-.7-.873-.374-1.047,2.494-1.322,7.307-6.085,8.628-9.751a36.175,36.175,0,0,0-5.786.474c-.249.05-1.122-.549-1.446-1.047-.524-.823-.324-1.4,0-1.347a25.4,25.4,0,0,0,7.108,0,7.107,7.107,0,0,0,1.047-.249,3.835,3.835,0,0,1,2.594.948c.125.374-.3.6-.673,1.5a13,13,0,0,1-2.419,4.065m10.025,10.6a2.319,2.319,0,0,1-2.219,2.17.452.452,0,0,1-.474-.474c.15-3.816.175-16.334,0-20.649a3.448,3.448,0,0,0-.873-2.519c-.3-.249-.025-.948.673-.873.848.1,3.092.873,3.017,1.247a13.814,13.814,0,0,0-.125,1.646c-.15,4.389-.075,16.509,0,19.452" transform="translate(-438.71 -20.911)" fill="#fff"/>
      <path id="패스_780" data-name="패스 780" d="M693.556,43.061c.274.524.025,1.471-.4,1.4a62.174,62.174,0,0,0-6.659-.324c-1.746,0-8.3.2-10.05.3-.923.05-2.893.274-3.865.449-.324.05-1.247-.624-1.646-1.247-.6-.923-.4-1.671.025-1.546a27.771,27.771,0,0,0,5.486.549c1.945,0,7.98-.075,9.95-.2,3.392-.249,4.339-.449,5.137-.549a2.531,2.531,0,0,1,2.02,1.172M676.349,49a2.3,2.3,0,0,0-.848-1.7.622.622,0,0,1,.349-.948,19.069,19.069,0,0,1,2.993.274A36.792,36.792,0,0,0,685,46.5a7.221,7.221,0,0,0,1.047-.3,3.568,3.568,0,0,1,2.569.8,8.864,8.864,0,0,1-.274,1.4c-.1.524-.374,3.367-.449,4.115,0,.075.524.424.673.573a.921.921,0,0,1-.723,1.347c-.5.025-7.157.025-8.9.1-.349.648-2.219.748-2.244.4Zm5.611-17.232c3.242,0,5.786,1.446,5.786,4.564s-2.544,4.564-5.786,4.564-5.786-1.446-5.786-4.564,2.544-4.564,5.786-4.564m0,1.646a2.924,2.924,0,1,0,3.117,2.918,2.807,2.807,0,0,0-3.117-2.918m-3.017,14.938.05,4.514c1.521.05,5.86.025,6.26-.05a.45.45,0,0,0,.374-.4c.05-.349.05-3.741.05-4.165-.823-.025-4.963.025-6.733.1" transform="translate(-515.074 -24.399)" fill="#fff"/>
      <path id="패스_781" data-name="패스 781" d="M230.762,44.656a1.34,1.34,0,0,0-.326-1.228c-.154-.23.154-.576.652-.48A6.219,6.219,0,0,1,233.16,44a.285.285,0,0,1,.058.269A11.81,11.81,0,0,1,231.74,47.4c1.189,1.17,2.417,1.938,2.609,2.226a1.9,1.9,0,0,1,.173,1.688.832.832,0,0,1-1.285.1c-.422-.5-1.554-2.225-2.11-3.108a10.581,10.581,0,0,1-4.585,3.741c-.576.211-.5-.672-.288-.787a12.759,12.759,0,0,0,4.508-6.6m5.6,2.878a14.418,14.418,0,0,0-1.727.595c-.173.1-.863-.326-1.113-.71-.422-.576-.307-1.074-.058-1.017a12.179,12.179,0,0,0,2.9,0c0-1.535-.019-2.878-.058-3.7a2.3,2.3,0,0,0-.633-1.784c-.211-.173,0-.71.479-.652.595.077,2.206.614,2.149.882a9.628,9.628,0,0,0-.1,1.17c-.1,2.532-.058,9.784,0,11.875a1.659,1.659,0,0,1-1.573,1.554.328.328,0,0,1-.345-.345c.058-1.535.1-4.873.077-7.865m3.473-6.484a2.457,2.457,0,0,0-.653-1.842c-.211-.173,0-.71.5-.652.614.077,2.264.633,2.206.9a10.125,10.125,0,0,0-.1,1.209c-.1,3.2-.058,12.431,0,15.155a1.678,1.678,0,0,1-1.612,1.554.321.321,0,0,1-.345-.326c.1-3.223.115-12.8,0-16" transform="translate(-173.671 -29.612)" fill="#fff"/>
      <path id="패스_782" data-name="패스 782" d="M312.9,55.051c-1.42.057-2.743.1-3.338.134-.71.038-2.225.211-2.974.345-.25.038-.959-.48-1.266-.959-.46-.71-.307-1.285.019-1.189a21.376,21.376,0,0,0,4.221.422c1.5,0,6.139-.058,7.654-.154,2.609-.192,3.338-.345,3.952-.422a1.947,1.947,0,0,1,1.554.9c.211.4.019,1.132-.307,1.074a47.867,47.867,0,0,0-5.122-.249c-.48,0-1.42.019-2.475.058-.019,1.823.019,4.412.058,5.736a1.784,1.784,0,0,1-1.708,1.669.339.339,0,0,1-.365-.365c.077-1.132.1-5.026.1-7m-3.856-7.808a1.768,1.768,0,0,0-.652-1.3.478.478,0,0,1,.268-.729,13.269,13.269,0,0,1,2.36.23c1.036.058,3.99-.038,4.777-.115a5.579,5.579,0,0,0,.806-.23,3.57,3.57,0,0,1,2.264.614c.038.153-.134.4-.307,1.074-.1.4-.365,2.935-.422,3.511,0,.058.4.326.518.441a.709.709,0,0,1-.556,1.036c-.384.019-5.678.038-7.06.077-.269.518-1.707.595-1.727.307Zm2-.5.038,3.837c1.209.019,4.8.019,5.1-.058a.346.346,0,0,0,.288-.307c.038-.269.038-3.223.038-3.549-.614-.019-4.009.019-5.467.077" transform="translate(-234.304 -34.616)" fill="#fff"/>
      <path id="패스_783" data-name="패스 783" d="M393.409,43.065l3.837-.058c0-.307-.019-.595-.019-.844a1.48,1.48,0,0,0-.633-1.4c-.211-.153,0-.691.48-.633.595.077,2.206.614,2.149.9a8.837,8.837,0,0,0-.1,1.151c-.057,1.535-.057,4.086,0,5.276.039,1.055-1.189,1.4-1.669,1.285a.287.287,0,0,1-.23-.326c0-.211.019-.5.019-.787l-3.818.058v.058c.039,1.055-1.189,1.4-1.669,1.286a.288.288,0,0,1-.23-.326c.077-1.42.077-4.451,0-6.1a1.48,1.48,0,0,0-.633-1.4c-.211-.153,0-.691.48-.633.595.077,2.206.614,2.149.9a8.887,8.887,0,0,0-.1,1.151,3.286,3.286,0,0,0-.019.441m3.875,1.266-3.894.058c-.019.672-.019,1.343,0,1.976l3.894-.058ZM396.018,51.2a1.37,1.37,0,0,0-.652-1.074c-.211-.173,0-.71.5-.652.614.077,2.206.441,2.149.729a9.289,9.289,0,0,0-.1,1.19,2.438,2.438,0,0,0-.019.384l5.391-.058a7.793,7.793,0,0,0-.038-.806,1.37,1.37,0,0,0-.652-1.074c-.211-.173,0-.71.5-.652.614.077,2.206.441,2.149.729a9.3,9.3,0,0,0-.1,1.19c-.058,1.189-.058,4.105,0,5.141.038,1.055-1.189,1.4-1.669,1.285a.287.287,0,0,1-.23-.326c.019-.211.038-.518.038-.883l-5.371.058a1.436,1.436,0,0,1-1.669,1.208.288.288,0,0,1-.23-.326,58.027,58.027,0,0,0,0-6.062m7.29,1.842-5.429.058c-.019.671-.019,1.362,0,1.976L403.308,55c.019-.652.019-1.324,0-1.957m-.077-7.635a13.025,13.025,0,0,0-2.7.595c-.211.058-.844-.326-1.094-.672-.422-.556-.288-1-.039-.959a15.632,15.632,0,0,0,3.837-.038c0-1.209-.019-2.36-.058-3.165a2.653,2.653,0,0,0-.672-1.938c-.23-.192-.019-.729.518-.672.652.077,2.379.672,2.321.959a10.6,10.6,0,0,0-.1,1.266c-.057,1.65-.057,4.623,0,6.5a1.784,1.784,0,0,1-1.707,1.669.348.348,0,0,1-.365-.365c.038-.921.058-2.053.058-3.185" transform="translate(-300.194 -29.613)" fill="#fff"/>
      <path id="패스_784" data-name="패스 784" d="M473.629,41.377c2.4,0,4.278,1.477,4.278,3.837s-1.88,3.837-4.278,3.837-4.278-1.477-4.278-3.837,1.88-3.837,4.278-3.837m0,1.42a2.424,2.424,0,1,0,2.245,2.417,2.237,2.237,0,0,0-2.245-2.417m.422,10.378a1.638,1.638,0,0,0-.652-1.228c-.269-.23,0-.729.268-.748a6.6,6.6,0,0,1,2.494.441c-.057.307-.057,2.475-.057,3.05,0,.863.326,1.189,1.861,1.189a20.455,20.455,0,0,0,5.966-.672,1.94,1.94,0,0,1,1.516.806c.192.345,0,1.094-.288,1.094-2.206,0-5.18.019-7.136.038-2.513.019-3.971-.5-3.971-2.014Zm7.865-12.009a2.738,2.738,0,0,0-.672-1.938c-.23-.192-.019-.729.518-.672.652.077,2.379.672,2.321.959a10.582,10.582,0,0,0-.1,1.266c-.115,2.609-.057,7.52,0,9.784a1.784,1.784,0,0,1-1.707,1.669.348.348,0,0,1-.365-.365c.115-2.59.134-8.1,0-10.7" transform="translate(-360.519 -29.613)" fill="#fff"/>
      <path id="패스_785" data-name="패스 785" d="M256.217,161.064v.534a1.433,1.433,0,0,0-.453.118.548.548,0,0,0-.045.218v3.395a1.664,1.664,0,0,1-1.82,1.892,1.926,1.926,0,0,1-1.367-.507v-1.123h.516a2.623,2.623,0,0,0,.109.607c.054.036.127.118.19.154a2.335,2.335,0,0,0,.552.118c.652,0,1-.344,1-1.141v-3.395a.548.548,0,0,0-.045-.218,1.433,1.433,0,0,0-.453-.118v-.534Z" transform="translate(-193.976 -123.717)" fill="#fff"/>
      <path id="패스_786" data-name="패스 786" d="M271.223,161.806v1.919h1.286a.622.622,0,0,0,.2-.027.973.973,0,0,0,.1-.281h.462v1.322h-.462a.8.8,0,0,0-.1-.281.629.629,0,0,0-.2-.027h-1.286v1.956h1.648a.43.43,0,0,0,.217-.054,1.665,1.665,0,0,0,.118-.507h.534v1.3h-3.83V166.6a1.436,1.436,0,0,0,.453-.118.547.547,0,0,0,.045-.217v-4.327a.547.547,0,0,0-.045-.218,1.437,1.437,0,0,0-.453-.118v-.534h3.83v1.3h-.534a1.665,1.665,0,0,0-.118-.507.428.428,0,0,0-.217-.054Z" transform="translate(-207.324 -123.717)" fill="#fff"/>
      <path id="패스_787" data-name="패스 787" d="M288.873,161.806v1.919h1.285a.623.623,0,0,0,.2-.027.98.98,0,0,0,.1-.281h.462v1.322h-.462a.809.809,0,0,0-.1-.281.63.63,0,0,0-.2-.027h-1.285v1.956h1.648a.431.431,0,0,0,.217-.054,1.665,1.665,0,0,0,.118-.507h.534v1.3h-3.83V166.6a1.433,1.433,0,0,0,.453-.118.548.548,0,0,0,.045-.217v-4.327a.548.548,0,0,0-.045-.218,1.433,1.433,0,0,0-.453-.118v-.534h3.83v1.3h-.534a1.665,1.665,0,0,0-.118-.507.428.428,0,0,0-.217-.054Z" transform="translate(-220.882 -123.717)" fill="#fff"/>
      <path id="패스_788" data-name="패스 788" d="M309.513,161.064v.534a1.433,1.433,0,0,0-.453.118.548.548,0,0,0-.045.218v3.214a2.082,2.082,0,0,1-4.164,0v-3.214a.547.547,0,0,0-.045-.218,1.435,1.435,0,0,0-.453-.118v-.534h1.81v.534a1.435,1.435,0,0,0-.453.118.547.547,0,0,0-.045.218v3.214a1.271,1.271,0,1,0,2.535,0v-3.214a.548.548,0,0,0-.045-.218,1.433,1.433,0,0,0-.453-.118v-.534Z" transform="translate(-233.781 -123.717)" fill="#fff"/>
      <path id="패스_789" data-name="패스 789" d="M333.059,166.6v.534h-1.847V166.6a1.431,1.431,0,0,0,.453-.118.423.423,0,0,0,.027-.217l-.416-3.993L330.1,167.13h-.471L328.37,162.2l-.362,4.065a.549.549,0,0,0,.036.217,1.434,1.434,0,0,0,.453.118v.534h-1.729V166.6a1.431,1.431,0,0,0,.453-.118.758.758,0,0,0,.064-.217l.453-4.327a.426.426,0,0,0-.027-.218,1.429,1.429,0,0,0-.453-.118v-.534h1.575l1.05,4.029.969-4.029h1.729v.534a1.431,1.431,0,0,0-.453.118.428.428,0,0,0-.027.218l.444,4.327a.775.775,0,0,0,.064.217,1.433,1.433,0,0,0,.453.118" transform="translate(-250.997 -123.717)" fill="#fff"/>
      <path id="패스_790" data-name="패스 790" d="M367.5,162.368h-.534a1.66,1.66,0,0,0-.118-.507.428.428,0,0,0-.217-.054h-.86v4.455a.543.543,0,0,0,.045.217,1.432,1.432,0,0,0,.453.118v.534h-1.811V166.6a1.432,1.432,0,0,0,.453-.118.543.543,0,0,0,.045-.217v-4.455h-.878a.429.429,0,0,0-.217.054,1.656,1.656,0,0,0-.118.507H363.2v-1.3h4.3Z" transform="translate(-278.983 -123.717)" fill="#fff"/>
      <path id="패스_791" data-name="패스 791" d="M384.26,166.6v.534h-1.621V166.6a1.041,1.041,0,0,0,.371-.118.426.426,0,0,0-.018-.208l-.253-.851h-1.811l-.253.851a.424.424,0,0,0-.018.208,1.042,1.042,0,0,0,.371.118v.534h-1.621V166.6a.768.768,0,0,0,.317-.118,2.265,2.265,0,0,0,.1-.208l1.657-5.206h.706l1.657,5.206c.027.072.073.154.09.208a.882.882,0,0,0,.326.118m-1.711-1.829-.715-2.453-.715,2.453Z" transform="translate(-291.431 -123.717)" fill="#fff"/>
      <path id="패스_792" data-name="패스 792" d="M405.587,166.6v.534h-1.5V166.6a.819.819,0,0,0,.335-.118c.027-.054-.027-.127-.063-.19l-1.041-1.793-1.05,1.793a.335.335,0,0,0-.063.19.939.939,0,0,0,.335.118v.534h-1.494V166.6a.472.472,0,0,0,.235-.118,1.07,1.07,0,0,1,.136-.19l1.43-2.318-1.276-2.064c-.036-.063-.109-.136-.118-.19a.514.514,0,0,0-.235-.118v-.534h1.494v.534a.768.768,0,0,0-.335.118c-.027.054.027.127.064.19l.9,1.566.915-1.566a.341.341,0,0,0,.063-.19.937.937,0,0,0-.335-.118v-.534h1.467v.534a.478.478,0,0,0-.226.118,1.727,1.727,0,0,1-.127.19L403.8,164l1.412,2.29a1.072,1.072,0,0,1,.136.19.472.472,0,0,0,.235.118" transform="translate(-308.05 -123.717)" fill="#fff"/>
      <path id="패스_793" data-name="패스 793" d="M432.853,168.635a2.129,2.129,0,0,1-1.322.407,1.3,1.3,0,0,1-1.458-1.448,2.159,2.159,0,0,1,1.249-1.521c-.072-.181-.145-.362-.226-.552-.435-1.068.018-1.983.815-2.073a1.125,1.125,0,0,1,1.3,1.041,1.685,1.685,0,0,1-1.086,1.7,9.921,9.921,0,0,0,.878,1.566,1.951,1.951,0,0,0,.208-.8.437.437,0,0,0-.036-.163.894.894,0,0,0-.326-.091v-.38H434.2v.407a1.61,1.61,0,0,0-.453.09.38.38,0,0,0-.045.181,2.43,2.43,0,0,1-.371,1.123.7.7,0,0,0,1.014.045l.009.516a1.1,1.1,0,0,1-1.5-.054m-1.023-.118a1.451,1.451,0,0,0,.7-.227,8.557,8.557,0,0,1-.987-1.729,1.567,1.567,0,0,0-.679.869.852.852,0,0,0,.968,1.087m-.118-3.25c.072.163.145.326.208.48a1.164,1.164,0,0,0,.589-1.068c-.018-.4-.2-.733-.489-.724-.444.018-.607.6-.308,1.313" transform="translate(-330.345 -125.539)" fill="#fff"/>
      <path id="패스_794" data-name="패스 794" d="M462.87,166.6v.534h-1.621V166.6a1.041,1.041,0,0,0,.371-.118.427.427,0,0,0-.018-.208l-.253-.851h-1.811l-.253.851a.424.424,0,0,0-.018.208,1.043,1.043,0,0,0,.371.118v.534h-1.62V166.6a.768.768,0,0,0,.317-.118,2.264,2.264,0,0,0,.1-.208l1.657-5.206h.706l1.657,5.206c.027.072.073.154.09.208a.883.883,0,0,0,.326.118m-1.711-1.829-.715-2.453-.715,2.453Z" transform="translate(-351.814 -123.717)" fill="#fff"/>
      <path id="패스_795" data-name="패스 795" d="M479.4,163.788c0,1.43.733,2.39,1.6,2.39a1.976,1.976,0,0,0,1.24-.462l.344.589a2.491,2.491,0,0,1-1.584.615c-1.367,0-2.445-1.249-2.445-3.132,0-1.865,1.078-3.114,2.445-3.114a2.333,2.333,0,0,1,1.593.589v1.059h-.534a2.612,2.612,0,0,0-.118-.616,1.553,1.553,0,0,0-.941-.29c-.869,0-1.6.951-1.6,2.372" transform="translate(-367.59 -123.417)" fill="#fff"/>
      <path id="패스_796" data-name="패스 796" d="M497.791,163.788c0,1.43.733,2.39,1.6,2.39a1.977,1.977,0,0,0,1.24-.462l.344.589a2.491,2.491,0,0,1-1.584.615c-1.367,0-2.444-1.249-2.444-3.132,0-1.865,1.077-3.114,2.444-3.114a2.333,2.333,0,0,1,1.593.589v1.059h-.534a2.61,2.61,0,0,0-.118-.616,1.553,1.553,0,0,0-.942-.29c-.869,0-1.6.951-1.6,2.372" transform="translate(-381.718 -123.417)" fill="#fff"/>
      <path id="패스_797" data-name="패스 797" d="M519.9,163.806c0,1.865-.914,3.114-2.281,3.114s-2.272-1.249-2.272-3.132c0-1.865.914-3.114,2.272-3.114s2.281,1.249,2.281,3.132m-.878,0c0-1.458-.57-2.435-1.4-2.435s-1.394.969-1.394,2.417.561,2.435,1.394,2.435,1.4-.969,1.4-2.417" transform="translate(-395.846 -123.417)" fill="#fff"/>
      <path id="패스_798" data-name="패스 798" d="M541.082,161.064v.534a1.432,1.432,0,0,0-.452.118.544.544,0,0,0-.045.218v3.214a2.082,2.082,0,0,1-4.165,0v-3.214a.552.552,0,0,0-.045-.218,1.439,1.439,0,0,0-.453-.118v-.534h1.811v.534a1.433,1.433,0,0,0-.453.118.547.547,0,0,0-.045.218v3.214a1.271,1.271,0,1,0,2.535,0v-3.214a.547.547,0,0,0-.045-.218,1.435,1.435,0,0,0-.453-.118v-.534Z" transform="translate(-411.654 -123.717)" fill="#fff"/>
      <path id="패스_799" data-name="패스 799" d="M564.287,161.064v.534a1.435,1.435,0,0,0-.453.118.544.544,0,0,0-.045.218v5.2h-.915l-2.3-4.925v4.056a.548.548,0,0,0,.045.217,1.432,1.432,0,0,0,.453.118v.534h-1.72V166.6a1.435,1.435,0,0,0,.453-.118.548.548,0,0,0,.045-.217v-4.327a.548.548,0,0,0-.045-.218,1.435,1.435,0,0,0-.453-.118v-.534h1.476l2.245,4.726v-3.857a.547.547,0,0,0-.045-.218,1.435,1.435,0,0,0-.453-.118v-.534Z" transform="translate(-429.652 -123.717)" fill="#fff"/>
      <path id="패스_800" data-name="패스 800" d="M585.716,162.368h-.534a1.652,1.652,0,0,0-.118-.507.428.428,0,0,0-.217-.054h-.86v4.455a.544.544,0,0,0,.045.217,1.432,1.432,0,0,0,.453.118v.534h-1.811V166.6a1.431,1.431,0,0,0,.453-.118.543.543,0,0,0,.045-.217v-4.455h-.878a.427.427,0,0,0-.217.054,1.645,1.645,0,0,0-.118.507h-.543v-1.3h4.3Z" transform="translate(-446.599 -123.717)" fill="#fff"/>
      <path id="패스_801" data-name="패스 801" d="M602,166.6a1.435,1.435,0,0,0,.453-.118.549.549,0,0,0,.045-.217v-4.327a.548.548,0,0,0-.045-.218A1.429,1.429,0,0,0,602,161.6v-.534h1.811v.534a1.424,1.424,0,0,0-.453.118.543.543,0,0,0-.045.218v4.327a.544.544,0,0,0,.045.217,1.43,1.43,0,0,0,.453.118v.534H602Z" transform="translate(-462.407 -123.717)" fill="#fff"/>
      <path id="패스_802" data-name="패스 802" d="M617.4,161.064v.534a1.433,1.433,0,0,0-.453.118.544.544,0,0,0-.045.218v5.2h-.914l-2.3-4.925v4.056a.543.543,0,0,0,.045.217,1.433,1.433,0,0,0,.453.118v.534h-1.72V166.6a1.435,1.435,0,0,0,.453-.118.547.547,0,0,0,.045-.217v-4.327a.547.547,0,0,0-.045-.218,1.435,1.435,0,0,0-.453-.118v-.534h1.476l2.245,4.726v-3.857a.548.548,0,0,0-.045-.218,1.435,1.435,0,0,0-.453-.118v-.534Z" transform="translate(-470.445 -123.717)" fill="#fff"/>
      <path id="패스_803" data-name="패스 803" d="M639.11,163.589v.534a.48.48,0,0,0-.227.118.794.794,0,0,0-.027.217v1.72a1.773,1.773,0,0,1-1.44.742c-1.548,0-2.463-1.249-2.463-3.132s.915-3.114,2.463-3.114a2.056,2.056,0,0,1,1.43.516v1.087h-.534a2.433,2.433,0,0,0-.118-.616,1.085,1.085,0,0,0-.779-.281c-.987,0-1.612.923-1.612,2.408s.625,2.418,1.612,2.418a1.072,1.072,0,0,0,.733-.3v-1.448a.547.547,0,0,0-.054-.217,2.151,2.151,0,0,0-.57-.118v-.534Z" transform="translate(-487.723 -123.417)" fill="#fff"/>
      <path id="패스_804" data-name="패스 804" d="M664.225,163.788c0,1.43.733,2.39,1.6,2.39a1.976,1.976,0,0,0,1.24-.462l.344.589a2.491,2.491,0,0,1-1.584.615c-1.367,0-2.444-1.249-2.444-3.132,0-1.865,1.077-3.114,2.444-3.114a2.333,2.333,0,0,1,1.593.589v1.059h-.534a2.612,2.612,0,0,0-.118-.616,1.552,1.552,0,0,0-.941-.29c-.869,0-1.6.951-1.6,2.372" transform="translate(-509.56 -123.417)" fill="#fff"/>
      <path id="패스_805" data-name="패스 805" d="M686.33,163.806c0,1.865-.915,3.114-2.282,3.114s-2.272-1.249-2.272-3.132c0-1.865.914-3.114,2.272-3.114s2.282,1.249,2.282,3.132m-.878,0c0-1.458-.57-2.435-1.4-2.435s-1.394.969-1.394,2.417.561,2.435,1.394,2.435,1.4-.969,1.4-2.417" transform="translate(-523.688 -123.417)" fill="#fff"/>
      <path id="패스_806" data-name="패스 806" d="M707.249,166.713v.48a2.337,2.337,0,0,1-.851-.009,3.5,3.5,0,0,1-.733-1.4c-.281-.715-.416-1.1-.924-1.1h-.76v1.584a.548.548,0,0,0,.045.217,1.434,1.434,0,0,0,.453.118v.534h-1.811V166.6a1.431,1.431,0,0,0,.453-.118.545.545,0,0,0,.045-.217v-4.327a.544.544,0,0,0-.045-.218,1.425,1.425,0,0,0-.453-.118v-.534h2.209a1.711,1.711,0,0,1,1.883,1.784,1.666,1.666,0,0,1-.969,1.62,2.6,2.6,0,0,1,.58.978c.362.933.516,1.267.878,1.267m-2.372-2.707a.959.959,0,0,0,1-1.087.977.977,0,0,0-1-1.113h-.9v2.2Z" transform="translate(-539.736 -123.717)" fill="#fff"/>
      <path id="패스_807" data-name="패스 807" d="M726.844,162.974a1.913,1.913,0,0,1-2.173,1.946h-.579v1.34a.547.547,0,0,0,.045.217,1.425,1.425,0,0,0,.452.118v.534h-1.811V166.6a1.432,1.432,0,0,0,.453-.118.551.551,0,0,0,.045-.217v-4.328a.551.551,0,0,0-.045-.217,1.433,1.433,0,0,0-.453-.118v-.534h1.892c1.4,0,2.173.752,2.173,1.91m-.86.063a1.158,1.158,0,0,0-1.313-1.231h-.579v2.408h.579c.869,0,1.313-.416,1.313-1.177" transform="translate(-555.183 -123.717)" fill="#fff"/>
      <path id="패스_808" data-name="패스 808" d="M737.5,183.219a.53.53,0,1,1,.534.525.528.528,0,0,1-.534-.525" transform="translate(-566.492 -140.331)" fill="#fff"/>
    </g>
  </g>
</svg>
