<svg id="로고_컬러" xmlns="http://www.w3.org/2000/svg" xmlns:xlink="http://www.w3.org/1999/xlink" width="196" height="54.585" viewBox="0 0 196 54.585">
  <defs>
    <clipPath id="clip-path">
      <rect id="사각형_473" data-name="사각형 473" width="196" height="54.585" fill="none"/>
    </clipPath>
  </defs>
  <path id="패스_809" data-name="패스 809" d="M2.168,2.168H38.3V52.417H2.168ZM0,0V54.585H40.471V0Z" fill="#032d6b"/>
  <g id="그룹_899" data-name="그룹 899">
    <g id="그룹_898" data-name="그룹 898" clip-path="url(#clip-path)">
      <path id="패스_810" data-name="패스 810" d="M41.338,31.049c.021.037.076.046.118.047l.144,0a8.648,8.648,0,0,0,1.006-.072c.2-.021.413-.045.669-.067,1.2-.1,2.068-.15,2.742-.15a8.789,8.789,0,0,1,1.5.111,4.023,4.023,0,0,1,1,.336V16.387H27.034a3.873,3.873,0,0,1,.722.6,5.915,5.915,0,0,1,.082,2.007l-.013,0,.013,0a.438.438,0,0,0,.356.434c.078.026.175.056.284.089a10.139,10.139,0,0,1,.984.341l.122.052a7.587,7.587,0,0,1,1.744.927.766.766,0,0,1,.249.844.8.8,0,0,1-.8.483l-.071,0a5.4,5.4,0,0,1-2.229-1.1l-.146-.1a1.11,1.11,0,0,0-.516-.248.321.321,0,0,0-.146.042.643.643,0,0,0-.222.242c-.057.17-.119.333-.183.482-.837,1.931-1.84,3.176-2.98,3.7a3.877,3.877,0,0,1-1.552.294c-.61,0-1.338-.126-1.549-.479a.432.432,0,0,1,0-.44,6.655,6.655,0,0,1,.684-.877,31.9,31.9,0,0,0,2.848-3.832,5.873,5.873,0,0,0,.91-3.081,2.4,2.4,0,0,1-.19-.369H16.387V31a1.657,1.657,0,0,0,.376.119,2.9,2.9,0,0,0,.558.051,8.626,8.626,0,0,0,2.6-.577l.226-.077c.915-.305,3.714-1.276,4.89-1.758.136-.056.274-.114.413-.173a1.537,1.537,0,0,1,.1-.308c.065-.163.1-.268.058-.371-.02-.047-.042-.089-.063-.131-.173-.341-.256-.623.144-1.41A6.851,6.851,0,0,1,28.3,24.079a2.345,2.345,0,0,1,1.017-.286,2.46,2.46,0,0,1,.58.088c.124.029.253.059.407.085.8.134,1.044.206,1.221.462a1.89,1.89,0,0,1,.185.788c.014.127.027.248.045.351a3.073,3.073,0,0,0,.083.331,1.761,1.761,0,0,1,.1.719c-.067.6-1.117,1.32-1.728,1.648a17.7,17.7,0,0,1-1.7.8l-.018.009c-.18.093-.277.161-.286.2,0,0,.031.091.363.224.5.2,1.348.558,2.1.875.59.249,1.1.464,1.287.537a4.939,4.939,0,0,1,1.731.983,1.152,1.152,0,0,1,.411.91.512.512,0,0,1-.23.378.958.958,0,0,1-.528.143,2.447,2.447,0,0,1-.86-.2l-.062-.024a19.847,19.847,0,0,1-2.831-1.521c-.1-.06-.213-.131-.344-.213-.254-.159-.571-.356-.97-.59l-.034-.02A13.657,13.657,0,0,1,29.571,32.6a3.613,3.613,0,0,1,.478,1.943,3.944,3.944,0,0,1-2,2.587,43.774,43.774,0,0,1-5.936,3.106l-.032.013a25.821,25.821,0,0,1-4.72,1.581.627.627,0,0,1-.065,0,1.688,1.688,0,0,0-.179-.009,3.323,3.323,0,0,0-.734.1V62.632H38.279a3.8,3.8,0,0,1-.023-.872,2.553,2.553,0,0,0,0-.525c-.015-.2-.037-.5-.052-1.075a2.949,2.949,0,0,1,.436-2,2.733,2.733,0,0,0,.276-.8c.006-.027-.03-.067-.047-.081a1.55,1.55,0,0,1-.337-.267.744.744,0,0,0-.29-.178,1.8,1.8,0,0,1-.415-.232.269.269,0,0,1-.125-.309c.047-.136.2-.262.968-.262.194,0,.4.009.619.024A35.115,35.115,0,0,1,41.568,51a17.61,17.61,0,0,1,2.278-2.821,4.409,4.409,0,0,0,.688-.713,2.808,2.808,0,0,0-.465.144c-.314.108-.99.379-1.845.722s-1.814.727-2.756,1.088c-1.993.763-8.644,3.328-10.582,4.3-.946.473-1.874.951-2.693,1.373-.842.434-1.57.809-2.008,1.018a6.31,6.31,0,0,1-1.9.621,2.527,2.527,0,0,1-.459.037c-.621,0-1.651-.182-1.944-.684a.468.468,0,0,1-.054-.4c.117-.331.627-.526,1.553-.88.2-.076.416-.159.65-.251.671-.265,1.834-.686,3.181-1.173,1.751-.634,3.734-1.351,5.243-1.946a54.443,54.443,0,0,0,8.735-4.883c2.217-1.523,3.208-3.054,3.333-3.711.063-.329-.118-.588-.584-.842l-.022-.012c-.252-.137-.451-.245-.46-.436a.31.31,0,0,1,.165-.272,3.735,3.735,0,0,1,1.135-.276c.058,0,.109-.006.157-.006.373,0,.525.123,1.091.582l.1.081c.452.366.383.759.232,1.369a11.968,11.968,0,0,1-2.242,3.089,9.168,9.168,0,0,1-2.191,1.87l-.025.016c-.048.03-.092.059-.131.085.894-.325,2.607-1.014,4.017-1.617a8.8,8.8,0,0,1,2-.578,5.569,5.569,0,0,0,.877-.213,1.211,1.211,0,0,0,.383-.2,1.8,1.8,0,0,1,.308-.194,1.241,1.241,0,0,1,.558-.11,2.6,2.6,0,0,1,.635.085v-12.8c-.518-.027-1.39-.045-2.252-.045-.477,0-.892.006-1.2.016-1.011.035-2.976.259-3.622.333a1.2,1.2,0,0,1-.136.008,1.84,1.84,0,0,1-1.751-1.891,3.121,3.121,0,0,1,.49-1.362c.224-.366,1.1-1.608,1.36-1.956a1.871,1.871,0,0,0,.231-.368.074.074,0,0,0-.047-.018,1.781,1.781,0,0,0-.543.277c-.471.294-2.562,1.807-2.833,2.049-.141.126-.13.526-.087.769a4.081,4.081,0,0,1,.222,1.607.356.356,0,0,1-.352.344A.833.833,0,0,1,37.526,32a6.233,6.233,0,0,1-1.453-1.605,7.255,7.255,0,0,1-.567-1.623c-.042-.16-.083-.32-.123-.479a11.518,11.518,0,0,0-.546-1.779c-.334-.73-.347-.954-.257-1.094A.254.254,0,0,1,34.8,25.3a.426.426,0,0,1,.1.013,4.142,4.142,0,0,1,1.521,1.264,8.181,8.181,0,0,1,.495.766h0l.079.14c.028.049.111.2.154.209a.075.075,0,0,0,.023-.012c.205-.148,1.641-1.064,2.563-1.617l.062-.037a4.039,4.039,0,0,1,1.793-.779.965.965,0,0,1,.358.066,3.91,3.91,0,0,1,1.572,1.357c.306.535-.025.976-.376,1.443-.362.483-1.508,2.261-1.759,2.68a.293.293,0,0,0-.053.257m.539,8.359a1.523,1.523,0,0,1-.684,1.274c-.13.084-.344.21-.616.37a24.558,24.558,0,0,0-3.013,1.987,19.3,19.3,0,0,0-2.187,2.227c-.125.163-.274.354-.424.547-.321.411-.652.836-.751.995-.135.215-.251.38-.421.38-.089,0-.209-.046-.278-.267a1.8,1.8,0,0,1,.072-1.549l.024-.055a17.856,17.856,0,0,1,1.107-1.77c.105-.156.184-.273.215-.323l0-.007c-.037.011-.084.028-.142.051a7.291,7.291,0,0,1-1.253.353.8.8,0,0,1-.146.014.807.807,0,0,1-.694-.432,4.734,4.734,0,0,0-.64-.864l-.017-.017c-.154-.16-.3-.33-.228-.5.029-.067.1-.148.289-.148.3,0,.768-.009.843-.011a10.823,10.823,0,0,0,3.636-1.555c.431-.251.8-.468,1.118-.613l.187-.086a5.213,5.213,0,0,1,2.347-.635q.121,0,.231,0c1.236,0,1.42.4,1.42.637m-6.889-4.089a9.876,9.876,0,0,1,1.995-.527l.251-.031a4.87,4.87,0,0,1,.653-.054,3.113,3.113,0,0,1,.617.063c.643.129,1.952,1.569,2.1,1.739a1.238,1.238,0,0,1-.022,1.583.983.983,0,0,1-.818.417,2.566,2.566,0,0,1-.465-.056c-.067-.012-.133-.024-.2-.034a4.585,4.585,0,0,1-.459-.1,3.214,3.214,0,0,0-.775-.128,1.393,1.393,0,0,0-.261.023,4.984,4.984,0,0,1-.923.11,1.672,1.672,0,0,1-.661-.12,2.173,2.173,0,0,1-.26-.135,4.8,4.8,0,0,0-.584-.293,4.065,4.065,0,0,1-1.774-1.625.258.258,0,0,1,.032-.207c.156-.256.789-.4.915-.426s.366-.108.633-.2" transform="translate(-12.217 -12.217)" fill="#032d6b"/>
      <path id="패스_811" data-name="패스 811" d="M60.445,50.714c.138-.3.205-.615-.392-.625a2.7,2.7,0,0,0-1.812.932,3.415,3.415,0,0,0-1.311,1.843.743.743,0,0,0,.138.4c.675-.324,1.313-.656,1.821-.944a4.505,4.505,0,0,0,1.557-1.607" transform="translate(-42.442 -37.343)" fill="#032d6b"/>
      <path id="패스_812" data-name="패스 812" d="M26.717,70.679c-.1-.115-.186-.222-.264-.318-.133-.163-.251-.313-.356-.455-1.185.456-2.356.954-3.14,1.287-.28.119-.514.219-.686.289l-.372.155a9.02,9.02,0,0,1-3.608.953l-.158,0a2.989,2.989,0,0,1-1.746-.607v8.736l.127-.061.457-.219c.365-.176.827-.384,1.361-.626,1.058-.478,2.375-1.074,3.615-1.721a36.635,36.635,0,0,0,5.864-3.55,1.312,1.312,0,0,0,.471-1.532,8.188,8.188,0,0,0-1.566-2.331" transform="translate(-12.217 -52.117)" fill="#032d6b"/>
      <path id="패스_813" data-name="패스 813" d="M116.214,139.246a11.808,11.808,0,0,0-3,2.2,17.07,17.07,0,0,0-2.2,3.3c-.4.759-.979,2.01-1.412,3.054a5.243,5.243,0,0,1,1.78.937c.368.469-.238,1.364-.308,1.464a.483.483,0,0,1-.407.223.623.623,0,0,1-.321-.1c-.237-.166-.445-.3-.628-.413-.1-.066-.2-.125-.281-.181-.06-.039-.235-.146-.44-.269a5.5,5.5,0,0,0-.071,1.47,5.366,5.366,0,0,1-.063.963,11.982,11.982,0,0,0-.111,1.633c0,.156,0,.323-.011.491h8.63v-15.05a3.272,3.272,0,0,0-1.156.273m-1.05,10.791a5.91,5.91,0,0,1-.851,2.157,2.5,2.5,0,0,1-2.263,1.154,2.771,2.771,0,0,1-2.1-.7c-.182-.152-.3-.334,0-.395a4.008,4.008,0,0,0,1.208-.456c.459-.292,1.161-.881,1.678-1.246a2.087,2.087,0,0,0,.942-1.671c.132-1.175-.516-1.382-.82-1.534a5.471,5.471,0,0,1-1.018-.494,3.035,3.035,0,0,1-.744-.828c-.136-.25.547-.182.547-.182a8.4,8.4,0,0,0,.911.046,1.73,1.73,0,0,1,1.164.339A6.315,6.315,0,0,1,115,147.607a5.318,5.318,0,0,1,.168,2.43" transform="translate(-81.069 -103.608)" fill="#032d6b"/>
      <path id="패스_814" data-name="패스 814" d="M581.309,40.119c2.792,2.244,4.269,2.9,4.543,3.284a2.449,2.449,0,0,1,.465,2.244,1.153,1.153,0,0,1-1.724.3c-.766-.657-3.421-3.695-4.242-4.707a25.8,25.8,0,0,1-8.566,5.966c-.766.3-.766-.958-.41-1.149,2.737-1.45,8.019-6.678,9.469-10.7a39.7,39.7,0,0,0-6.349.52c-.273.055-1.231-.6-1.587-1.149-.575-.9-.356-1.533,0-1.478a27.876,27.876,0,0,0,7.8,0,7.8,7.8,0,0,0,1.149-.274,4.209,4.209,0,0,1,2.846,1.04c.137.41-.329.657-.739,1.642a14.266,14.266,0,0,1-2.655,4.461m11,11.631a2.545,2.545,0,0,1-2.436,2.381.5.5,0,0,1-.52-.52c.164-4.187.192-17.926,0-22.661a3.785,3.785,0,0,0-.958-2.764c-.328-.274-.027-1.04.739-.958.93.109,3.394.958,3.311,1.368a15.178,15.178,0,0,0-.137,1.806c-.164,4.817-.082,18.118,0,21.347" transform="translate(-425.805 -20.295)" fill="#26282b"/>
      <path id="패스_815" data-name="패스 815" d="M695.8,44.162c.3.575.027,1.615-.438,1.533a68.232,68.232,0,0,0-7.307-.356c-1.916,0-9.113.219-11.029.329-1.013.055-3.175.3-4.242.493-.356.055-1.368-.684-1.806-1.369-.657-1.013-.438-1.833.027-1.7a30.477,30.477,0,0,0,6.021.6c2.135,0,8.758-.082,10.92-.219,3.722-.274,4.762-.493,5.638-.6a2.778,2.778,0,0,1,2.217,1.286m-18.884,6.514a2.52,2.52,0,0,0-.931-1.861.683.683,0,0,1,.383-1.04,20.925,20.925,0,0,1,3.284.3,40.378,40.378,0,0,0,6.76-.137,7.922,7.922,0,0,0,1.149-.328,3.915,3.915,0,0,1,2.819.876,9.723,9.723,0,0,1-.3,1.533c-.109.575-.411,3.695-.493,4.516,0,.082.575.465.739.629a1.011,1.011,0,0,1-.794,1.478c-.547.027-7.855.027-9.771.109-.383.712-2.436.821-2.463.438Zm6.158-18.911c3.558,0,6.349,1.587,6.349,5.008s-2.791,5.008-6.349,5.008-6.349-1.587-6.349-5.008,2.792-5.008,6.349-5.008m0,1.806a3.209,3.209,0,1,0,3.421,3.2,3.081,3.081,0,0,0-3.421-3.2m-3.311,16.393.055,4.954c1.67.055,6.432.027,6.87-.055a.494.494,0,0,0,.41-.438c.055-.383.055-4.105.055-4.57-.9-.027-5.446.027-7.389.109" transform="translate(-499.923 -23.681)" fill="#26282b"/>
      <path id="패스_816" data-name="패스 816" d="M231.217,45.251a1.47,1.47,0,0,0-.358-1.347c-.169-.253.168-.632.716-.527a6.825,6.825,0,0,1,2.274,1.158.313.313,0,0,1,.063.295,12.962,12.962,0,0,1-1.621,3.432c1.305,1.284,2.653,2.126,2.863,2.442a2.08,2.08,0,0,1,.19,1.853.913.913,0,0,1-1.411.105c-.463-.547-1.705-2.442-2.316-3.411a11.612,11.612,0,0,1-5.031,4.105c-.632.232-.547-.737-.316-.863a14,14,0,0,0,4.947-7.242m6.148,3.158a15.823,15.823,0,0,0-1.895.652c-.189.105-.947-.358-1.221-.779-.463-.632-.337-1.179-.063-1.116a13.366,13.366,0,0,0,3.179,0c0-1.684-.021-3.158-.063-4.063a2.527,2.527,0,0,0-.694-1.958c-.232-.19,0-.779.526-.716.653.084,2.421.674,2.358.968a10.562,10.562,0,0,0-.105,1.284c-.105,2.779-.063,10.737,0,13.032a1.82,1.82,0,0,1-1.726,1.705.36.36,0,0,1-.379-.379c.063-1.684.105-5.347.084-8.632m3.811-7.116a2.7,2.7,0,0,0-.716-2.021c-.232-.19,0-.779.547-.716.674.084,2.484.695,2.421.99a11.121,11.121,0,0,0-.105,1.326c-.105,3.516-.063,13.642,0,16.632a1.842,1.842,0,0,1-1.769,1.705.352.352,0,0,1-.379-.358c.105-3.537.126-14.043,0-17.558" transform="translate(-168.562 -28.741)" fill="#26282b"/>
      <path id="패스_817" data-name="패스 817" d="M313.668,56.024c-1.558.063-3.011.105-3.663.147-.779.042-2.442.232-3.263.379-.274.042-1.053-.526-1.389-1.053-.505-.779-.337-1.411.021-1.305a23.459,23.459,0,0,0,4.632.463c1.642,0,6.737-.063,8.4-.168,2.863-.21,3.663-.379,4.337-.463a2.137,2.137,0,0,1,1.705.99c.232.442.021,1.242-.337,1.179a52.53,52.53,0,0,0-5.621-.274c-.526,0-1.558.021-2.716.063-.021,2,.021,4.842.063,6.295a1.958,1.958,0,0,1-1.874,1.832.372.372,0,0,1-.4-.4c.084-1.242.105-5.516.105-7.684m-4.232-8.569a1.94,1.94,0,0,0-.716-1.432.525.525,0,0,1,.295-.8,14.562,14.562,0,0,1,2.59.252c1.137.063,4.379-.042,5.242-.126a6.124,6.124,0,0,0,.884-.253,3.918,3.918,0,0,1,2.484.674c.042.168-.147.442-.337,1.179-.105.442-.4,3.221-.463,3.853,0,.063.442.358.568.484a.778.778,0,0,1-.61,1.137c-.421.021-6.232.042-7.748.084-.295.568-1.874.653-1.895.337Zm2.189-.547.042,4.211c1.326.021,5.263.021,5.6-.063a.38.38,0,0,0,.316-.337c.042-.295.042-3.537.042-3.895-.674-.021-4.4.021-6,.084" transform="translate(-227.412 -33.598)" fill="#26282b"/>
      <path id="패스_818" data-name="패스 818" d="M393.662,43.5l4.21-.063c0-.337-.021-.653-.021-.927a1.624,1.624,0,0,0-.695-1.537c-.232-.168,0-.758.526-.695.652.084,2.421.674,2.358.99a9.7,9.7,0,0,0-.105,1.263c-.063,1.684-.063,4.484,0,5.79.042,1.158-1.305,1.537-1.832,1.41a.315.315,0,0,1-.252-.358c0-.232.021-.547.021-.863l-4.19.063v.063c.042,1.158-1.305,1.537-1.831,1.411a.316.316,0,0,1-.253-.358c.084-1.558.084-4.884,0-6.695a1.625,1.625,0,0,0-.695-1.537c-.232-.168,0-.758.526-.695.653.084,2.421.674,2.358.99a9.752,9.752,0,0,0-.105,1.263,3.6,3.6,0,0,0-.021.484m4.253,1.389-4.274.063c-.021.737-.021,1.474,0,2.169l4.274-.063Zm-1.39,7.537a1.5,1.5,0,0,0-.716-1.179c-.232-.19,0-.779.548-.716.674.084,2.421.484,2.358.8a10.205,10.205,0,0,0-.105,1.305,2.673,2.673,0,0,0-.021.421L404.5,53a8.543,8.543,0,0,0-.042-.884,1.5,1.5,0,0,0-.716-1.179c-.232-.189,0-.779.547-.716.674.084,2.421.485,2.358.8a10.2,10.2,0,0,0-.105,1.305c-.063,1.305-.063,4.505,0,5.642.042,1.158-1.305,1.537-1.831,1.411a.315.315,0,0,1-.253-.358c.021-.232.042-.568.042-.969l-5.895.063a1.576,1.576,0,0,1-1.832,1.326.316.316,0,0,1-.253-.358,63.677,63.677,0,0,0,0-6.653m8,2.021-5.958.063c-.021.737-.021,1.495,0,2.168l5.958-.084c.021-.716.021-1.453,0-2.147m-.084-8.379a14.3,14.3,0,0,0-2.968.653c-.232.063-.927-.358-1.2-.737-.463-.61-.316-1.095-.042-1.052a17.155,17.155,0,0,0,4.211-.042c0-1.326-.021-2.59-.063-3.474a2.912,2.912,0,0,0-.737-2.126c-.253-.21-.021-.8.568-.737.716.084,2.611.737,2.548,1.053a11.634,11.634,0,0,0-.105,1.39c-.063,1.81-.063,5.074,0,7.137a1.958,1.958,0,0,1-1.874,1.832.382.382,0,0,1-.4-.4c.042-1.011.063-2.253.063-3.495" transform="translate(-291.363 -28.742)" fill="#26282b"/>
      <path id="패스_819" data-name="패스 819" d="M474.046,41.652c2.632,0,4.7,1.621,4.7,4.211s-2.063,4.21-4.7,4.21-4.695-1.621-4.695-4.21,2.063-4.211,4.695-4.211m0,1.558a2.66,2.66,0,1,0,2.463,2.653,2.455,2.455,0,0,0-2.463-2.653m.463,11.39a1.8,1.8,0,0,0-.716-1.347c-.295-.252,0-.8.295-.821.547-.042,2.779.274,2.737.484-.063.337-.063,2.716-.063,3.348,0,.947.358,1.305,2.042,1.305a22.447,22.447,0,0,0,6.548-.737,2.129,2.129,0,0,1,1.663.884c.21.379,0,1.2-.316,1.2-2.421,0-5.684.021-7.832.042-2.758.021-4.358-.547-4.358-2.211Zm8.632-13.179a3,3,0,0,0-.737-2.126c-.253-.211-.021-.8.568-.737.716.084,2.611.737,2.548,1.053A11.614,11.614,0,0,0,485.415,41c-.126,2.863-.063,8.253,0,10.737a1.958,1.958,0,0,1-1.874,1.832.382.382,0,0,1-.4-.4c.126-2.842.147-8.884,0-11.748" transform="translate(-349.914 -28.742)" fill="#26282b"/>
      <path id="패스_820" data-name="패스 820" d="M256.576,161.064v.586a1.572,1.572,0,0,0-.5.129.6.6,0,0,0-.05.239v3.726a1.827,1.827,0,0,1-2,2.076,2.114,2.114,0,0,1-1.5-.556v-1.232h.566a2.877,2.877,0,0,0,.119.666c.06.04.139.129.209.169a2.564,2.564,0,0,0,.606.129c.715,0,1.093-.378,1.093-1.252v-3.726a.6.6,0,0,0-.05-.239,1.572,1.572,0,0,0-.5-.129v-.586Z" transform="translate(-188.27 -120.078)" fill="#26282b"/>
      <path id="패스_821" data-name="패스 821" d="M271.351,161.879v2.106h1.411a.683.683,0,0,0,.219-.03,1.067,1.067,0,0,0,.109-.308h.507v1.45h-.507a.881.881,0,0,0-.109-.308.691.691,0,0,0-.219-.03h-1.411v2.146h1.808a.472.472,0,0,0,.238-.06,1.828,1.828,0,0,0,.129-.557h.586v1.431h-4.2v-.586a1.576,1.576,0,0,0,.5-.129.6.6,0,0,0,.05-.238v-4.749a.6.6,0,0,0-.05-.239,1.576,1.576,0,0,0-.5-.129v-.586h4.2v1.431h-.586a1.827,1.827,0,0,0-.129-.557.469.469,0,0,0-.238-.06Z" transform="translate(-201.226 -120.078)" fill="#26282b"/>
      <path id="패스_822" data-name="패스 822" d="M289,161.879v2.106h1.411a.684.684,0,0,0,.219-.03,1.076,1.076,0,0,0,.109-.308h.507v1.45h-.507a.888.888,0,0,0-.109-.308.692.692,0,0,0-.219-.03H289v2.146h1.808a.472.472,0,0,0,.238-.06,1.826,1.826,0,0,0,.129-.557h.586v1.431h-4.2v-.586a1.572,1.572,0,0,0,.5-.129.6.6,0,0,0,.05-.238v-4.749a.6.6,0,0,0-.05-.239,1.572,1.572,0,0,0-.5-.129v-.586h4.2v1.431h-.586a1.826,1.826,0,0,0-.129-.557.47.47,0,0,0-.238-.06Z" transform="translate(-214.384 -120.078)" fill="#26282b"/>
      <path id="패스_823" data-name="패스 823" d="M310.016,161.064v.586a1.573,1.573,0,0,0-.5.129.6.6,0,0,0-.05.239v3.527a2.285,2.285,0,0,1-4.57,0v-3.527a.6.6,0,0,0-.05-.239,1.574,1.574,0,0,0-.5-.129v-.586h1.987v.586a1.574,1.574,0,0,0-.5.129.6.6,0,0,0-.05.239v3.527a1.4,1.4,0,1,0,2.782,0v-3.527a.6.6,0,0,0-.05-.239,1.572,1.572,0,0,0-.5-.129v-.586Z" transform="translate(-226.904 -120.078)" fill="#26282b"/>
      <path id="패스_824" data-name="패스 824" d="M333.672,167.135v.586h-2.027v-.586a1.57,1.57,0,0,0,.5-.129.465.465,0,0,0,.03-.238l-.457-4.382-1.292,5.336h-.517l-1.381-5.415-.4,4.461a.6.6,0,0,0,.04.238,1.575,1.575,0,0,0,.5.129v.586h-1.9v-.586a1.57,1.57,0,0,0,.5-.129.833.833,0,0,0,.07-.238l.5-4.749a.468.468,0,0,0-.03-.239,1.568,1.568,0,0,0-.5-.129v-.586h1.729l1.152,4.421,1.063-4.421h1.9v.586a1.57,1.57,0,0,0-.5.129.47.47,0,0,0-.03.239l.487,4.749a.849.849,0,0,0,.07.238,1.572,1.572,0,0,0,.5.129" transform="translate(-243.614 -120.078)" fill="#26282b"/>
      <path id="패스_825" data-name="패스 825" d="M367.92,162.495h-.586a1.822,1.822,0,0,0-.129-.556.47.47,0,0,0-.238-.06h-.944v4.889a.6.6,0,0,0,.05.238,1.571,1.571,0,0,0,.5.129v.586h-1.987v-.586a1.572,1.572,0,0,0,.5-.129.6.6,0,0,0,.05-.238v-4.889h-.964a.47.47,0,0,0-.238.06,1.817,1.817,0,0,0-.129.556h-.6v-1.431h4.719Z" transform="translate(-270.777 -120.078)" fill="#26282b"/>
      <path id="패스_826" data-name="패스 826" d="M384.733,167.135v.586h-1.779v-.586a1.142,1.142,0,0,0,.407-.129.468.468,0,0,0-.02-.229l-.278-.934h-1.987l-.278.934a.465.465,0,0,0-.02.229,1.144,1.144,0,0,0,.407.129v.586h-1.779v-.586a.843.843,0,0,0,.348-.129,2.489,2.489,0,0,0,.109-.229l1.818-5.713h.775l1.818,5.713c.03.079.08.169.1.229a.969.969,0,0,0,.358.129m-1.878-2.007-.785-2.693-.785,2.693Z" transform="translate(-282.859 -120.078)" fill="#26282b"/>
      <path id="패스_827" data-name="패스 827" d="M406.03,167.135v.586H404.38v-.586a.9.9,0,0,0,.367-.129c.03-.06-.03-.139-.069-.209l-1.143-1.967-1.152,1.967a.368.368,0,0,0-.069.209,1.03,1.03,0,0,0,.367.129v.586h-1.639v-.586a.517.517,0,0,0,.258-.129,1.179,1.179,0,0,1,.149-.209l1.57-2.544-1.4-2.265c-.04-.069-.119-.149-.13-.209a.565.565,0,0,0-.258-.129v-.586h1.639v.586a.843.843,0,0,0-.368.129c-.03.06.03.139.07.209l.984,1.719,1-1.719a.374.374,0,0,0,.069-.209,1.027,1.027,0,0,0-.368-.129v-.586h1.61v.586a.524.524,0,0,0-.248.129,1.9,1.9,0,0,1-.139.209l-1.411,2.3,1.55,2.514a1.176,1.176,0,0,1,.149.209.518.518,0,0,0,.258.129" transform="translate(-298.988 -120.078)" fill="#26282b"/>
      <path id="패스_828" data-name="패스 828" d="M433.125,169.141a2.336,2.336,0,0,1-1.451.447,1.424,1.424,0,0,1-1.6-1.589,2.369,2.369,0,0,1,1.371-1.669c-.079-.2-.159-.4-.248-.606-.477-1.172.02-2.176.894-2.275a1.235,1.235,0,0,1,1.431,1.142,1.849,1.849,0,0,1-1.192,1.868,10.894,10.894,0,0,0,.963,1.719,2.141,2.141,0,0,0,.229-.874.481.481,0,0,0-.04-.179.981.981,0,0,0-.358-.1v-.417h1.481v.447a1.767,1.767,0,0,0-.5.1.417.417,0,0,0-.05.2,2.667,2.667,0,0,1-.407,1.232.771.771,0,0,0,1.113.049l.01.566a1.209,1.209,0,0,1-1.649-.06M432,169.012a1.592,1.592,0,0,0,.765-.249,9.4,9.4,0,0,1-1.083-1.9,1.72,1.72,0,0,0-.745.954A.935.935,0,0,0,432,169.012m-.129-3.567c.079.179.159.358.229.527a1.277,1.277,0,0,0,.646-1.173c-.02-.437-.219-.8-.536-.795-.487.02-.666.656-.338,1.441" transform="translate(-320.627 -121.846)" fill="#26282b"/>
      <path id="패스_829" data-name="패스 829" d="M463.342,167.135v.586h-1.779v-.586a1.143,1.143,0,0,0,.407-.129.467.467,0,0,0-.02-.229l-.278-.934h-1.987l-.278.934a.465.465,0,0,0-.02.229,1.144,1.144,0,0,0,.407.129v.586h-1.778v-.586a.844.844,0,0,0,.348-.129,2.5,2.5,0,0,0,.109-.229l1.818-5.713h.775l1.818,5.713c.03.079.08.169.1.229a.969.969,0,0,0,.358.129m-1.878-2.007-.785-2.693-.785,2.693Z" transform="translate(-341.465 -120.078)" fill="#26282b"/>
      <path id="패스_830" data-name="패스 830" d="M479.48,164.092c0,1.57.8,2.623,1.759,2.623a2.168,2.168,0,0,0,1.361-.507l.378.646a2.734,2.734,0,0,1-1.739.675c-1.5,0-2.683-1.371-2.683-3.438,0-2.047,1.183-3.418,2.683-3.418a2.56,2.56,0,0,1,1.748.646v1.162H482.4a2.866,2.866,0,0,0-.129-.676,1.7,1.7,0,0,0-1.033-.318c-.954,0-1.759,1.043-1.759,2.6" transform="translate(-356.777 -119.787)" fill="#26282b"/>
      <path id="패스_831" data-name="패스 831" d="M497.873,164.092c0,1.57.8,2.623,1.759,2.623a2.169,2.169,0,0,0,1.361-.507l.378.646a2.734,2.734,0,0,1-1.739.675c-1.5,0-2.683-1.371-2.683-3.438,0-2.047,1.182-3.418,2.683-3.418a2.56,2.56,0,0,1,1.749.646v1.162h-.586a2.865,2.865,0,0,0-.129-.676,1.7,1.7,0,0,0-1.033-.318c-.954,0-1.759,1.043-1.759,2.6" transform="translate(-370.49 -119.787)" fill="#26282b"/>
      <path id="패스_832" data-name="패스 832" d="M520.34,164.112c0,2.047-1,3.418-2.5,3.418s-2.494-1.371-2.494-3.438c0-2.047,1-3.418,2.494-3.418s2.5,1.371,2.5,3.438m-.964,0c0-1.6-.626-2.673-1.54-2.673s-1.53,1.063-1.53,2.653.616,2.672,1.53,2.672,1.54-1.063,1.54-2.653" transform="translate(-384.202 -119.787)" fill="#26282b"/>
      <path id="패스_833" data-name="패스 833" d="M541.585,161.064v.586a1.571,1.571,0,0,0-.5.129.6.6,0,0,0-.05.239v3.527a2.285,2.285,0,0,1-4.57,0v-3.527a.606.606,0,0,0-.05-.239,1.578,1.578,0,0,0-.5-.129v-.586h1.987v.586a1.571,1.571,0,0,0-.5.129.6.6,0,0,0-.05.239v3.527a1.4,1.4,0,1,0,2.782,0v-3.527a.6.6,0,0,0-.05-.239,1.574,1.574,0,0,0-.5-.129v-.586Z" transform="translate(-399.545 -120.078)" fill="#26282b"/>
      <path id="패스_834" data-name="패스 834" d="M564.768,161.064v.586a1.575,1.575,0,0,0-.5.129.6.6,0,0,0-.05.239v5.7h-1l-2.524-5.405v4.451a.6.6,0,0,0,.05.238,1.572,1.572,0,0,0,.5.129v.586h-1.888v-.586a1.575,1.575,0,0,0,.5-.129.6.6,0,0,0,.05-.238v-4.749a.6.6,0,0,0-.05-.239,1.575,1.575,0,0,0-.5-.129v-.586h1.619l2.464,5.187v-4.233a.6.6,0,0,0-.05-.239,1.574,1.574,0,0,0-.5-.129v-.586Z" transform="translate(-417.014 -120.078)" fill="#26282b"/>
      <path id="패스_835" data-name="패스 835" d="M586.135,162.495h-.586a1.816,1.816,0,0,0-.129-.556.47.47,0,0,0-.239-.06h-.944v4.889a.6.6,0,0,0,.05.238,1.571,1.571,0,0,0,.5.129v.586H582.8v-.586a1.572,1.572,0,0,0,.5-.129.6.6,0,0,0,.05-.238v-4.889h-.964a.468.468,0,0,0-.238.06,1.8,1.8,0,0,0-.13.556h-.6v-1.431h4.719Z" transform="translate(-433.462 -120.078)" fill="#26282b"/>
      <path id="패스_836" data-name="패스 836" d="M602,167.135a1.574,1.574,0,0,0,.5-.129.6.6,0,0,0,.05-.238v-4.749a.6.6,0,0,0-.05-.239,1.567,1.567,0,0,0-.5-.129v-.586h1.987v.586a1.563,1.563,0,0,0-.5.129.6.6,0,0,0-.05.239v4.749a.6.6,0,0,0,.05.238,1.57,1.57,0,0,0,.5.129v.586H602Z" transform="translate(-448.805 -120.078)" fill="#26282b"/>
      <path id="패스_837" data-name="패스 837" d="M617.876,161.064v.586a1.572,1.572,0,0,0-.5.129.6.6,0,0,0-.05.239v5.7h-1l-2.524-5.405v4.451a.6.6,0,0,0,.05.238,1.572,1.572,0,0,0,.5.129v.586h-1.888v-.586a1.575,1.575,0,0,0,.5-.129.6.6,0,0,0,.05-.238v-4.749a.6.6,0,0,0-.05-.239,1.575,1.575,0,0,0-.5-.129v-.586h1.619l2.464,5.187v-4.233a.6.6,0,0,0-.05-.239,1.574,1.574,0,0,0-.5-.129v-.586Z" transform="translate(-456.607 -120.078)" fill="#26282b"/>
      <path id="패스_838" data-name="패스 838" d="M639.515,163.873v.586a.526.526,0,0,0-.249.129.876.876,0,0,0-.029.239v1.888a1.946,1.946,0,0,1-1.58.815c-1.7,0-2.7-1.371-2.7-3.438s1-3.418,2.7-3.418a2.256,2.256,0,0,1,1.57.566v1.192h-.586a2.674,2.674,0,0,0-.129-.676,1.191,1.191,0,0,0-.854-.308c-1.083,0-1.769,1.013-1.769,2.643s.686,2.653,1.769,2.653a1.177,1.177,0,0,0,.8-.328v-1.589a.6.6,0,0,0-.06-.239,2.359,2.359,0,0,0-.626-.129v-.586Z" transform="translate(-473.376 -119.787)" fill="#26282b"/>
      <path id="패스_839" data-name="패스 839" d="M664.307,164.092c0,1.57.8,2.623,1.759,2.623a2.169,2.169,0,0,0,1.361-.507l.377.646a2.733,2.733,0,0,1-1.739.675c-1.5,0-2.683-1.371-2.683-3.438,0-2.047,1.182-3.418,2.683-3.418a2.56,2.56,0,0,1,1.748.646v1.162h-.586a2.863,2.863,0,0,0-.129-.676,1.7,1.7,0,0,0-1.033-.318c-.954,0-1.759,1.043-1.759,2.6" transform="translate(-494.571 -119.787)" fill="#26282b"/>
      <path id="패스_840" data-name="패스 840" d="M686.774,164.112c0,2.047-1,3.418-2.5,3.418s-2.494-1.371-2.494-3.438c0-2.047,1-3.418,2.494-3.418s2.5,1.371,2.5,3.438m-.964,0c0-1.6-.626-2.673-1.54-2.673s-1.53,1.063-1.53,2.653.616,2.672,1.53,2.672,1.54-1.063,1.54-2.653" transform="translate(-508.283 -119.787)" fill="#26282b"/>
      <path id="패스_841" data-name="패스 841" d="M707.7,167.264v.527a2.565,2.565,0,0,1-.934-.01,3.845,3.845,0,0,1-.8-1.54c-.308-.785-.457-1.212-1.013-1.212h-.834v1.739a.6.6,0,0,0,.05.238,1.575,1.575,0,0,0,.5.129v.586h-1.987v-.586a1.57,1.57,0,0,0,.5-.129.6.6,0,0,0,.05-.238v-4.749a.6.6,0,0,0-.05-.239,1.563,1.563,0,0,0-.5-.129v-.586h2.424a1.878,1.878,0,0,1,2.067,1.957A1.829,1.829,0,0,1,706.1,164.8a2.85,2.85,0,0,1,.636,1.073c.4,1.024.566,1.391.964,1.391m-2.6-2.97a1.053,1.053,0,0,0,1.093-1.192,1.072,1.072,0,0,0-1.093-1.222h-.984v2.414Z" transform="translate(-523.859 -120.078)" fill="#26282b"/>
      <path id="패스_842" data-name="패스 842" d="M727.24,163.161a2.1,2.1,0,0,1-2.385,2.136h-.636v1.471a.6.6,0,0,0,.05.238,1.564,1.564,0,0,0,.5.129v.586h-1.987v-.586a1.57,1.57,0,0,0,.5-.129.606.606,0,0,0,.05-.238v-4.749a.606.606,0,0,0-.05-.238,1.572,1.572,0,0,0-.5-.129v-.586h2.077c1.54,0,2.385.825,2.385,2.1m-.944.069a1.271,1.271,0,0,0-1.441-1.351h-.636v2.643h.636c.954,0,1.441-.457,1.441-1.291" transform="translate(-538.852 -120.078)" fill="#26282b"/>
      <path id="패스_843" data-name="패스 843" d="M737.5,183.27a.581.581,0,1,1,.586.576.579.579,0,0,1-.586-.576" transform="translate(-549.828 -136.204)" fill="#26282b"/>
    </g>
  </g>
</svg>
